<svg width="24" height="24" viewBox="0 0 24 24" fill="none" xmlns="http://www.w3.org/2000/svg">
<path d="M24.0002 2.43369C20.7721 1.91121 18.3744 2.52869 16.8072 4.28616C15.2399 6.04363 14.4563 8.63233 14.4563 12.0523V21.7421H24.0002V12.0523H19.0879C18.8306 10.3423 19.0645 8.95295 19.7897 7.88422C20.5382 6.81549 21.7546 6.35237 23.4388 6.49487L24.0002 2.43369ZM9.54404 2.43369C6.31597 1.91121 3.91831 2.52869 2.35106 4.28616C0.783805 6.04363 0.000179291 8.63233 0.000179291 12.0523V21.7421H9.54404V12.0523H4.63176C4.37445 10.3423 4.60837 8.95295 5.33351 7.88422C6.08205 6.81549 7.29842 6.35237 8.98263 6.49487L9.54404 2.43369Z" fill="white"/>
</svg>
