<svg width="306" height="300" viewBox="0 0 306 300" fill="none" xmlns="http://www.w3.org/2000/svg">
<path d="M48.134 155.504C42.5264 155.504 37.1749 153.54 32.8197 149.897C27.9807 145.798 25.0203 140.048 24.4795 133.729C23.9386 127.409 25.9027 121.232 30.0017 116.365C34.1007 111.497 39.8506 108.537 46.1699 107.996C59.2354 106.886 70.7637 116.621 71.8739 129.687C72.4147 136.006 70.4506 142.183 66.3517 147.05C62.2527 151.918 56.5027 154.878 50.1835 155.419C49.5003 155.476 48.8171 155.504 48.134 155.504ZM48.1909 108.765C47.5362 108.765 46.8815 108.793 46.2268 108.85C40.1353 109.363 34.5846 112.237 30.6279 116.906C26.6713 121.574 24.7926 127.523 25.305 133.643C25.8173 139.735 28.6923 145.285 33.3606 149.242C38.0573 153.199 43.9781 155.078 50.0981 154.565C56.1896 154.053 61.7403 151.178 65.697 146.51C69.6536 141.813 71.5323 135.892 71.0199 129.772C70.0237 117.817 59.9755 108.765 48.1909 108.765Z" fill="#0B0F19"/>
<path d="M48.164 148.675C44.1789 148.675 40.3361 147.28 37.2334 144.662C33.7607 141.73 31.6543 137.631 31.2558 133.133C30.8857 128.607 32.2805 124.224 35.1839 120.751C38.0874 117.278 42.2148 115.172 46.7123 114.773C56.0489 113.976 64.2753 120.922 65.0723 130.258C65.8693 139.595 58.9238 147.821 49.5873 148.618C49.1318 148.675 48.6479 148.675 48.164 148.675ZM48.1925 115.599C47.7371 115.599 47.2816 115.627 46.8262 115.656C42.5279 116.026 38.6567 118.018 35.8671 121.32C33.0775 124.622 31.7681 128.778 32.1382 133.076C32.5082 137.375 34.5008 141.246 37.8027 144.035C41.1047 146.825 45.2606 148.134 49.5588 147.764C58.4115 147.024 65.0154 139.196 64.2468 130.344C63.5352 121.946 56.4758 115.599 48.1925 115.599Z" fill="#0B0F19"/>
<path d="M48.8754 139.735C53.316 139.365 56.5895 135.465 56.2194 131.024C55.8494 126.584 51.9496 123.31 47.5091 123.68C43.0685 124.05 39.795 127.95 40.1651 132.391C40.5351 136.831 44.4349 140.105 48.8754 139.735Z" fill="url(#paint0_linear_4_958)"/>
<path d="M48.1627 140.192C46.1701 140.192 44.263 139.509 42.6974 138.199C40.961 136.748 39.9078 134.698 39.7085 132.421C39.5093 130.172 40.2209 127.952 41.6726 126.244C43.1244 124.508 45.1738 123.454 47.4511 123.255C49.6998 123.056 51.9201 123.767 53.628 125.219C55.3359 126.671 56.4176 128.72 56.6168 130.998C56.8161 133.246 56.1044 135.467 54.6527 137.175C53.201 138.911 51.1515 139.964 48.8743 140.163C48.6466 140.192 48.4189 140.192 48.1627 140.192ZM48.1911 124.081C47.9634 124.081 47.7642 124.081 47.5364 124.109C45.5154 124.28 43.6652 125.248 42.3558 126.785C41.0464 128.322 40.4202 130.314 40.591 132.364C40.7618 134.385 41.7296 136.235 43.2667 137.545C44.8323 138.854 46.7964 139.48 48.8458 139.309C50.8669 139.139 52.7171 138.171 54.0265 136.634C55.3359 135.097 55.9621 133.104 55.7913 131.055C55.6205 129.034 54.6527 127.183 53.1156 125.874C51.7208 124.707 49.9844 124.081 48.1911 124.081Z" fill="#0B0F19"/>
<path d="M48.3615 132.365C48.333 132.365 48.3046 132.365 48.2761 132.365L8.02644 124.993C7.79872 124.964 7.62793 124.737 7.68486 124.509C7.71333 124.281 7.94105 124.11 8.16877 124.167L48.4469 131.511C48.6746 131.54 48.8454 131.767 48.7885 131.995C48.76 132.223 48.5608 132.365 48.3615 132.365Z" fill="#0B0F19"/>
<path d="M13.7766 133.901C13.7481 133.901 13.7197 133.901 13.6912 133.901L1.82125 131.795C1.67892 131.766 1.56506 131.681 1.50813 131.539C1.4512 131.396 1.47967 131.254 1.56506 131.112L6.77418 124.365L3.64302 116.737C3.58609 116.594 3.61455 116.424 3.69995 116.31C3.78534 116.196 3.95613 116.139 4.09846 116.167L15.9684 118.274C16.0823 118.302 16.1961 118.388 16.2531 118.473L20.6367 126.301C20.7221 126.472 20.6936 126.671 20.5798 126.813L14.0897 133.787C14.0043 133.873 13.8905 133.901 13.7766 133.901ZM2.6752 131.083L13.6343 133.019L19.7543 126.472L15.6268 119.099L4.72469 117.164L7.6566 124.28C7.71353 124.422 7.68506 124.593 7.59967 124.707L2.6752 131.083Z" fill="#0B0F19"/>
<path d="M286.462 62.8521C284.099 62.8521 281.737 62.3682 279.488 61.4289C275.076 59.5787 271.66 56.1059 269.867 51.6654C268.074 47.2248 268.102 42.3573 269.952 37.9452C271.803 33.5331 275.275 30.1173 279.716 28.324C284.156 26.5307 289.024 26.5591 293.436 28.4094C297.848 30.2596 301.264 33.7323 303.057 38.1729C304.851 42.6135 304.822 47.481 302.972 51.8931C301.122 56.3052 297.649 59.721 293.208 61.5143C291.017 62.3967 288.739 62.8521 286.462 62.8521ZM286.462 27.8401C284.299 27.8401 282.107 28.267 280.029 29.0925C275.816 30.8004 272.514 34.0739 270.721 38.2583C268.928 42.4427 268.928 47.1109 270.635 51.3238C272.343 55.5366 275.617 58.8386 279.801 60.6319C284.014 62.3967 288.625 62.4252 292.867 60.7173C297.08 59.0094 300.382 55.7359 302.175 51.5515C303.94 47.3387 303.997 42.6988 302.26 38.486C300.552 34.2732 297.279 30.9712 293.094 29.1779C290.96 28.2955 288.711 27.8401 286.462 27.8401Z" fill="#0B0F19"/>
<path d="M273.88 57.0742C273.88 57.0742 274.848 57.9851 275.389 58.4121C275.93 58.8391 277.154 59.7215 277.154 59.7215L272.884 64.9875L269.582 62.3118L273.88 57.0742Z" fill="#0B0F19"/>
<path d="M272.884 65.4442C272.799 65.4442 272.685 65.4157 272.628 65.3588L269.326 62.683C269.155 62.5407 269.127 62.2561 269.269 62.0853L273.539 56.8192C273.624 56.7338 273.709 56.6769 273.852 56.6484C273.966 56.6484 274.079 56.6769 274.165 56.7623C274.165 56.7623 275.133 57.6732 275.645 58.1002C276.186 58.5271 277.381 59.4096 277.41 59.4096C277.495 59.4665 277.581 59.5803 277.581 59.6942C277.581 59.8081 277.552 59.9219 277.495 60.0073L273.226 65.2734C273.169 65.3588 273.055 65.4157 272.941 65.4157C272.912 65.4442 272.912 65.4442 272.884 65.4442ZM270.208 62.2845L272.827 64.4194L276.556 59.8365C276.157 59.5519 275.503 59.068 275.133 58.7549C274.791 58.4702 274.279 58.0148 273.937 57.7017L270.208 62.2845Z" fill="#0B0F19"/>
<path d="M273.82 66.43L268.042 61.7617L248.088 86.384L253.866 91.0523L273.82 66.43Z" fill="#0B0F19"/>
<path d="M254.183 91.0887C254.097 91.0887 253.983 91.0603 253.926 91.0034L248.148 86.3351C247.977 86.1928 247.949 85.9081 248.091 85.7373L268.045 61.115C268.102 61.0296 268.216 60.9727 268.33 60.9727C268.444 60.9727 268.558 61.0011 268.643 61.058L274.421 65.7263C274.592 65.8687 274.621 66.1533 274.478 66.3241L254.524 90.9464C254.467 91.0318 254.353 91.0887 254.24 91.0887C254.211 91.0887 254.183 91.0887 254.183 91.0887ZM249.002 85.9081L254.097 90.0355L273.51 66.0679L268.415 61.9405L249.002 85.9081Z" fill="#0B0F19"/>
<path d="M48.3046 27.4659C51.4927 27.4659 54.0546 24.8755 54.0546 21.7159C54.0546 18.5563 51.4927 15.9375 48.3046 15.9375C45.1166 15.9375 42.5547 18.5278 42.5547 21.6875C42.5547 24.8471 45.145 27.4659 48.3046 27.4659Z" fill="url(#paint1_linear_4_958)"/>
<path d="M48.305 27.8952C44.8892 27.8952 42.0996 25.1056 42.0996 21.6898C42.0996 18.274 44.8892 15.4844 48.305 15.4844C51.7208 15.4844 54.5104 18.274 54.5104 21.6898C54.5104 25.1056 51.7208 27.8952 48.305 27.8952ZM48.305 16.3668C45.3731 16.3668 42.9536 18.7579 42.9536 21.7182C42.9536 24.6786 45.3731 27.0412 48.305 27.0412C51.2369 27.0412 53.6564 24.6501 53.6564 21.6898C53.6564 18.7294 51.2654 16.3668 48.305 16.3668Z" fill="#0B0F19"/>
<path d="M68.9424 5.54892C70.3088 5.54892 71.4474 4.43878 71.4474 3.04399C71.4474 1.67767 70.3372 0.539062 68.9424 0.539062C67.5761 0.539062 66.4375 1.6492 66.4375 3.04399C66.466 4.43878 67.5761 5.54892 68.9424 5.54892Z" fill="white"/>
<path d="M68.9425 5.97485C67.32 5.97485 66.0391 4.66546 66.0391 3.07141C66.0391 1.47736 67.3485 0.167969 68.9425 0.167969C70.5366 0.167969 71.8459 1.47736 71.8459 3.07141C71.8459 4.66546 70.565 5.97485 68.9425 5.97485ZM68.9425 0.993457C67.8039 0.993457 66.893 1.93281 66.893 3.04295C66.893 4.15308 67.8324 5.09243 68.9425 5.09243C70.0526 5.09243 70.992 4.15308 70.992 3.04295C70.992 1.93281 70.0811 0.993457 68.9425 0.993457Z" fill="#0B0F19"/>
<path d="M93.0825 42.126C102.049 42.126 109.308 34.8674 109.308 25.9009C109.308 16.9344 102.049 9.67578 93.0825 9.67578C84.116 9.67578 76.8574 16.9344 76.8574 25.9009C76.8574 34.8674 84.116 42.126 93.0825 42.126Z" fill="#D4D7E5"/>
<path d="M93.0818 42.5542C83.8875 42.5542 76.4297 35.0963 76.4297 25.9021C76.4297 16.7079 83.8875 9.25 93.0818 9.25C102.276 9.25 109.734 16.7079 109.734 25.9021C109.734 35.0963 102.276 42.5542 93.0818 42.5542ZM93.0818 10.104C84.3715 10.104 77.2836 17.1918 77.2836 25.9021C77.2836 34.6124 84.3715 41.7002 93.0818 41.7002C101.792 41.7002 108.88 34.6124 108.88 25.9021C108.88 17.1918 101.792 10.104 93.0818 10.104Z" fill="#0B0F19"/>
<path d="M77.6531 39.8479C74.1234 39.8479 71.647 38.9654 70.8499 37.1437C69.8252 34.7526 71.9032 31.2514 76.5714 27.5225C76.7422 27.3801 77.0269 27.4086 77.1692 27.5794C77.3115 27.7502 77.2831 28.0348 77.1123 28.1772C72.8425 31.6214 70.793 34.838 71.647 36.8021C73.2695 40.5026 84.4563 39.364 96.07 34.2972C101.848 31.7638 106.972 28.6611 110.473 25.5299C113.804 22.5411 115.284 19.8369 114.515 18.1005C113.747 16.3072 110.587 15.5671 105.919 16.0795C105.691 16.1079 105.464 15.9372 105.464 15.7094C105.435 15.4817 105.606 15.254 105.834 15.254C110.986 14.7132 114.373 15.624 115.312 17.7874C116.223 19.8938 114.715 22.8826 111.043 26.1846C107.485 29.3727 102.304 32.5608 96.4116 35.1226C89.2384 38.2253 82.4637 39.8479 77.6531 39.8479Z" fill="#0B0F19"/>
<path d="M253.146 263.574C252.576 263.574 252.406 263.403 252.263 263.289C252.121 263.147 251.922 262.834 252.149 262.293C255.622 254.55 256.789 249.911 255.679 248.544C254.996 247.719 253.288 248.117 251.637 248.487C250.157 248.829 248.762 249.142 247.766 248.715C244.606 247.349 244.122 236.874 244.094 235.678C244.094 235.45 244.265 235.251 244.492 235.223C244.492 235.223 244.492 235.223 244.521 235.223C244.748 235.223 244.948 235.393 244.948 235.621C245.062 238.695 245.83 246.95 248.107 247.918C248.847 248.231 250.157 247.918 251.438 247.633C253.345 247.178 255.281 246.723 256.334 247.975C257.273 249.114 257.757 251.818 252.946 262.606C252.946 262.635 252.918 262.635 252.918 262.663C254.085 263.062 262.511 260.073 275.035 254.266C275.263 254.18 275.491 254.266 275.605 254.465C275.69 254.693 275.605 254.921 275.405 255.034C275.348 255.063 270.054 257.511 264.646 259.76C257.159 262.891 254.313 263.574 253.146 263.574Z" fill="#565973"/>
<path d="M247.683 204.936C252.237 204.936 255.938 201.235 255.938 196.681C255.938 192.126 252.237 188.426 247.683 188.426C243.128 188.426 239.428 192.126 239.428 196.681C239.428 201.235 243.128 204.936 247.683 204.936Z" fill="white"/>
<path d="M247.682 205.364C242.9 205.364 239 201.464 239 196.682C239 191.9 242.9 188 247.682 188C252.464 188 256.364 191.9 256.364 196.682C256.364 201.464 252.464 205.364 247.682 205.364ZM247.682 188.854C243.355 188.854 239.854 192.355 239.854 196.682C239.854 201.009 243.355 204.51 247.682 204.51C252.009 204.51 255.51 201.009 255.51 196.682C255.51 192.355 252.009 188.854 247.682 188.854Z" fill="#565973"/>
<path d="M173.564 79.7582C175.426 79.7291 180.17 81.7662 182.498 79.9328C184.826 78.0702 183.255 75.451 183.459 73.0355C183.808 68.612 180.286 61.0745 174.175 61.0745C166.958 61.0745 166.317 66.633 164.105 66.633C161.253 66.633 154.531 76.4114 159.42 80.0492C162.476 82.3483 163.553 77.5173 165.793 79.4962C168.151 81.6498 171.585 79.7873 173.564 79.7582Z" fill="#0B0F19"/>
<path d="M179.764 81.158C178.454 81.158 177.028 80.8379 175.777 80.576C174.874 80.3723 174.089 80.1976 173.565 80.1976C173.07 80.1976 172.401 80.3432 171.702 80.5178C169.781 80.9543 167.366 81.5072 165.474 79.8484C164.718 79.1791 164.223 79.4701 163.292 80.1394C162.331 80.8379 160.993 81.7983 159.13 80.4014C157.238 78.9753 156.744 76.5307 157.733 73.5041C158.955 69.8081 162.098 66.1994 164.077 66.1994C164.659 66.1994 165.212 65.5592 165.882 64.7443C167.25 63.1146 169.316 60.6409 174.147 60.6409C176.417 60.6409 178.541 61.6303 180.316 63.522C182.645 66.0248 184.1 69.9536 183.867 73.0385C183.809 73.7369 183.925 74.5227 184.012 75.2502C184.274 76.9964 184.536 78.8298 182.732 80.2558C181.917 80.9252 180.869 81.158 179.764 81.158ZM173.594 79.3246C174.205 79.3246 175.02 79.4992 175.98 79.7029C178.105 80.1685 180.753 80.7506 182.208 79.5865C183.605 78.4806 183.401 77.0546 183.169 75.3958C183.052 74.61 182.936 73.7951 182.994 72.9803C183.169 70.5648 182.092 66.7233 179.676 64.104C178.105 62.387 176.184 61.4848 174.147 61.4848C169.723 61.4848 167.89 63.6675 166.551 65.2681C165.765 66.2285 165.067 67.0434 164.077 67.0434C162.651 67.0434 159.712 70.3028 158.548 73.7369C157.937 75.5995 157.617 78.1605 159.625 79.6738C160.993 80.6924 161.807 80.0812 162.739 79.4119C163.612 78.7716 164.689 77.9859 165.998 79.15C167.541 80.5178 169.636 80.0521 171.44 79.6447C172.197 79.4701 172.895 79.3246 173.507 79.2955C173.565 79.3246 173.565 79.3246 173.594 79.3246Z" fill="#0B0F19"/>
<path d="M157.441 130.602L189.978 131.911L188.115 100.161L194.547 103.915L202.113 91.4591C202.113 91.4591 186.456 81.6516 173.972 81.6516C173.972 81.6516 171.731 82.7866 169.984 81.6516C161.952 83.0776 156.568 86.7736 144.113 99.3458C151.854 107.698 155.404 111.336 155.404 111.336L158.838 108.018L157.441 130.602Z" fill="white"/>
<path d="M189.979 132.347C189.949 132.347 189.979 132.347 189.979 132.347L157.442 131.038C157.326 131.038 157.209 130.98 157.122 130.892C157.035 130.805 157.006 130.689 157.006 130.572L158.344 109.095L155.725 111.627C155.551 111.801 155.289 111.801 155.114 111.627C155.085 111.598 151.476 107.872 143.822 99.6074C143.677 99.4327 143.677 99.1708 143.822 98.9962C156.424 86.3076 161.778 82.6407 169.927 81.1856C170.043 81.1565 170.16 81.1856 170.247 81.2438C171.761 82.2333 173.769 81.2438 173.798 81.2147C173.856 81.1856 173.914 81.1565 174.001 81.1565C186.486 81.1565 202.202 90.9349 202.376 91.0222C202.58 91.1386 202.638 91.4005 202.522 91.6333L194.955 104.089C194.839 104.293 194.577 104.351 194.373 104.235L188.64 100.888L190.444 131.824C190.444 131.94 190.415 132.056 190.328 132.144C190.211 132.289 190.095 132.347 189.979 132.347ZM157.908 130.194L189.513 131.474L187.679 100.189C187.679 100.015 187.738 99.8693 187.883 99.782C188.029 99.6947 188.203 99.6947 188.32 99.782L194.373 103.303L201.503 91.6042C199.088 90.1491 185.235 82.146 174.06 82.0878C173.594 82.2915 171.586 83.1063 169.898 82.1169C162.128 83.5429 156.86 87.1225 144.724 99.3454C150.952 106.068 154.416 109.677 155.434 110.724L158.548 107.698C158.664 107.581 158.868 107.552 159.043 107.611C159.217 107.698 159.305 107.843 159.305 108.047L157.908 130.194Z" fill="#0B0F19"/>
<path d="M144.143 99.3451L137.798 106.271L106.717 86.0745C106.717 86.0745 103.865 80.6032 102.352 80.8943C100.838 81.1853 102.352 85.9581 102.352 85.9581C102.352 85.9581 91.1182 81.098 90.2452 83.2225C89.4885 85.0559 97.9864 87.1513 97.9864 87.1513C97.9864 87.1513 87.4513 83.7463 86.9275 86.2491C86.4328 88.5773 97.6663 90.4398 97.6663 90.4398C97.6663 90.4398 85.4724 88.1989 85.1522 90.6435C84.803 93.321 95.7164 92.4188 95.7164 92.4188C95.7164 92.4188 87.3931 94.3686 87.6551 96.5804C87.8588 98.3557 95.8037 95.7946 99.6452 97.9773C103.487 100.16 138.817 127.021 138.817 127.021L155.463 111.364L144.143 99.3451Z" fill="white"/>
<path d="M138.787 127.431C138.7 127.431 138.612 127.402 138.525 127.344C138.176 127.082 103.137 100.482 99.3825 98.358C97.4326 97.2521 94.2605 97.4558 91.7286 97.6014C89.1675 97.7469 87.3341 97.8633 87.1886 96.641C87.0431 95.4769 88.4109 94.371 91.3793 93.2651C91.6121 93.1778 91.845 93.0905 92.0778 93.0032C89.4004 93.0323 86.0827 92.7995 85.035 91.6936C84.744 91.3735 84.5985 90.9951 84.6567 90.5877C84.6858 90.3549 84.8022 90.0348 85.1805 89.7437C86.0245 89.1326 88.0035 89.0162 90.1279 89.1035C88.5273 88.5505 87.1595 87.8812 86.6647 87.1536C86.4028 86.7462 86.4028 86.397 86.4319 86.1641C86.5192 85.7858 86.7521 85.4948 87.1013 85.2911C87.887 84.8545 89.3422 84.8545 90.9137 85.0583C90.3898 84.7381 89.9824 84.3889 89.8078 84.0106C89.6623 83.6904 89.6332 83.3703 89.7496 83.0793C89.8369 82.8756 90.0115 82.6137 90.4189 82.439C92.4561 81.5951 99.1205 84.1852 101.594 85.2038C101.274 83.9815 100.867 81.9152 101.42 80.9839C101.594 80.6929 101.856 80.5183 102.176 80.4601C103.835 80.1691 106.192 84.3307 106.949 85.7567L137.739 105.692L143.822 99.0274C143.909 98.9401 144.025 98.8819 144.142 98.8819C144.258 98.8819 144.375 98.9401 144.462 99.0274L155.754 111.018C155.928 111.192 155.899 111.483 155.725 111.629L139.078 127.286C138.991 127.402 138.903 127.431 138.787 127.431ZM94.7261 96.5828C96.5886 96.5828 98.4512 96.7865 99.819 97.5723C103.486 99.6676 135.12 123.648 138.758 126.413L154.822 111.309L144.142 99.9587L138.118 106.536C137.972 106.681 137.739 106.71 137.565 106.594L106.454 86.397C106.396 86.3679 106.338 86.3097 106.309 86.2223C104.999 83.7195 103.137 81.1294 102.409 81.2749C102.351 81.2749 102.293 81.304 102.234 81.3914C101.827 82.0607 102.293 84.3598 102.729 85.7858C102.787 85.9604 102.729 86.135 102.613 86.2514C102.496 86.3679 102.293 86.397 102.147 86.3388C98.4512 84.7381 92.3688 82.5846 90.8264 83.2248C90.6518 83.283 90.6227 83.3703 90.6227 83.3994C90.5936 83.4576 90.5936 83.5158 90.6518 83.6031C91.0301 84.3307 93.0382 85.2038 95.1335 85.8731C96.6177 86.2514 97.8109 86.6298 98.102 86.7462C98.3348 86.8044 98.4512 87.0663 98.393 87.27C98.3348 87.5028 98.102 87.6193 97.8691 87.5611C97.5781 87.5028 96.3558 87.1827 94.9298 86.7171C92.1651 86.0186 88.7019 85.3493 87.5669 86.0186C87.3632 86.135 87.3341 86.2514 87.305 86.3388C87.305 86.397 87.2759 86.4843 87.3923 86.6589C88.3527 88.0558 94.0276 89.3363 96.9379 89.8892C97.3162 89.9474 97.5781 90.0057 97.6945 90.0348C97.9273 90.0639 98.0729 90.2967 98.0438 90.5295C98.0147 90.7623 97.7818 90.9369 97.549 90.8787C97.4326 90.8496 97.1416 90.8205 96.7924 90.7332C93.6202 90.2094 87.1595 89.3945 85.7335 90.4422C85.588 90.5586 85.5589 90.6459 85.5589 90.7041C85.5298 90.8496 85.588 90.966 85.7044 91.1115C86.8103 92.2756 92.3979 92.2756 95.6574 91.9846C95.8902 91.9555 96.0939 92.1301 96.123 92.3629C96.1521 92.5958 96.0066 92.7995 95.8029 92.8577C92.6016 93.6143 87.9453 95.3023 88.0908 96.5537C88.149 96.9611 90.3607 96.8156 91.6994 96.7574C92.6307 96.6701 93.6784 96.5828 94.7261 96.5828Z" fill="#0B0F19"/>
<path d="M157.441 130.606L122.198 176.878L89.6329 201.47L110.325 225.625L144.986 200.888L161.283 178.043L162.01 191.284L145.073 240.554L177.406 244.425L197.399 194.776L189.978 131.915L157.441 130.606Z" fill="#0B0F19"/>
<path d="M177.435 244.859C177.406 244.859 177.406 244.859 177.376 244.859L145.044 240.988C144.927 240.959 144.782 240.901 144.724 240.785C144.665 240.668 144.636 240.523 144.695 240.406L161.603 191.224L160.963 179.321L145.393 201.147C145.364 201.177 145.335 201.235 145.277 201.264L110.616 226.001C110.441 226.146 110.179 226.088 110.034 225.943L89.3419 201.788C89.2546 201.7 89.2255 201.584 89.2255 201.468C89.2255 201.351 89.3128 201.235 89.4001 201.177L121.907 176.643L157.121 130.429C157.209 130.312 157.325 130.254 157.5 130.254L190.036 131.564C190.24 131.564 190.414 131.738 190.443 131.942L197.865 194.803C197.865 194.861 197.865 194.949 197.835 195.007L177.871 244.655C177.784 244.772 177.609 244.859 177.435 244.859ZM145.684 240.174L177.173 243.957L196.962 194.716L189.599 132.35L157.674 131.069L122.548 177.138C122.519 177.167 122.489 177.196 122.46 177.225L90.2732 201.526L110.383 225.011L144.665 200.565L160.934 177.778C161.05 177.633 161.225 177.575 161.399 177.604C161.574 177.662 161.69 177.807 161.719 178.011L162.447 191.253C162.447 191.311 162.447 191.369 162.418 191.427L145.684 240.174Z" fill="#0B0F19"/>
<path d="M161.312 178.477C161.225 178.477 161.137 178.448 161.05 178.39C160.846 178.244 160.817 177.953 160.963 177.779L173.913 161.19C174.059 160.987 174.35 160.958 174.525 161.103C174.728 161.249 174.757 161.54 174.612 161.714L161.661 178.303C161.574 178.419 161.429 178.477 161.312 178.477Z" fill="#0B0F19"/>
<path d="M98.1879 235.811C98.0423 235.811 97.9259 235.753 97.8386 235.636L78.3692 207.436C78.2236 207.232 78.2819 206.97 78.4856 206.825L88.4095 199.957C88.5841 199.84 88.846 199.869 88.9915 200.044L114.369 229.67C114.456 229.787 114.485 229.932 114.456 230.078C114.427 230.223 114.311 230.34 114.165 230.369L98.3334 235.84C98.2752 235.811 98.2461 235.811 98.1879 235.811ZM79.3295 207.262L98.3625 234.851L113.263 229.699L88.555 200.859L79.3295 207.262Z" fill="#0B0F19"/>
<path d="M79.971 208.977L65.8564 219.803L88.1197 255.016L93.9401 236.682L97.5488 234.441L79.971 208.977Z" fill="white"/>
<path d="M88.1188 255.456C87.9733 255.456 87.8278 255.369 87.7405 255.252L65.4772 220.038C65.3608 219.835 65.3899 219.602 65.5936 219.456L79.7082 208.63C79.7956 208.572 79.912 208.514 80.0284 208.543C80.1448 208.572 80.2612 208.63 80.3194 208.718L97.8972 234.182C97.9554 234.269 97.9845 234.415 97.9554 234.531C97.9263 234.648 97.8681 234.764 97.7517 234.822L94.2594 236.976L88.5263 255.165C88.468 255.339 88.3225 255.456 88.177 255.456C88.1479 255.456 88.1479 255.456 88.1188 255.456ZM66.4376 219.922L87.9733 254.001L93.5028 236.568C93.5319 236.481 93.5901 236.394 93.6774 236.336L96.9077 234.357L79.8538 209.649L66.4376 219.922Z" fill="#0B0F19"/>
<path d="M174.264 260.46C174.206 260.46 174.177 260.46 174.118 260.431L140.738 248.644C140.534 248.557 140.389 248.324 140.476 248.121L142.746 240.176C142.804 239.972 143.008 239.826 143.212 239.856L180.23 244.308C180.375 244.337 180.492 244.395 180.55 244.512C180.608 244.628 180.637 244.774 180.579 244.89L174.7 260.169C174.613 260.373 174.438 260.46 174.264 260.46ZM141.407 247.975L174.002 259.47L179.531 245.123L143.444 240.787L141.407 247.975Z" fill="#0B0F19"/>
<path d="M142.306 248.766L171.554 259.097L168.586 267.391L182.7 282.67L135.409 267.246L142.306 248.766Z" fill="white"/>
<path d="M182.701 283.107C182.643 283.107 182.614 283.107 182.556 283.078L135.264 267.654C135.148 267.625 135.06 267.538 135.002 267.421C134.944 267.305 134.944 267.188 134.973 267.072L141.87 248.592C141.958 248.359 142.191 248.243 142.423 248.33L171.7 258.661C171.817 258.69 171.904 258.778 171.962 258.894C172.02 259.011 172.02 259.127 171.991 259.214L169.11 267.276L183.05 282.351C183.196 282.496 183.196 282.729 183.108 282.874C182.992 283.02 182.847 283.107 182.701 283.107ZM135.963 266.985L181.217 281.739L168.266 267.683C168.15 267.567 168.121 267.392 168.179 267.247L171.002 259.36L142.569 249.319L135.963 266.985Z" fill="#0B0F19"/>
<path d="M170.014 77.2315C170.596 78.1628 170.014 81.6551 170.014 81.6551C170.014 81.6551 171.061 82.2371 171.847 82.1498C172.633 82.0625 173.39 81.6551 173.39 81.6551V77.1151C173.39 77.1151 179.035 74.4086 176.969 71.8185C175.339 69.7522 171.09 72.9826 170.101 73.3027C169.111 73.6228 167.511 72.5169 166.958 73.6228C166.347 74.9324 169.373 76.242 170.014 77.2315Z" fill="white"/>
<path d="M171.702 82.615C170.858 82.615 169.927 82.1202 169.81 82.062C169.636 81.9747 169.549 81.8001 169.578 81.5964C169.81 80.2286 169.985 78.0168 169.636 77.4638C169.461 77.1728 168.937 76.7945 168.443 76.4162C167.366 75.6013 166.027 74.5827 166.58 73.4186C167.046 72.4583 168.064 72.662 168.821 72.8075C169.228 72.8948 169.665 72.9821 169.956 72.8948C170.131 72.8366 170.509 72.6329 170.916 72.4001C172.604 71.4397 175.776 69.6353 177.319 71.5561C177.814 72.1672 177.959 72.8366 177.814 73.5641C177.377 75.4267 174.671 76.9691 173.827 77.4056V81.6546C173.827 81.8001 173.739 81.9456 173.594 82.0329C173.565 82.062 172.721 82.4985 171.877 82.5858C171.819 82.615 171.76 82.615 171.702 82.615ZM170.48 81.4218C170.829 81.5964 171.382 81.771 171.789 81.7419C172.226 81.7128 172.692 81.5091 172.953 81.3927V77.1437C172.953 76.9691 173.041 76.8236 173.215 76.7363C174.147 76.2998 176.62 74.8155 176.97 73.3604C177.086 72.9239 176.97 72.5165 176.649 72.109C175.602 70.7703 172.837 72.3418 171.382 73.1567C170.887 73.4477 170.538 73.6515 170.276 73.7388C169.781 73.9134 169.228 73.797 168.675 73.6805C167.831 73.5059 167.54 73.5059 167.395 73.8261C167.133 74.3499 168.181 75.1066 168.996 75.7468C169.578 76.1833 170.131 76.6199 170.392 77.0273C170.945 77.9004 170.625 80.4032 170.48 81.4218Z" fill="#0B0F19"/>
<path d="M202.113 91.4563L218.061 102.108C218.061 102.108 241.954 88.0805 243.147 86.5672C244.34 85.0538 245.999 80.834 247.338 80.8922C248.677 80.9504 247.338 86.4507 247.338 86.4507C247.338 86.4507 258.571 82.7256 259.881 85.1411C257.524 85.8396 251.703 87.7021 251.703 87.7021C251.703 87.7021 261.627 84.6464 262.878 86.4507C264.13 88.2551 251.849 90.6997 251.849 90.6997C251.849 90.6997 263.373 87.2656 264.45 89.7684C265.556 92.2712 253.857 92.8824 253.857 92.8824C253.857 92.8824 263.693 92.3876 263.519 93.8136C263.344 95.2396 246.377 95.1814 219.05 118.638C214.045 115.64 194.488 103.883 194.488 103.883L202.113 91.4563Z" fill="white"/>
<path d="M219.11 119.078C219.022 119.078 218.964 119.049 218.877 119.02C213.9 116.052 194.518 104.381 194.314 104.265C194.227 104.207 194.14 104.12 194.111 104.003C194.082 103.887 194.111 103.77 194.169 103.683L201.736 91.2563C201.794 91.169 201.91 91.0817 202.027 91.0526C202.143 91.0235 202.259 91.0526 202.376 91.1108L218.091 101.617C227.666 96 241.984 87.3857 242.828 86.3089C243.206 85.8142 243.643 85.0284 244.109 84.1845C245.185 82.2346 246.204 80.4012 247.397 80.4594C247.659 80.4594 247.921 80.6049 248.066 80.8377C248.736 81.7108 248.27 84.4173 247.95 85.8142C250.889 84.8829 259.009 82.6129 260.289 84.9411C260.348 85.0575 260.348 85.203 260.319 85.3194C260.289 85.3776 260.26 85.4359 260.202 85.4941C262.327 85.3485 262.996 85.8142 263.287 86.2216C263.462 86.4835 263.52 86.7746 263.374 87.0947C263.2 87.5603 262.501 88.026 261.512 88.4625C263.2 88.4334 264.509 88.7535 264.888 89.6266C265.062 90.0049 265.033 90.4124 264.8 90.7616C264.306 91.5473 262.705 92.1294 260.901 92.5077C262.268 92.6241 263.403 92.8569 263.782 93.2644C263.956 93.439 264.015 93.6427 263.985 93.8755C263.927 94.4867 263.2 94.6904 261.046 95.2724C255.4 96.8149 240.442 100.889 219.372 118.991C219.313 119.049 219.226 119.078 219.11 119.078ZM195.158 103.741C197.836 105.371 214.133 115.149 219.051 118.118C240.151 100.074 255.167 95.9709 260.813 94.4285C261.745 94.1666 262.647 93.9337 262.996 93.7591C262.094 93.2644 257.758 93.148 253.916 93.3226C253.683 93.3517 253.479 93.148 253.45 92.9151C253.45 92.6823 253.625 92.4786 253.858 92.4495C257.379 92.2749 263.287 91.5182 264.044 90.2668C264.102 90.1504 264.131 90.0631 264.073 89.9467C263.811 89.3356 261.774 89.0154 257.961 89.6848C255.458 90.4123 252.81 90.9653 251.937 91.1399C251.704 91.1981 251.471 91.0526 251.413 90.8198C251.355 90.587 251.501 90.3541 251.704 90.2959C252.577 90.034 255.051 89.3356 257.583 88.8699C260.464 88.026 262.443 87.2111 262.501 86.7164C261.832 85.756 256.419 86.6873 251.792 88.1133C251.559 88.1715 251.326 88.0551 251.239 87.8222C251.151 87.5894 251.297 87.3566 251.53 87.2693C251.588 87.2402 256.332 85.756 258.951 84.9411C257.117 84.2427 251.413 85.5232 247.426 86.8619C247.281 86.9201 247.106 86.8619 246.99 86.7746C246.873 86.6581 246.815 86.5126 246.873 86.338C247.455 83.9516 247.659 81.5652 247.281 81.3033C246.64 81.3033 245.505 83.3696 244.807 84.5919C244.312 85.465 243.876 86.2798 243.439 86.8328C242.217 88.3752 220.681 101.064 218.207 102.49C218.062 102.577 217.887 102.577 217.742 102.49L202.172 92.0712L195.158 103.741Z" fill="#0B0F19"/>
<defs>
<linearGradient id="paint0_linear_4_958" x1="40.1366" y1="131.746" x2="56.2479" y2="131.746" gradientUnits="userSpaceOnUse">
<stop stop-color="#6366F1"/>
<stop offset="0.5" stop-color="#8B5CF6"/>
<stop offset="1" stop-color="#D946EF"/>
</linearGradient>
<linearGradient id="paint1_linear_4_958" x1="42.5547" y1="21.7293" x2="54.0546" y2="21.7293" gradientUnits="userSpaceOnUse">
<stop stop-color="#6366F1"/>
<stop offset="0.5" stop-color="#8B5CF6"/>
<stop offset="1" stop-color="#D946EF"/>
</linearGradient>
</defs>
</svg>
