<svg width="306" height="300" viewBox="0 0 306 300" fill="none" xmlns="http://www.w3.org/2000/svg">
<path d="M82.8711 246.715C82.8711 246.715 90.2234 245.673 90.4318 247.37C90.6402 249.067 85.431 251.746 85.431 251.746C85.431 251.746 85.0143 249.573 84.2701 248.501C83.526 247.429 82.8711 246.715 82.8711 246.715Z" fill="white"/>
<path d="M58.7092 263.802C65.2579 262.403 83.1773 258.146 79.2184 246.031C74.8724 232.726 59.0962 233.113 51.2676 235.226C43.4688 237.34 29.7761 246.805 33.9435 257.372C38.4382 268.743 52.488 265.112 58.7092 263.802Z" fill="white"/>
<path d="M47.517 265.827C41.9209 265.827 36.1462 264.131 33.5268 257.493C32.2766 254.337 32.4849 251.063 34.1221 247.759C37.3071 241.449 45.2548 236.358 51.1486 234.751C59.0367 232.638 75.1702 232.221 79.6351 245.854C80.5877 248.801 80.3793 251.51 78.9803 253.921C75.0511 260.767 62.817 263.357 58.7986 264.22C58.5009 264.279 58.2032 264.339 57.9056 264.399C55.2563 264.994 51.4165 265.827 47.517 265.827ZM59.8999 234.543C56.6851 234.543 53.6787 235.019 51.3867 235.644C46.505 236.954 38.1703 241.716 34.9258 248.176C33.3779 251.242 33.1993 254.248 34.3602 257.165C38.5275 267.703 51.0295 264.994 57.727 263.535C58.0544 263.476 58.3521 263.416 58.62 263.357C69.1275 261.124 75.7357 257.82 78.2063 253.504C79.4565 251.331 79.6649 248.86 78.7719 246.152C75.825 237.073 67.3416 234.543 59.8999 234.543Z" fill="#0B0F19"/>
<path d="M70.5261 262.224C75.5566 262.224 79.6049 258.146 79.6049 253.145C79.6049 248.144 75.5268 244.066 70.5261 244.066C65.5253 244.066 61.4473 248.144 61.4473 253.145C61.4473 258.146 65.4955 262.224 70.5261 262.224Z" fill="white"/>
<path d="M70.5253 262.672C65.2566 262.672 61 258.385 61 253.146C61 247.907 65.2864 243.621 70.5253 243.621C75.7642 243.621 80.0506 247.907 80.0506 253.146C80.0506 258.385 75.794 262.672 70.5253 262.672ZM70.5253 244.484C65.7626 244.484 61.893 248.354 61.893 253.117C61.893 257.879 65.7626 261.749 70.5253 261.749C75.2879 261.749 79.1576 257.879 79.1576 253.117C79.1576 248.354 75.2879 244.484 70.5253 244.484Z" fill="#0B0F19"/>
<path d="M62.6983 248.505C62.6983 248.505 61.4779 241.927 62.6983 241.48C63.9188 241.034 67.2824 244.635 67.2824 244.635C67.2824 244.635 65.7047 245.201 64.7225 246.124C63.7402 247.076 62.6983 248.505 62.6983 248.505Z" fill="white"/>
<path d="M62.6982 248.951C62.6684 248.951 62.6387 248.951 62.6089 248.951C62.4303 248.921 62.3112 248.773 62.2815 248.594C62.2815 248.534 61.9838 246.897 61.8052 245.201C61.5075 241.896 62.0136 241.242 62.5494 241.063C63.9484 240.557 66.7762 243.444 67.6097 244.337C67.699 244.456 67.7585 244.605 67.7287 244.754C67.699 244.903 67.5799 245.022 67.4311 245.081C67.4013 245.081 65.913 245.617 65.02 246.48C64.0972 247.373 63.0554 248.773 63.0554 248.802C62.9661 248.892 62.847 248.951 62.6982 248.951ZM62.847 241.896C62.847 241.896 62.4005 242.254 62.6982 245.26C62.7875 246.064 62.8768 246.838 62.9661 247.433C63.3531 246.957 63.8889 246.332 64.3949 245.826C65.0498 245.201 65.913 244.754 66.4786 244.486C65.0795 243.028 63.3531 241.688 62.847 241.896Z" fill="#0B0F19"/>
<path d="M79.5162 252.192C79.4567 252.192 79.3971 252.163 79.3078 252.133C79.1888 252.073 79.0995 251.954 79.0697 251.805C79.0697 251.776 78.653 249.692 77.9683 248.71C77.2539 247.668 76.6288 246.983 76.6288 246.953C76.5098 246.834 76.48 246.656 76.5395 246.507C76.5991 246.358 76.7479 246.239 76.8967 246.209C77.5218 246.12 83.0286 245.376 84.517 246.507C84.8444 246.745 84.9337 247.043 84.9635 247.251C85.2016 249.156 80.6176 251.627 79.7246 252.073C79.665 252.192 79.5757 252.192 79.5162 252.192ZM77.8195 247.043C78.0576 247.34 78.3851 247.757 78.7125 248.233C79.2483 249.037 79.6353 250.317 79.8139 251.061C81.7487 249.99 84.1598 248.263 84.0705 247.4C84.0705 247.37 84.0705 247.34 83.9514 247.251C83.1775 246.686 80.0817 246.805 77.8195 247.043Z" fill="#0B0F19"/>
<path d="M37.9913 243.325C37.9913 243.325 29.6865 251.064 31.7999 260.351C34.0621 270.234 52.3983 276.842 60.2865 266.959C66.597 259.041 55.9703 254.636 52.7853 259.637C48.2905 266.662 28.9721 267.197 37.9913 243.325Z" fill="#565973"/>
<path d="M49.3326 272.288C47.9038 272.288 46.4155 272.109 44.8974 271.782C38.1106 270.234 32.5443 265.59 31.3536 260.47C30.4606 256.571 31.2643 252.314 33.7051 248.177C35.5209 245.051 37.6046 243.117 37.6641 243.057C37.8129 242.908 38.0511 242.908 38.2297 243.027C38.4083 243.146 38.4678 243.355 38.4083 243.563C34.747 253.237 35.4316 260.203 40.2836 262.643C44.1234 264.578 50.1363 263.001 52.3985 259.488C53.4404 257.881 55.2859 257.018 57.3993 257.166C59.602 257.345 61.5369 258.625 62.3108 260.411C63.174 262.405 62.5787 264.846 60.6439 267.287C58.0244 270.532 53.9762 272.288 49.3326 272.288ZM36.8306 245.26C34.5981 247.969 30.7285 253.773 32.2466 260.232C33.3479 265.025 38.6464 269.4 45.1057 270.889C51.1781 272.258 56.7147 270.68 59.9295 266.662C62.1322 263.894 61.9834 261.87 61.4773 260.679C60.8225 259.191 59.1853 258.119 57.31 257.97C55.5538 257.821 53.9762 258.536 53.1427 259.875C50.6125 263.804 44.183 265.501 39.8966 263.358C37.4855 262.137 35.9376 259.905 35.4018 256.839C34.8363 253.743 35.3125 249.844 36.8306 245.26Z" fill="#0B0F19"/>
<path d="M55.7335 254.129C55.5549 254.129 55.3763 254.01 55.3168 253.831C55.2275 253.593 55.3465 253.355 55.5847 253.266C59.0673 251.986 64.5742 252.849 64.8123 252.879C65.0504 252.908 65.229 253.146 65.1695 253.385C65.1397 253.623 64.9016 253.801 64.6635 253.742C64.6039 253.742 59.1566 252.879 55.8823 254.069C55.8228 254.129 55.793 254.129 55.7335 254.129Z" fill="#0B0F19"/>
<path d="M81.4509 260.8C81.3319 260.8 81.183 260.74 81.0937 260.651C80.4389 259.847 76.9264 257.823 75.6167 257.108C75.4083 256.989 75.319 256.722 75.4381 256.513C75.5572 256.305 75.8251 256.216 76.0334 256.335C76.5395 256.602 80.8854 259.014 81.7784 260.085C81.9272 260.264 81.8974 260.561 81.7188 260.71C81.6593 260.77 81.57 260.8 81.4509 260.8Z" fill="#0B0F19"/>
<path d="M56.4465 256.9C56.2679 256.9 56.119 256.811 56.0297 256.632C55.9107 256.424 56.0297 256.156 56.2381 256.037C59.6612 254.4 64.5132 254.489 64.7216 254.489C64.9597 254.489 65.168 254.698 65.168 254.936C65.168 255.174 64.9597 255.352 64.7216 255.382C64.662 255.382 59.8398 255.293 56.6251 256.841C56.5655 256.87 56.506 256.9 56.4465 256.9Z" fill="#0B0F19"/>
<path d="M80.2895 265.409C80.1109 265.409 79.9323 265.29 79.8727 265.082C79.0988 262.462 74.6636 258.89 74.604 258.831C74.4254 258.682 74.3957 258.384 74.5445 258.206C74.6933 258.027 74.991 257.997 75.1696 258.146C75.3482 258.295 79.8727 261.956 80.736 264.814C80.7955 265.052 80.6764 265.29 80.4383 265.379C80.3788 265.409 80.3192 265.409 80.2895 265.409Z" fill="#0B0F19"/>
<path d="M81.7688 159.444C81.5306 159.444 81.3223 159.235 81.3223 158.997C81.3223 158.759 81.5306 158.551 81.7688 158.551L234.56 157.062C234.799 157.062 235.007 157.271 235.007 157.509C235.007 157.747 234.799 157.956 234.56 157.956L81.7688 159.444Z" fill="#565973"/>
<path d="M190.09 241.421L224.827 241.004L222.029 251.482L190.12 251.571V241.421H190.09Z" fill="white"/>
<path d="M190.089 252.019C189.97 252.019 189.851 251.959 189.762 251.9C189.672 251.81 189.643 251.691 189.643 251.572V241.422C189.643 241.184 189.851 240.975 190.089 240.975L224.827 240.559C224.975 240.559 225.095 240.618 225.184 240.737C225.273 240.856 225.303 241.005 225.273 241.124L222.475 251.602C222.416 251.81 222.237 251.929 222.058 251.929L190.089 252.019ZM190.536 241.868V251.126L221.671 251.036L224.231 241.452L190.536 241.868Z" fill="#0B0F19"/>
<path d="M107.575 112.859C107.575 112.859 96.9486 127.742 99.3597 139.768C101.771 151.794 115.582 159.741 136.925 158.997C135.109 177.036 138.384 241.927 138.384 241.927L190.118 241.421L220.152 241.004V153.729L178.241 121.402C178.241 121.402 158.238 113.395 107.575 112.859Z" fill="#0B0F19"/>
<path d="M138.354 242.374C138.116 242.374 137.908 242.195 137.908 241.957C137.878 241.302 134.723 177.989 136.419 159.474C126.269 159.772 117.428 158.075 110.82 154.592C104.272 151.11 100.134 146.02 98.9136 139.888C97.6336 133.577 99.9852 126.493 102.158 121.671C104.51 116.461 107.189 112.681 107.218 112.651C107.308 112.532 107.457 112.473 107.576 112.473C157.018 112.979 177.527 120.688 178.39 121.016C178.42 121.045 178.48 121.045 178.509 121.075L220.421 153.402C220.54 153.491 220.599 153.61 220.599 153.759V241.034C220.599 241.272 220.391 241.481 220.153 241.481L190.118 241.898L138.354 242.374ZM136.896 158.551C137.015 158.551 137.134 158.611 137.223 158.7C137.312 158.789 137.342 158.908 137.342 159.057C135.645 176.084 138.503 235.825 138.771 241.481L190.059 240.975L219.676 240.558V153.937L178.003 121.79C176.634 121.284 156.244 113.842 107.814 113.306C106.593 115.062 97.6038 128.695 99.8066 139.65C100.967 145.543 104.926 150.395 111.267 153.759C117.815 157.271 126.686 158.908 136.896 158.551Z" fill="#0B0F19"/>
<path d="M190.089 241.864C189.85 241.864 189.642 241.686 189.642 241.418L187.529 153.19L160.917 128.99C160.739 128.811 160.709 128.543 160.888 128.365C161.066 128.186 161.334 128.156 161.513 128.335L188.243 152.684C188.332 152.773 188.392 152.892 188.392 153.011L190.505 241.448C190.535 241.656 190.356 241.864 190.089 241.864Z" fill="#0B0F19"/>
<path d="M134.218 241.958L197.114 241.422L194.703 251.542L137.432 251.751L134.218 241.958Z" fill="white"/>
<path d="M137.403 252.196C137.225 252.196 137.046 252.077 136.986 251.898L133.772 242.105C133.742 241.956 133.742 241.808 133.831 241.718C133.921 241.629 134.04 241.54 134.188 241.54L197.085 241.004C197.234 241.004 197.353 241.063 197.442 241.182C197.532 241.302 197.561 241.421 197.532 241.569L195.121 251.69C195.061 251.898 194.882 252.047 194.674 252.047L137.403 252.196ZM134.814 242.403L137.731 251.303L194.347 251.095L196.549 241.867L134.814 242.403Z" fill="#0B0F19"/>
<path d="M217.118 251.57V258.506L235.424 271.484L190.09 271.871V251.57H217.118Z" fill="white"/>
<path d="M190.089 272.319C189.97 272.319 189.851 272.259 189.762 272.2C189.672 272.11 189.643 271.991 189.643 271.872V251.571C189.643 251.333 189.851 251.125 190.089 251.125H217.117C217.355 251.125 217.564 251.333 217.564 251.571V258.299L235.662 271.128C235.81 271.247 235.9 271.456 235.84 271.634C235.781 271.813 235.602 271.932 235.424 271.962L190.089 272.319ZM190.536 252.018V271.426L234.024 271.039L216.849 258.864C216.73 258.775 216.671 258.656 216.671 258.507V251.988H190.536V252.018Z" fill="#0B0F19"/>
<path d="M138.713 251.747L190.09 251.539V259.159L208.277 271.631L139.159 272.495L138.713 251.747Z" fill="white"/>
<path d="M139.159 272.942C138.92 272.942 138.712 272.734 138.712 272.496L138.266 251.778C138.266 251.659 138.295 251.54 138.385 251.451C138.474 251.362 138.593 251.302 138.712 251.302L190.089 251.094C190.208 251.094 190.327 251.153 190.417 251.213C190.506 251.302 190.536 251.421 190.536 251.54V258.922L208.515 271.246C208.663 271.365 208.753 271.543 208.693 271.752C208.634 271.93 208.455 272.079 208.276 272.079L139.159 272.942C139.188 272.942 139.159 272.942 139.159 272.942ZM139.159 252.195L139.605 272.02L206.848 271.216L189.821 259.547C189.702 259.458 189.613 259.339 189.613 259.19V252.017L139.159 252.195Z" fill="#0B0F19"/>
<path d="M148.057 102.378L149.367 87.495L148.325 71.8676L149.367 87.495L160.798 78.952C160.798 78.952 145.914 58.2047 139.306 57.1629C135.555 59.8717 132.549 55.496 132.549 55.496C132.549 55.496 112.338 56.1508 106.92 75.38C118.648 79.1306 127.132 81.4226 127.132 81.4226L129.543 72.195L124.274 97.5859L148.057 102.378Z" fill="white"/>
<path d="M148.058 102.824C148.028 102.824 147.998 102.824 147.968 102.824L124.215 98.0015C124.095 97.9717 124.006 97.9122 123.917 97.8229C123.828 97.7336 123.828 97.6145 123.857 97.4954L127.102 81.868C127.072 81.868 127.072 81.868 127.042 81.868C126.953 81.8382 118.38 79.5462 106.801 75.8254C106.563 75.7659 106.444 75.498 106.503 75.2896C109.331 65.1987 116.267 60.2277 121.595 57.8464C127.34 55.2865 132.341 55.0781 132.549 55.0781C132.698 55.0781 132.847 55.1377 132.936 55.2567C132.936 55.2865 134.305 57.2213 136.24 57.5487C137.193 57.6976 138.145 57.4594 139.068 56.8046C139.157 56.745 139.276 56.7153 139.395 56.7153C146.123 57.7869 160.559 77.8198 161.185 78.683C161.333 78.8914 161.274 79.1593 161.095 79.3081L149.844 87.732L148.534 102.437C148.534 102.556 148.445 102.675 148.355 102.764C148.236 102.794 148.147 102.824 148.058 102.824ZM124.81 97.1978L147.641 101.841L148.921 87.4939L147.879 71.8962V71.8665C147.879 71.6283 148.058 71.4497 148.296 71.42C148.534 71.3902 148.742 71.5986 148.772 71.8367L149.754 86.6307L160.173 78.8318C158.208 76.1231 145.379 58.8585 139.425 57.6083C138.354 58.3227 137.223 58.5906 136.091 58.412C134.186 58.0845 132.787 56.5069 132.341 55.9414C131.299 56.0009 126.834 56.4176 121.923 58.6203C114.6 61.9244 109.748 67.4312 107.486 75.0515C117.368 78.2067 124.988 80.3202 126.834 80.8262L129.126 72.0153C129.186 71.7772 129.424 71.6283 129.662 71.6879C129.9 71.7474 130.049 71.9855 129.989 72.2236L124.81 97.1978Z" fill="#0B0F19"/>
<path d="M106.922 75.3522C106.922 75.3522 99.7483 107.917 101.147 110.328C102.546 112.739 141.63 120.657 151.84 121.014C162.05 121.371 159.043 106.22 155.918 104.464C152.822 102.708 124.276 97.558 124.276 97.558L127.133 81.3948L106.922 75.3522Z" fill="white"/>
<path d="M152.197 121.461C152.078 121.461 151.929 121.461 151.81 121.461C146.303 121.253 133.414 119.021 123.085 116.877C116.715 115.568 101.772 112.293 100.76 110.567C100.492 110.12 99.8078 108.93 103.052 91.8734C104.66 83.5388 106.446 75.353 106.476 75.2935C106.505 75.1744 106.565 75.0553 106.684 74.9958C106.803 74.9363 106.922 74.9065 107.041 74.966L127.282 81.0087C127.491 81.0682 127.64 81.2765 127.58 81.5147L124.812 97.2314C128.562 97.9161 153.209 102.441 156.156 104.107C158.388 105.358 160.174 111.936 158.924 116.431C158.24 118.723 156.543 121.461 152.197 121.461ZM107.249 75.9186C104.481 88.4801 100.582 108.453 101.534 110.091C102.04 110.864 109.095 113.037 123.353 116.014C133.623 118.128 146.422 120.36 151.84 120.568C155.084 120.687 157.168 119.199 158.031 116.163C158.597 114.198 158.567 111.668 157.942 109.198C157.406 107.054 156.513 105.328 155.68 104.852C153.268 103.482 134.01 99.7616 124.187 98.0053C123.948 97.9756 123.77 97.7374 123.829 97.4993L126.627 81.7528L107.249 75.9186Z" fill="#0B0F19"/>
<path d="M149.814 87.2589L158.863 80.3828L165.888 92.2894L158.893 104.613L148.088 102.261L149.814 87.2589Z" fill="white"/>
<path d="M158.892 105.057C158.862 105.057 158.833 105.057 158.803 105.057L147.998 102.706C147.76 102.646 147.611 102.438 147.64 102.23L149.397 87.2273C149.397 87.1083 149.486 86.9892 149.575 86.9297L158.624 80.0536C158.714 79.9643 158.862 79.9345 158.982 79.9643C159.101 79.9941 159.22 80.0536 159.279 80.1727L166.304 92.0793C166.393 92.2281 166.393 92.3769 166.304 92.5258L159.279 104.849C159.19 104.968 159.041 105.057 158.892 105.057ZM148.563 101.932L158.654 104.105L165.381 92.2876L158.743 81.0359L150.23 87.4952L148.563 101.932Z" fill="#0B0F19"/>
<path d="M150.202 57.2244C156.781 55.0217 154.161 42.5495 150.649 37.5487C144.428 28.6783 129.098 30.1964 125.109 42.1923C124.246 44.8117 118.888 45.9726 120.972 50.1399C122.43 53.0571 128.264 51.539 128.264 51.539C128.264 51.539 146.273 58.5341 150.202 57.2244Z" fill="#0B0F19"/>
<path d="M148.922 57.8188C143.445 57.8188 129.842 52.6394 128.234 52.0143C127.282 52.2524 122.043 53.324 120.584 50.3474C119.096 47.341 121.09 45.674 122.698 44.3048C123.591 43.5606 124.424 42.8462 124.692 42.0425C126.567 36.3571 131.181 32.4279 137.015 31.5647C142.612 30.7312 147.97 32.9339 151.006 37.2501C153.744 41.1197 155.679 48.7697 154.131 53.5026C153.447 55.5863 152.167 56.9853 150.321 57.5806C149.964 57.7592 149.488 57.8188 148.922 57.8188ZM128.264 51.1213C128.324 51.1213 128.383 51.1213 128.413 51.1511C132.908 52.8775 144.398 56.9555 148.863 56.9555C149.339 56.9555 149.755 56.896 150.053 56.8067C151.601 56.2709 152.702 55.11 153.298 53.2943C154.727 48.9186 152.881 41.5067 150.291 37.8157C147.434 33.7674 142.403 31.7135 137.164 32.4874C131.657 33.2911 127.341 36.9822 125.555 42.3402C125.198 43.4118 124.246 44.2155 123.293 45.0192C121.656 46.4182 120.227 47.6089 121.388 49.9604C122.043 51.2701 123.799 51.538 125.168 51.5083C126.746 51.5083 128.145 51.1213 128.145 51.1213C128.205 51.1213 128.234 51.1213 128.264 51.1213Z" fill="#0B0F19"/>
<path d="M132.551 55.4986L134.128 51.0038C134.128 51.0038 132.491 48.7416 132.551 47.4616C132.61 46.1817 130.08 47.0747 130.735 44.4552C131.42 41.8358 134.724 44.7529 136.361 45.4375C137.998 46.1221 141.064 44.5147 142.671 44.3957C143.773 44.3064 144.874 45.378 145.172 46.0626C145.797 47.4914 144.934 49.5155 143.267 50.4681C141.6 51.4503 139.129 51.5992 139.129 51.5992L138.891 57.4334C138.891 57.4334 138.534 58.6539 135.319 57.7609C132.104 56.8381 132.551 55.4986 132.551 55.4986Z" fill="white"/>
<path d="M137.344 58.5058C136.808 58.5058 136.094 58.4165 135.201 58.1784C133.653 57.7617 132.67 57.1366 132.254 56.3924C131.956 55.8566 132.075 55.4399 132.105 55.3506L133.593 51.0642C133.177 50.4391 131.986 48.6531 132.075 47.4327C132.075 47.2839 132.045 47.2243 131.539 47.016C130.885 46.7481 129.783 46.3016 130.289 44.337C130.468 43.6821 130.795 43.2356 131.271 43.057C132.343 42.6105 133.831 43.5035 135.141 44.2774C135.647 44.5751 136.153 44.8728 136.51 45.0216C137.433 45.3788 138.981 44.9025 140.35 44.4858C141.184 44.2179 141.987 43.9798 142.613 43.95C143.922 43.8607 145.172 45.0216 145.559 45.8848C146.274 47.4922 145.321 49.7842 143.476 50.8558C142.136 51.6298 140.35 51.9274 139.547 52.0167L139.308 57.4342C139.308 57.464 139.308 57.4938 139.279 57.5236C139.308 57.6426 139.011 58.5058 137.344 58.5058ZM132.968 55.6185C132.968 55.7078 132.879 56.6008 135.439 57.3152C137.522 57.8807 138.296 57.5236 138.445 57.2854L138.683 51.5702C138.683 51.3321 138.862 51.1535 139.1 51.1535C139.13 51.1535 141.481 51.0047 143.029 50.0819C144.488 49.2187 145.292 47.4327 144.756 46.242C144.488 45.6467 143.535 44.7835 142.702 44.843C142.166 44.8728 141.422 45.1109 140.648 45.349C139.13 45.8253 137.403 46.3611 136.183 45.8551C135.766 45.6765 135.23 45.3788 134.695 45.0514C133.683 44.456 132.284 43.6226 131.599 43.8905C131.51 43.9202 131.271 44.0095 131.123 44.5751C130.825 45.7658 131.242 45.9444 131.867 46.2123C132.313 46.3909 132.998 46.6885 132.938 47.4922C132.879 48.2959 133.831 49.9033 134.427 50.7368C134.516 50.8558 134.546 51.0047 134.486 51.1535L132.968 55.6185Z" fill="#0B0F19"/>
<path d="M305.523 122.147H6.28048C6.04235 122.147 5.83398 121.939 5.83398 121.7C5.83398 121.462 6.04235 121.254 6.28048 121.254H305.523C305.762 121.254 305.97 121.462 305.97 121.7C305.97 121.939 305.791 122.147 305.523 122.147Z" fill="#0B0F19"/>
<path d="M81.3221 121.562L39.4297 282.496L40.2938 282.721L82.1862 121.787L81.3221 121.562Z" fill="#565973"/>
<path d="M44.7821 121.542L43.9336 121.82L98.9089 289.517L99.7575 289.239L44.7821 121.542Z" fill="#565973"/>
<path d="M231.798 121.55L230.951 121.832L286.823 289.518L287.67 289.236L231.798 121.55Z" fill="#565973"/>
<path d="M269.256 121.546L227.369 280.246L228.233 280.474L270.119 121.774L269.256 121.546Z" fill="#565973"/>
<path d="M23.1273 102.2C22.9487 102.2 22.7701 102.081 22.7106 101.932C22.651 101.783 17.0847 87.9717 9.4347 84.489C9.19657 84.3997 9.10727 84.1318 9.22634 83.8937C9.31564 83.6556 9.58354 83.5663 9.82167 83.6853C13.1853 85.2332 16.5191 88.7159 19.7339 94.0441C22.1152 98.003 23.544 101.545 23.5738 101.605C23.6631 101.843 23.544 102.081 23.3357 102.17C23.2464 102.2 23.1868 102.2 23.1273 102.2Z" fill="#0B0F19"/>
<path d="M9.61636 84.0715C9.61636 84.0715 3.57376 74.4867 1.19243 77.255C-2.11165 81.0651 9.61636 84.0715 9.61636 84.0715Z" fill="#565973"/>
<path d="M9.61584 84.519C9.58607 84.519 9.55631 84.519 9.49677 84.519C8.66331 84.2809 1.19191 82.2865 0.239381 79.2801C0.00124861 78.4764 0.179848 77.7025 0.834712 76.9881C1.25144 76.5118 1.78724 76.2737 2.41234 76.3332C3.6923 76.4225 5.35922 77.7322 7.38335 80.2326C8.84191 82.0484 9.94327 83.7749 10.0028 83.8642C10.0921 84.013 10.0921 84.2214 9.97304 84.3702C9.88374 84.4595 9.76467 84.519 9.61584 84.519ZM2.23374 77.1964C1.93607 77.1964 1.69794 77.3155 1.48958 77.5536C1.07284 78.0597 0.924011 78.5359 1.07284 79.0122C1.63841 80.8577 5.95456 82.5247 8.54424 83.3284C6.99639 81.0661 4.07926 77.3453 2.29327 77.2262C2.29327 77.1964 2.26351 77.1964 2.23374 77.1964Z" fill="#0B0F19"/>
<path d="M17.4117 91.3327C15.2686 86.6891 9.01758 95.5298 9.01758 95.5298C9.01758 95.5298 18.6024 93.8629 17.4117 91.3327Z" fill="#565973"/>
<path d="M9.45394 95.9783C9.30511 95.9783 9.15627 95.889 9.06697 95.77C8.97768 95.6211 8.97768 95.4128 9.06697 95.2639C9.51347 94.6388 13.3831 89.2809 16.2705 89.5488C17.1337 89.6381 17.7886 90.1739 18.2351 91.1562C18.4434 91.5729 18.4137 92.0492 18.2053 92.4659C17.0742 94.6091 10.2874 95.8593 9.51347 95.9783C9.51347 95.9783 9.48371 95.9783 9.45394 95.9783ZM16.0621 90.412C14.3952 90.412 11.8948 93.091 10.4958 94.8472C13.2343 94.2816 16.8063 93.1803 17.4016 92.0194C17.4909 91.8408 17.4909 91.692 17.4314 91.5134C17.1039 90.8287 16.717 90.4715 16.1812 90.4418C16.1514 90.412 16.1216 90.412 16.0621 90.412Z" fill="#0B0F19"/>
<path d="M27.4746 66.5117C28.6057 80.7104 31.761 101.993 31.761 101.993L27.4746 66.5117Z" fill="#0B0F19"/>
<path d="M31.7299 102.471C31.5215 102.471 31.3131 102.322 31.2834 102.084C31.2536 101.876 28.1281 80.6227 26.997 66.5729C26.9672 66.3347 27.1756 66.1264 27.4137 66.0966C27.6518 66.0668 27.8602 66.2752 27.89 66.5133C28.9913 80.5334 32.1466 101.757 32.1764 101.965C32.2061 102.203 32.0573 102.442 31.7894 102.471C31.7894 102.471 31.7596 102.471 31.7299 102.471Z" fill="#0B0F19"/>
<path d="M26.7604 53.0562C28.5464 52.8776 33.8746 68.7134 27.2962 67.9692C21.462 67.2846 26.7604 53.0562 26.7604 53.0562Z" fill="#565973"/>
<path d="M27.7419 68.416C27.593 68.416 27.4144 68.416 27.2656 68.3862C26.2238 68.2671 25.4201 67.7611 24.914 66.8979C22.5922 63.1175 26.2238 53.2946 26.3726 52.8778C26.4321 52.729 26.581 52.6099 26.7596 52.5802C27.2358 52.5206 27.7121 52.9076 28.2479 53.8006C29.8255 56.3605 32.1771 64.0105 30.2423 67.0765C29.6469 67.9695 28.8135 68.416 27.7419 68.416ZM27.0275 53.6815C26.7298 54.5447 26.1047 56.4498 25.6284 58.6228C24.795 62.3734 24.795 65.0821 25.6582 66.4514C26.0452 67.0765 26.6107 67.4337 27.3549 67.523C28.7837 67.7016 29.6172 66.9872 29.9446 65.3798C30.6888 61.5399 28.1586 54.8424 27.0275 53.6815Z" fill="#0B0F19"/>
<path d="M28.2492 75.1133C28.1003 75.1133 27.9515 75.024 27.8622 74.9049C27.8324 74.8454 24.826 69.8743 20.0038 69.4874C15.2709 69.1302 14.3482 69.4278 14.3184 69.4576C14.11 69.5767 13.8421 69.4874 13.7231 69.2492C13.604 69.0409 13.7231 68.7432 13.9314 68.6539C14.0803 68.5646 15.0923 68.2074 20.0634 68.5944C25.332 69.0111 28.4873 74.2203 28.6064 74.4286C28.7254 74.637 28.6659 74.9049 28.4575 75.0537C28.398 75.1133 28.3087 75.1133 28.2492 75.1133Z" fill="#0B0F19"/>
<path d="M13.9307 68.5082C13.0079 62.4953 4.07794 69.6988 4.07794 69.6988C4.07794 69.6988 14.5558 72.6159 13.9307 68.5082Z" fill="#565973"/>
<path d="M10.5072 71.1564C9.76301 71.1564 8.89978 71.0968 7.94725 70.948C5.83383 70.6503 4.01807 70.1443 3.92877 70.1443C3.77993 70.1145 3.6311 69.9657 3.60134 69.8169C3.57157 69.6383 3.6311 69.4894 3.75017 69.3704C3.9883 69.1918 9.58441 64.7268 12.5908 65.8877C13.5434 66.2747 14.1387 67.1379 14.3471 68.4476C14.4661 69.2215 14.2578 69.8764 13.722 70.3229C13.1266 70.8587 12.0253 71.1564 10.5072 71.1564ZM5.0599 69.5192C7.47099 70.0848 11.8467 70.8289 13.1564 69.668C13.4541 69.4001 13.5434 69.0727 13.4838 68.5964C13.335 67.5844 12.948 66.989 12.2932 66.7212C10.4774 66.0068 6.93519 68.1499 5.0599 69.5192Z" fill="#0B0F19"/>
<path d="M29.0215 82.0199C28.962 82.0199 28.8727 81.9902 28.8132 81.9604C28.6048 81.8413 28.5155 81.5734 28.6048 81.3651C28.6941 81.1567 31.2242 76.2155 37.4752 72.7625C42.1783 70.1729 44.8275 69.3692 44.9168 69.3394C45.155 69.2799 45.3931 69.3989 45.4824 69.6371C45.5419 69.8752 45.4229 70.1133 45.1847 70.2026C45.155 70.2026 42.5058 71.0063 37.9217 73.5365C31.9089 76.8703 29.4383 81.7223 29.4085 81.752C29.349 81.9306 29.1704 82.0199 29.0215 82.0199Z" fill="#0B0F19"/>
<path d="M45.3629 69.7881C43.3983 62.6143 59.9783 67.1091 59.9783 67.1091C59.9783 67.1091 46.762 74.9079 45.3629 69.7881Z" fill="#565973"/>
<path d="M48.1618 71.9583C47.5367 71.9583 46.9711 71.869 46.4949 71.6904C45.6912 71.363 45.1554 70.7676 44.9172 69.9044C44.56 68.5351 44.7684 67.4338 45.5423 66.6599C46.8521 65.3501 49.7097 64.9632 54.0556 65.499C57.2108 65.8859 60.0387 66.6599 60.0684 66.6599C60.247 66.7194 60.3661 66.8384 60.3959 67.017C60.4256 67.1956 60.3363 67.3742 60.1875 67.4635C59.8601 67.6719 52.5673 71.9583 48.1618 71.9583ZM50.6324 66.1538C48.6976 66.1538 47.0307 66.4515 46.1972 67.2849C45.6316 67.8505 45.5126 68.6244 45.7805 69.6663C45.9293 70.2318 46.2865 70.6188 46.8223 70.8569C48.2213 71.4225 50.8706 70.8867 54.5021 69.3388C56.2285 68.5947 57.8062 67.791 58.7587 67.2552C56.675 66.7492 53.4007 66.1538 50.6324 66.1538Z" fill="#0B0F19"/>
<path d="M40.9884 102.469C40.7503 102.469 40.5419 102.291 40.5419 102.023C40.5419 101.636 40.274 92.5869 43.727 89.8782C43.9353 89.7293 44.2032 89.7591 44.3521 89.9675C44.5009 90.1758 44.4711 90.4437 44.2628 90.5926C41.167 93.0334 41.4349 101.934 41.4349 102.023C41.4349 102.261 41.2563 102.469 40.9884 102.469Z" fill="#0B0F19"/>
<path d="M55.5128 81.8125C55.5128 81.8125 39.5877 85.0273 43.7253 90.2364C46.4936 93.7489 55.5128 81.8125 55.5128 81.8125Z" fill="#565973"/>
<path d="M45.0661 91.3385C44.3815 91.3385 43.7862 91.0706 43.3694 90.505C42.5955 89.5525 42.4169 88.5702 42.7741 87.5879C44.2029 83.6587 54.9784 81.456 55.4249 81.3667C55.6035 81.3369 55.7821 81.3965 55.9012 81.5751C55.9905 81.7239 55.9905 81.9322 55.8714 82.0811C55.6035 82.468 48.8763 91.2789 45.0661 91.3385C45.0959 91.3385 45.0959 91.3385 45.0661 91.3385ZM54.4128 82.5276C50.9004 83.361 44.5601 85.3852 43.6076 87.9153C43.3694 88.5702 43.5183 89.2548 44.0838 89.9692C44.3517 90.2966 44.6792 90.4455 45.0959 90.4455C47.5665 90.4157 52.091 85.3852 54.4128 82.5276Z" fill="#0B0F19"/>
<path d="M37.028 86.009C40.7489 84.2527 41.5228 95.0877 41.5228 95.0877C41.5228 95.0877 33.3965 87.7354 37.028 86.009Z" fill="#565973"/>
<path d="M41.5533 95.5646C41.4342 95.5646 41.3449 95.5349 41.2556 95.4456C41.1961 95.386 39.7673 94.0763 38.3683 92.4391C36.4037 90.1471 35.5107 88.3611 35.719 87.1109C35.8083 86.4561 36.2251 85.9203 36.8799 85.6226C37.5646 85.2952 38.2492 85.3249 38.8445 85.6821C39.9459 86.337 40.8091 88.123 41.4342 91.0401C41.8807 93.1238 41.9998 95.0288 42.0296 95.1181C42.0296 95.2967 41.9403 95.4753 41.7914 95.5646C41.6724 95.5349 41.6128 95.5646 41.5533 95.5646ZM37.2371 86.4263C36.8502 86.6049 36.6418 86.8728 36.5823 87.23C36.3441 88.9267 39.172 92.1415 40.9877 93.9572C40.6901 91.4568 39.8864 87.3193 38.3683 86.4263C38.0111 86.2179 37.6539 86.2179 37.2371 86.4263Z" fill="#0B0F19"/>
<path d="M46.0207 101.754H19.082V121.668H46.0207V101.754Z" fill="#D4D7E5"/>
<path d="M46.02 122.114H19.0813C18.8431 122.114 18.6348 121.906 18.6348 121.667V101.724C18.6348 101.486 18.8431 101.277 19.0813 101.277H46.02C46.2581 101.277 46.4665 101.486 46.4665 101.724V121.667C46.4665 121.935 46.2581 122.114 46.02 122.114ZM19.5278 121.221H45.5735V102.17H19.5278V121.221Z" fill="#0B0F19"/>
<path d="M148.059 121.699L175.652 65.7383H249.949L225.511 121.699H148.059Z" fill="url(#paint0_linear_4_693)"/>
<path d="M225.54 122.147H148.058C147.909 122.147 147.76 122.058 147.671 121.939C147.582 121.82 147.582 121.641 147.641 121.492L175.235 65.5311C175.324 65.3823 175.473 65.293 175.622 65.293H249.949C250.097 65.293 250.246 65.3823 250.336 65.5013C250.425 65.6204 250.425 65.799 250.365 65.9181L225.927 121.879C225.868 122.058 225.719 122.147 225.54 122.147ZM148.772 121.254H225.242L249.294 66.186H175.949L148.772 121.254Z" fill="#0B0F19"/>
<path d="M205.865 91.0374C205.865 91.0374 203.007 90.2635 200.983 91.6923C200.09 92.3174 197.321 94.4605 198.78 96.2763C200.239 98.0921 202.947 96.5144 203.989 94.9368C205.031 93.3294 205.865 91.0374 205.865 91.0374Z" fill="white"/>
<path d="M200.447 97.4989C199.643 97.4989 198.959 97.1715 198.423 96.5166C198.006 96.0106 197.857 95.4152 197.947 94.7902C198.155 93.3018 199.792 91.9326 200.715 91.2777C202.888 89.7596 205.835 90.5335 205.984 90.5633C206.103 90.5931 206.192 90.6824 206.252 90.8014C206.311 90.9205 206.311 91.0396 206.281 91.1586C206.252 91.2479 205.418 93.54 204.347 95.1474C203.602 96.2785 202.055 97.4394 200.566 97.4989C200.536 97.4989 200.477 97.4989 200.447 97.4989ZM204.049 91.2777C203.186 91.2777 202.114 91.4265 201.221 92.0516C200.685 92.4088 198.989 93.7186 198.81 94.9688C198.75 95.3557 198.87 95.6832 199.108 96.0106C199.465 96.4571 199.941 96.6654 200.507 96.6357C201.697 96.5761 202.977 95.5939 203.573 94.6711C204.287 93.5697 204.912 92.1112 205.21 91.367C204.942 91.3075 204.525 91.2777 204.049 91.2777Z" fill="#0B0F19"/>
<path d="M283.437 116.459C283.407 116.459 283.407 116.459 283.377 116.459C283.139 116.43 282.96 116.192 282.99 115.953L292.754 40.4357L248.55 16.3546C248.342 16.2355 248.253 15.9676 248.372 15.7593C248.491 15.5509 248.759 15.4616 248.967 15.5807L293.468 39.8106C293.617 39.8999 293.706 40.0785 293.706 40.2571L283.883 116.073C283.853 116.311 283.645 116.459 283.437 116.459Z" fill="#565973"/>
<path d="M248.759 15.9696L227.238 25.0782L249.175 38.7112L248.759 15.9696Z" fill="#D4D7E5"/>
<path d="M249.175 39.1568C249.086 39.1568 249.027 39.1271 248.937 39.0973L226.999 25.4642C226.851 25.3749 226.791 25.2261 226.791 25.0475C226.791 24.8689 226.91 24.7498 227.059 24.6605L248.58 15.552C248.729 15.4924 248.878 15.5222 248.997 15.5817C249.116 15.671 249.205 15.7901 249.205 15.9389L249.622 38.6806C249.622 38.8294 249.533 39.008 249.384 39.0675C249.324 39.1271 249.265 39.1568 249.175 39.1568ZM228.22 25.1666L248.729 37.9067L248.342 16.6533L228.22 25.1666Z" fill="#0B0F19"/>
<path d="M237.926 38.4685C241.081 38.4685 243.611 35.9086 243.611 32.7831C243.611 29.6278 241.051 27.0977 237.926 27.0977C234.77 27.0977 232.24 29.6576 232.24 32.7831C232.24 35.9086 234.77 38.4685 237.926 38.4685Z" fill="white"/>
<path d="M237.925 38.9162C234.531 38.9162 231.793 36.1776 231.793 32.7843C231.793 29.3909 234.531 26.6523 237.925 26.6523C241.318 26.6523 244.057 29.3909 244.057 32.7843C244.057 36.1479 241.318 38.9162 237.925 38.9162ZM237.925 27.5156C235.038 27.5156 232.686 29.8671 232.686 32.7545C232.686 35.6418 235.038 37.9934 237.925 37.9934C240.812 37.9934 243.164 35.6418 243.164 32.7545C243.164 29.8671 240.812 27.5156 237.925 27.5156Z" fill="#0B0F19"/>
<path d="M297.666 115.238H268.792V121.37H297.695V115.238H297.666Z" fill="#D4D7E5"/>
<path d="M297.666 121.845H268.792C268.554 121.845 268.346 121.637 268.346 121.399V115.267C268.346 115.029 268.554 114.82 268.792 114.82H297.695C297.934 114.82 298.142 115.029 298.142 115.267V121.399C298.112 121.637 297.934 121.845 297.666 121.845ZM269.239 120.952H297.249V115.713H269.239V120.952Z" fill="#0B0F19"/>
<path d="M80.3987 21.4433C85.7566 24.539 92.6327 22.6935 95.7284 17.3355C98.8242 11.9775 96.9786 5.10145 91.6207 2.00573C86.2627 -1.08999 79.3866 0.755533 76.2909 6.11351C73.1952 11.4715 75.0407 18.3476 80.3987 21.4433Z" fill="white"/>
<path d="M85.9953 23.38C83.9712 23.38 81.9768 22.8442 80.1909 21.8023C74.6245 18.5876 72.6897 11.4436 75.9045 5.84747C77.4523 3.13872 79.9825 1.20389 82.9889 0.400195C85.9953 -0.403502 89.1506 0.0132296 91.8593 1.56109C94.5681 3.10895 96.5029 5.63911 97.3066 8.64553C98.1103 11.6519 97.6936 14.8072 96.1457 17.516C94.5979 20.2247 92.0677 22.1595 89.0613 22.9632C88.0195 23.2609 87.0074 23.38 85.9953 23.38ZM86.0251 0.935992C85.1023 0.935992 84.1498 1.05506 83.227 1.29319C80.4588 2.03735 78.1072 3.82335 76.6784 6.32374C73.7018 11.4733 75.4877 18.0815 80.6374 21.0582C83.1377 22.487 86.0251 22.8739 88.8231 22.1298C91.5914 21.3856 93.943 19.5996 95.3718 17.0992C96.8006 14.5988 97.1875 11.7115 96.4434 8.91343C95.6992 6.14514 93.9132 3.79358 91.4128 2.36479C89.7459 1.41226 87.9004 0.935992 86.0251 0.935992Z" fill="#565973"/>
<path d="M86.7399 17.0996C86.6208 17.0996 86.5315 17.0699 86.4422 16.9806L81.8879 12.724C81.7093 12.5454 81.7093 12.2775 81.8582 12.0989C82.0368 11.9203 82.3047 11.9203 82.4833 12.0691L87.0673 16.3257C87.2459 16.5043 87.2459 16.7722 87.0971 16.9508C86.978 17.0699 86.8589 17.0996 86.7399 17.0996Z" fill="#565973"/>
<path d="M90.7587 15.759C90.5504 15.759 90.3718 15.6102 90.3122 15.4018L89.3299 9.86523C89.3002 9.62709 89.449 9.38896 89.6871 9.35919C89.9253 9.29966 90.1634 9.47826 90.1932 9.71639L91.1755 15.253C91.2052 15.4911 91.0564 15.7292 90.8183 15.759C90.8183 15.759 90.7885 15.759 90.7587 15.759Z" fill="#565973"/>
<path d="M81.1148 10.1971C80.8767 10.1971 80.6683 10.0185 80.6683 9.78041C80.6683 9.69111 80.6088 7.39908 82.0376 6.68469C83.0199 6.20842 83.9426 6.89305 84.5082 7.60745C85.0738 6.77399 86.1454 5.37496 87.2467 5.22613C88.5267 5.04753 89.5983 7.04189 89.8067 7.45862C89.9257 7.66698 89.8364 7.93488 89.5983 8.05395C89.3899 8.17302 89.122 8.08372 89.003 7.84558C88.616 7.07165 87.8421 6.05959 87.3658 6.11912C86.5621 6.23819 85.431 7.72652 84.8952 8.64928C84.8059 8.79811 84.657 8.85765 84.5082 8.85765C84.3594 8.85765 84.2105 8.76835 84.1212 8.64928C84.1212 8.61951 83.1985 7.10142 82.3948 7.48838C81.472 7.93488 81.5315 9.72088 81.5315 9.75064C81.5613 9.95901 81.3827 10.1674 81.1148 10.1971Z" fill="#565973"/>
<path d="M95.2531 18.918C95.2531 18.918 97.0391 20.9719 96.2056 22.1328C95.3721 23.2639 86.2933 26.568 85.0134 26.0024C83.7334 25.4368 83.8823 22.7578 83.8823 22.7578C83.8823 22.7578 87.99 23.3532 90.2225 22.1328C92.5145 20.8826 95.2531 18.918 95.2531 18.918Z" fill="white"/>
<path d="M85.4301 26.4757C85.192 26.4757 84.9836 26.446 84.8348 26.3864C83.3167 25.7018 83.4358 23.0228 83.4358 22.6954C83.4358 22.5763 83.4953 22.4573 83.6144 22.368C83.7037 22.2787 83.8228 22.2489 83.9716 22.2787C84.0014 22.2787 87.9305 22.8442 90.044 21.7131C92.2467 20.4927 94.9852 18.5578 95.015 18.5578C95.1936 18.4388 95.4615 18.4685 95.6103 18.6174C95.8187 18.8555 97.6047 20.9987 96.5926 22.368C95.7591 23.4991 87.9901 26.4757 85.4301 26.4757ZM84.3585 23.261C84.3883 24.0647 84.5669 25.3148 85.2218 25.5827C86.2338 26.0292 95.0745 22.9335 95.8782 21.8619C96.2949 21.2964 95.6401 20.1652 95.1936 19.5401C94.3899 20.1057 92.2765 21.5345 90.4905 22.5168C88.5556 23.5586 85.5492 23.38 84.3585 23.261Z" fill="#565973"/>
<path d="M95.0452 23.3517C95.0452 23.3517 97.0693 24.6614 96.1763 25.7628C95.2833 26.8641 87.9012 29.4241 86.8891 27.9655C86.145 26.8344 86.5022 26.0009 87.4547 25.733C89.0026 25.3163 95.0452 23.3517 95.0452 23.3517Z" fill="white"/>
<path d="M88.2881 28.8593C88.1988 28.8593 88.1392 28.8593 88.0797 28.8593C87.3355 28.8295 86.7997 28.6212 86.5318 28.2044C85.9365 27.3412 85.996 26.6864 86.1449 26.2994C86.3235 25.8231 86.77 25.4659 87.3355 25.2873C88.8536 24.8706 94.8367 22.9358 94.8962 22.9358C95.0153 22.906 95.1641 22.906 95.2832 22.9953C95.432 23.0846 96.6524 23.9181 96.831 24.9301C96.8906 25.3469 96.8013 25.7338 96.5334 26.0613C95.6701 27.1031 90.8182 28.8593 88.2881 28.8593ZM94.9558 23.8585C93.8544 24.2157 88.9727 25.7934 87.5439 26.1803C87.3355 26.2399 87.0379 26.3589 86.9486 26.6268C86.8295 26.8947 86.9486 27.2817 87.2462 27.7282C87.276 27.7877 87.4546 27.9365 88.0797 27.9663C90.461 28.0854 95.2237 26.2101 95.819 25.4957C95.938 25.3469 95.9678 25.2278 95.938 25.079C95.8785 24.6027 95.313 24.0967 94.9558 23.8585Z" fill="#565973"/>
<path d="M95.3412 26.683L96.8593 31.3266C96.8593 31.3266 92.811 33.1423 92.2157 32.6958C91.5906 32.2493 89.8046 28.4987 89.8046 28.4987L95.3412 26.683Z" fill="white"/>
<path d="M92.4841 33.1715C92.2162 33.1715 92.0376 33.1119 91.9186 33.0524C91.2637 32.5761 89.8051 29.5995 89.3884 28.6767C89.3289 28.5577 89.3289 28.4386 89.3884 28.3195C89.4479 28.2005 89.5372 28.1112 89.6563 28.0814L95.1929 26.2656C95.3119 26.2359 95.431 26.2359 95.5203 26.2954C95.6394 26.3549 95.6989 26.4442 95.7287 26.5633L97.2468 31.2069C97.3063 31.4153 97.217 31.6534 97.0086 31.7427C94.5082 32.844 93.1985 33.1715 92.4841 33.1715ZM92.4246 32.3082C92.8413 32.3975 94.6868 31.7725 96.2942 31.0878L95.044 27.2479L90.4005 28.766C91.2042 30.3437 92.0972 32.0106 92.4246 32.3082Z" fill="#565973"/>
<defs>
<linearGradient id="paint0_linear_4_693" x1="148.059" y1="93.8527" x2="249.949" y2="93.8527" gradientUnits="userSpaceOnUse">
<stop stop-color="#6366F1"/>
<stop offset="0.5" stop-color="#8B5CF6"/>
<stop offset="1" stop-color="#D946EF"/>
</linearGradient>
</defs>
</svg>
