<svg width="306" height="300" viewBox="0 0 306 300" fill="none" xmlns="http://www.w3.org/2000/svg">
<g clip-path="url(#clip0_4_821)">
<path d="M9.9122 235.036C9.87766 235.036 9.84312 235.036 9.77405 235.036C9.49775 234.967 9.32506 234.69 9.39414 234.414L49.63 68.4624C49.6991 68.2207 49.9409 68.048 50.2172 68.0825L116.84 77.1658C117.116 77.2004 117.323 77.4767 117.288 77.753C117.254 78.0293 116.978 78.2365 116.701 78.2019L50.528 69.1877L10.4303 234.621C10.3612 234.863 10.154 235.036 9.9122 235.036Z" fill="#565973"/>
<path d="M155.14 235.037H78.3636C78.1219 235.037 77.8801 234.864 77.8456 234.588C77.811 234.484 76.0151 222.845 76.4986 209.272C76.9476 196.666 79.5033 179.708 89.1738 170.556C95.7704 164.305 104.888 162.371 116.216 164.823C149.372 172.006 176.622 193.592 180.248 196.528L204.114 167.827C204.286 167.62 204.563 167.586 204.77 167.724L229.188 181.573C229.326 181.642 229.395 181.78 229.429 181.919C229.464 182.057 229.429 182.229 229.326 182.333L189.504 232.412C189.366 232.585 189.125 232.654 188.917 232.585C188.606 232.481 160.7 221.671 153.551 218.666C154.207 223.329 155.623 234.346 155.658 234.45C155.692 234.588 155.623 234.761 155.52 234.864C155.451 234.968 155.278 235.037 155.14 235.037ZM78.8126 234.001H154.553C154.207 231.445 152.895 221.326 152.411 217.906C152.377 217.734 152.446 217.526 152.619 217.423C152.757 217.319 152.964 217.285 153.137 217.354C158.145 219.564 185.498 230.167 188.952 231.48L228.152 182.16L204.666 168.829L180.767 197.598C180.663 197.702 180.559 197.771 180.421 197.771C180.283 197.771 180.145 197.737 180.041 197.633C179.765 197.391 151.272 173.422 116.078 165.824C105.095 163.441 96.323 165.306 89.9681 171.281C80.5395 180.192 78.0528 196.873 77.6038 209.272C77.1203 221.326 78.4672 231.756 78.8126 234.001Z" fill="#0B0F19"/>
<path d="M119.948 163.373C127.132 163.373 132.969 157.536 132.969 150.353C132.969 143.169 127.132 137.332 119.948 137.332C112.765 137.332 106.928 143.169 106.928 150.353C106.928 157.536 112.765 163.373 119.948 163.373Z" fill="white"/>
<path d="M119.949 163.89C112.489 163.89 106.41 157.811 106.41 150.351C106.41 142.891 112.489 136.812 119.949 136.812C127.409 136.812 133.487 142.891 133.487 150.351C133.522 157.811 127.443 163.89 119.949 163.89ZM119.949 137.849C113.041 137.849 107.446 143.444 107.446 150.351C107.446 157.259 113.041 162.854 119.949 162.854C126.856 162.854 132.451 157.259 132.451 150.351C132.486 143.478 126.856 137.849 119.949 137.849Z" fill="#0B0F19"/>
<path d="M94.7016 148.174C94.7016 148.174 85.4802 159.26 89.3138 162.887C93.1475 166.513 95.8068 160.469 99.1915 162.887C102.611 165.304 108.206 162.334 108.655 160.365C109.104 158.397 108.447 146.965 110.416 146.62C112.385 146.274 114.491 147.379 117.565 145.307C120.639 143.235 126.234 138.158 128.652 140.368C131.069 142.579 132.831 150.142 129.964 153.976C127.098 157.81 125.129 167.825 131.933 166.927C138.737 166.064 135.11 163.854 137.424 163.508C139.738 163.163 150.272 169.207 150.168 159.985C150.099 152.456 143.365 159.536 141.603 149.313C139.842 139.09 134.005 126.692 116.771 128.108C99.5368 129.593 94.7016 148.174 94.7016 148.174Z" fill="#0B0F19"/>
<path d="M131.138 167.514C129.135 167.514 128.099 166.513 127.581 165.615C126.752 164.199 126.579 162.058 127.097 159.502C127.546 157.291 128.479 155.116 129.549 153.665C132.14 150.177 130.62 142.855 128.306 140.748C126.648 139.228 122.504 142.302 119.775 144.34C119.085 144.858 118.428 145.342 117.841 145.721C115.562 147.276 113.731 147.172 112.246 147.103C111.625 147.068 111.037 147.034 110.485 147.137C110.485 147.137 109.967 147.31 109.656 150.142C109.449 152.042 109.414 154.356 109.38 156.428C109.345 158.328 109.311 159.813 109.172 160.503C108.931 161.678 107.411 162.956 105.408 163.715C102.956 164.648 100.607 164.51 98.9149 163.335C97.6025 162.403 96.3937 162.99 95.0122 163.646C93.3544 164.475 91.2822 165.477 88.9682 163.266C84.9618 159.502 93.2853 149.072 94.2524 147.932C94.4596 147.172 95.7375 142.889 98.8804 138.4C102.023 133.91 107.653 128.418 116.771 127.658C124.68 127.002 130.965 129.144 135.421 134.048C138.771 137.743 141.05 142.855 142.156 149.279C143.019 154.39 145.091 154.839 147.06 155.288C148.856 155.703 150.686 156.083 150.755 160.02C150.79 162.265 150.168 163.888 148.994 164.786C146.749 166.478 143.019 165.408 140.291 164.613C139.116 164.268 138.046 163.957 137.562 164.026C137.113 164.095 137.113 164.13 137.044 164.544C136.906 165.753 136.388 166.893 132.036 167.445C131.725 167.514 131.414 167.514 131.138 167.514ZM127.166 139.298C127.857 139.298 128.479 139.505 129.031 139.988C131.725 142.44 133.418 150.28 130.413 154.321C128.548 156.808 126.925 162.437 128.513 165.131C129.17 166.237 130.309 166.686 131.933 166.478C135.835 165.96 135.939 165.097 136.042 164.475C136.112 163.992 136.181 163.232 137.424 163.059C138.115 162.956 139.185 163.266 140.567 163.681C143.088 164.406 146.542 165.408 148.372 164.026C149.305 163.335 149.754 161.988 149.754 160.089C149.719 156.981 148.579 156.739 146.887 156.359C144.78 155.91 142.19 155.323 141.188 149.521C137.977 130.94 126.199 127.969 116.909 128.729C100.193 130.111 95.323 148.174 95.2539 148.346C95.2194 148.415 95.1849 148.484 95.1503 148.553C92.6637 151.524 86.8614 159.882 89.728 162.576C91.5239 164.268 92.9745 163.577 94.5977 162.783C96.0828 162.058 97.7406 161.263 99.5711 162.541C101.54 163.923 104.095 163.197 105.097 162.817C106.858 162.127 108.067 161.021 108.24 160.331C108.378 159.778 108.413 158.155 108.447 156.463C108.551 150.453 108.758 146.481 110.45 146.205C111.107 146.101 111.763 146.136 112.419 146.17C113.87 146.24 115.389 146.343 117.392 144.962C117.945 144.582 118.601 144.098 119.292 143.615C121.744 141.577 124.818 139.298 127.166 139.298Z" fill="#0B0F19"/>
<path d="M275.952 235.138H0.689934C0.413636 235.138 0.171875 234.896 0.171875 234.62C0.171875 234.343 0.413636 234.102 0.689934 234.102H275.952C276.228 234.102 276.47 234.343 276.47 234.62C276.47 234.896 276.263 235.138 275.952 235.138Z" fill="#565973"/>
<path d="M164.259 258.247H42.4114L5.31836 179.156H124.057L164.259 258.247Z" fill="url(#paint0_linear_4_821)"/>
<path d="M164.259 258.763H42.4118C42.2045 258.763 42.0319 258.66 41.9282 258.452L4.83525 179.362C4.76618 179.189 4.76618 179.017 4.86979 178.878C4.9734 178.74 5.14609 178.637 5.31877 178.637H124.058C124.265 178.637 124.438 178.74 124.507 178.913L164.743 258.003C164.812 258.176 164.812 258.349 164.708 258.521C164.605 258.66 164.466 258.763 164.259 258.763ZM42.7226 257.727H163.43L123.712 179.673H6.11313L42.7226 257.727Z" fill="#0B0F19"/>
<path d="M76.7766 227.474C80.2994 227.474 83.166 224.608 83.166 221.085C83.166 217.562 80.2994 214.696 76.7766 214.696C73.2538 214.696 70.3872 217.562 70.3872 221.085C70.3872 224.642 73.2538 227.474 76.7766 227.474Z" fill="white"/>
<path d="M76.7766 227.991C72.9775 227.991 69.8691 224.883 69.8691 221.084C69.8691 217.285 72.9775 214.211 76.7766 214.211C80.5757 214.211 83.6841 217.285 83.6841 221.084C83.6495 224.917 80.5757 227.991 76.7766 227.991ZM76.7766 215.247C73.5301 215.247 70.9053 217.872 70.9053 221.084C70.9053 224.296 73.5301 226.955 76.7766 226.955C80.0231 226.955 82.6479 224.33 82.6479 221.084C82.6134 217.872 79.9886 215.247 76.7766 215.247Z" fill="#0B0F19"/>
<path d="M186.052 258.763H164.293C164.017 258.763 163.775 258.521 163.775 258.245C163.775 257.968 164.017 257.727 164.293 257.727H186.052C186.328 257.727 186.57 257.968 186.57 258.245C186.57 258.521 186.328 258.763 186.052 258.763Z" fill="#0B0F19"/>
<path d="M116.771 77.6159L138.979 99.4435L144.643 68.5671L116.771 77.6159Z" fill="#D4D7E5"/>
<path d="M138.978 99.9626C138.84 99.9626 138.702 99.8935 138.598 99.8244L116.391 77.9969C116.253 77.8587 116.218 77.6861 116.253 77.5134C116.287 77.3407 116.425 77.2025 116.598 77.1335L144.47 68.0502C144.642 67.9811 144.85 68.0156 144.988 68.1538C145.126 68.2574 145.195 68.4646 145.16 68.6373L139.496 99.5136C139.462 99.6863 139.324 99.859 139.151 99.9281C139.116 99.9626 139.047 99.9626 138.978 99.9626ZM117.738 77.8587L138.633 98.4084L143.952 69.328L117.738 77.8587Z" fill="#0B0F19"/>
<path d="M143.571 93.4353C148.717 93.4353 152.93 89.2563 152.93 84.1102C152.93 78.9642 148.751 74.7852 143.571 74.7852C138.39 74.7852 134.211 78.9642 134.211 84.1102C134.245 89.2563 138.424 93.4353 143.571 93.4353Z" fill="white"/>
<path d="M143.571 93.9519C138.149 93.9519 133.693 89.5311 133.693 84.1087C133.693 78.6864 138.114 74.2656 143.571 74.2656C148.993 74.2656 153.449 78.6864 153.449 84.1087C153.449 89.5311 149.028 93.9519 143.571 93.9519ZM143.571 75.3017C138.701 75.3017 134.729 79.2735 134.729 84.1087C134.729 88.9785 138.701 92.9157 143.571 92.9157C148.441 92.9157 152.413 88.944 152.413 84.1087C152.413 79.239 148.441 75.3017 143.571 75.3017Z" fill="#0B0F19"/>
<path d="M105.131 29.7845C105.096 29.7845 105.062 29.7845 104.993 29.7845C104.717 29.7154 104.544 29.4391 104.613 29.1628L108.136 15.3134C108.205 15.0371 108.481 14.8989 108.723 14.9335L120.845 17.2475V8.19872C120.845 8.02603 120.914 7.88788 121.053 7.78427C121.191 7.68066 121.363 7.64612 121.502 7.68066L133.935 11.0653L135.938 0.427835C136.007 0.151537 136.249 -0.0556868 136.525 0.0133877C136.802 0.0824622 137.009 0.324223 136.94 0.600521L134.868 11.7906C134.833 11.9287 134.764 12.0669 134.626 12.136C134.488 12.205 134.349 12.2396 134.211 12.205L121.916 8.85492V17.8346C121.916 17.9728 121.847 18.1454 121.743 18.2491C121.64 18.3527 121.467 18.3872 121.329 18.3527L109.034 16.0387L105.649 29.4046C105.58 29.6463 105.373 29.7845 105.131 29.7845Z" fill="#565973"/>
<path d="M186.224 42.4246C189.367 42.4246 191.923 39.8689 191.923 36.726C191.923 33.5831 189.367 31.0273 186.224 31.0273C183.081 31.0273 180.525 33.5831 180.525 36.726C180.56 39.9034 183.081 42.4246 186.224 42.4246Z" fill="#D4D7E5"/>
<path d="M186.225 42.9412C182.805 42.9412 180.008 40.1437 180.008 36.7245C180.008 33.3053 182.805 30.5078 186.225 30.5078C189.644 30.5078 192.441 33.3053 192.441 36.7245C192.441 40.1782 189.644 42.9412 186.225 42.9412ZM186.225 31.5785C183.358 31.5785 181.044 33.8925 181.044 36.7591C181.044 39.6256 183.358 41.9396 186.225 41.9396C189.091 41.9396 191.405 39.6256 191.405 36.7591C191.405 33.8925 189.091 31.5785 186.225 31.5785Z" fill="#0B0F19"/>
<path d="M94.7012 179.16C94.7012 179.16 103.715 150.977 108.551 151.564C113.386 152.151 110.312 159.163 110.312 159.163C110.312 159.163 129.895 152.428 131.103 156.814C132.036 160.095 118.117 163.756 118.117 163.756C118.117 163.756 130.413 160.406 130.654 162.754C130.931 165.483 120.017 167.002 118.221 168.039C118.221 168.039 128.03 164.758 128.548 166.519C129.031 168.246 117.772 171.769 117.772 171.769C117.772 171.769 124.196 169.489 124.369 171.181C124.541 172.943 118.981 174.532 116.771 174.739C114.56 174.946 115.216 179.125 115.216 179.125H94.7012V179.16Z" fill="white"/>
<path d="M115.251 179.676H94.7011C94.5284 179.676 94.3903 179.607 94.2867 179.469C94.183 179.331 94.1485 179.158 94.2176 179.02C94.2521 178.951 96.497 171.871 99.3291 164.964C104.579 152.15 107.135 150.872 108.62 151.045C109.863 151.183 110.761 151.736 111.279 152.668C112.246 154.361 111.659 156.916 111.175 158.367C114.802 157.193 126.855 153.497 130.482 155.397C131.069 155.708 131.449 156.157 131.621 156.709C131.76 157.193 131.69 157.676 131.414 158.16C130.723 159.403 128.651 160.577 126.337 161.579C128.237 161.372 129.895 161.372 130.654 161.89C131.034 162.166 131.172 162.511 131.172 162.753C131.311 163.962 130.102 164.86 128.099 165.654C128.237 165.689 128.375 165.723 128.513 165.792C128.858 166 128.997 166.241 129.066 166.449C129.273 167.208 128.789 168.21 123.92 170.179C124.127 170.213 124.265 170.282 124.403 170.386C124.714 170.559 124.887 170.869 124.921 171.18C125.163 173.632 118.635 175.117 116.874 175.29C116.598 175.325 116.39 175.428 116.218 175.67C115.562 176.499 115.7 178.433 115.803 179.089C115.838 179.227 115.769 179.4 115.7 179.504C115.527 179.607 115.389 179.676 115.251 179.676ZM95.3919 178.64H114.664C114.595 177.708 114.56 176.015 115.354 175.014C115.7 174.565 116.183 174.289 116.736 174.254C120.362 173.874 123.92 172.078 123.851 171.249C123.609 170.904 121.64 171.111 119.223 171.871C118.463 172.147 117.945 172.285 117.945 172.285C117.668 172.354 117.392 172.216 117.288 171.94C117.185 171.664 117.358 171.387 117.599 171.284C117.841 171.18 118.394 171.008 119.05 170.8C123.851 169.212 127.788 167.381 128.03 166.621C127.546 166.138 123.505 166.794 118.394 168.486C118.152 168.555 117.876 168.452 117.772 168.21C117.668 167.968 117.737 167.692 117.979 167.554C118.601 167.174 120.051 166.794 121.882 166.345C124.818 165.585 130.274 164.169 130.136 162.753C130.136 162.719 130.136 162.684 130.067 162.65C129.411 162.201 125.819 162.201 118.877 164.066C118.601 164.135 118.394 164.204 118.256 164.238C117.979 164.307 117.703 164.135 117.634 163.858C117.565 163.582 117.737 163.306 118.014 163.237C118.152 163.202 118.325 163.168 118.532 163.099C121.882 162.166 129.307 159.748 130.516 157.607C130.654 157.365 130.689 157.158 130.654 156.951C130.585 156.675 130.378 156.433 130.033 156.26C126.855 154.602 114.871 158.125 110.519 159.61C110.312 159.679 110.105 159.61 109.967 159.472C109.828 159.334 109.794 159.092 109.863 158.92C109.863 158.885 111.521 155.086 110.416 153.117C110.07 152.496 109.449 152.116 108.516 152.012C107.722 151.908 105.339 153.014 100.331 165.274C97.9821 170.973 96.0481 176.706 95.3919 178.64Z" fill="#0B0F19"/>
<path d="M175.69 203.711C175.587 203.711 175.483 203.677 175.38 203.608C175.138 203.435 175.103 203.09 175.276 202.882L179.904 196.942C180.077 196.7 180.422 196.666 180.629 196.838C180.871 197.011 180.906 197.356 180.733 197.564L176.105 203.504C176.001 203.642 175.863 203.711 175.69 203.711Z" fill="#0B0F19"/>
<path d="M206.498 169.276C206.498 169.276 209.537 166.064 208.777 162.99C208.017 159.916 203.182 156.186 203.838 154.528C204.495 152.871 211.229 154.114 212.3 156.117C213.405 158.086 219.069 142.44 223.317 144.72C225.493 145.859 218.551 156.186 218.551 156.186C218.551 156.186 229.327 142.82 232.85 146.032C234.715 147.724 225.7 156.635 225.7 156.635C225.7 156.635 239.205 145.514 243.073 148.726C246.008 151.144 230.881 158.5 232.159 159.847C232.539 160.261 248.495 148.761 250.913 153.043C252.156 155.219 243.66 159.364 237.305 165.373C230.398 171.935 225.079 179.913 225.079 179.913L206.498 169.276Z" fill="white"/>
<path d="M225.148 180.399C225.045 180.399 224.976 180.364 224.907 180.33L206.256 169.761C206.118 169.692 206.015 169.554 206.015 169.381C205.98 169.209 206.049 169.07 206.153 168.932C206.187 168.898 208.985 165.859 208.294 163.096C207.949 161.714 206.671 160.125 205.531 158.709C204.081 156.879 202.906 155.463 203.39 154.323C203.632 153.701 204.357 153.322 205.566 153.252C207.741 153.114 211.541 154.047 212.68 155.635C213.164 155.187 214.131 153.563 214.891 152.216C217.412 147.934 220.555 142.58 223.629 144.204C223.836 144.307 224.147 144.584 224.25 145.067C224.354 145.482 224.665 146.725 222.04 151.491C224.872 148.555 228.671 145.171 231.296 144.963C232.09 144.894 232.746 145.102 233.265 145.585C233.437 145.758 233.679 146.069 233.679 146.587C233.679 147.036 233.713 148.383 230.053 152.7C234.473 149.626 240.794 146.034 243.488 148.245C243.867 148.555 244.075 149.004 244.04 149.453C243.971 151.18 241.035 153.322 236.925 156.188C236.097 156.775 235.13 157.431 234.301 158.053C234.439 157.949 234.611 157.88 234.75 157.777C240.448 154.358 246.838 150.731 249.946 151.56C250.602 151.733 251.12 152.113 251.431 152.665C252.398 154.358 249.704 156.326 245.594 159.331C243.108 161.161 240.241 163.234 237.72 165.617C230.916 172.075 225.632 179.984 225.563 180.053C225.494 180.295 225.321 180.399 225.148 180.399ZM207.327 169.14L225.01 179.155C226.184 177.463 231.02 170.625 237.029 164.926C239.619 162.474 242.486 160.402 245.007 158.537C247.977 156.361 251.051 154.116 250.533 153.218C250.36 152.907 250.084 152.7 249.67 152.596C246.7 151.836 238.963 156.464 235.268 158.709C232.47 160.402 232.228 160.54 231.848 160.125C231.676 159.953 231.607 159.711 231.641 159.469C231.745 158.571 233.299 157.431 236.338 155.359C239.136 153.425 242.935 150.766 243.004 149.453C243.004 149.35 243.004 149.212 242.797 149.073C241.415 147.934 238.031 148.935 233.265 151.871C229.465 154.219 226.115 156.982 226.081 156.982C225.874 157.155 225.563 157.121 225.355 156.913C225.183 156.706 225.183 156.395 225.39 156.188C228.222 153.391 232.677 148.348 232.643 146.587C232.643 146.414 232.574 146.345 232.574 146.345C232.263 146.069 231.883 145.965 231.4 146C227.98 146.276 221.315 153.632 219.035 156.464C218.862 156.672 218.552 156.706 218.31 156.568C218.103 156.395 218.034 156.084 218.172 155.877C220.348 152.665 223.663 146.932 223.249 145.343C223.214 145.205 223.145 145.171 223.145 145.171C220.969 144.031 217.861 149.281 215.789 152.769C214.096 155.636 213.406 156.775 212.577 156.775C212.3 156.775 212.059 156.603 211.886 156.326C211.264 155.221 207.914 154.116 205.6 154.254C204.806 154.289 204.391 154.496 204.322 154.668C204.081 155.256 205.324 156.775 206.325 158.019C207.534 159.504 208.881 161.231 209.296 162.819C209.952 165.479 208.156 168.103 207.327 169.14Z" fill="#0B0F19"/>
<path d="M230.433 123.936C230.433 123.936 241.14 133.813 242.556 131.706C243.488 130.325 234.301 119.549 232.298 115.543C230.813 117.684 229.535 118.202 230.433 123.936Z" fill="white"/>
<path d="M241.865 132.533C241.209 132.533 239.586 132.153 234.958 128.492C232.402 126.455 230.123 124.348 230.088 124.313C230.019 124.244 229.95 124.141 229.915 124.003C229.121 118.891 230.019 117.717 231.262 116.094C231.469 115.817 231.677 115.576 231.884 115.265C231.988 115.127 232.16 115.023 232.333 115.057C232.506 115.057 232.678 115.196 232.747 115.334C233.542 116.922 235.579 119.72 237.548 122.448C241.934 128.458 243.627 131.014 242.936 132.015C242.798 132.222 242.521 132.464 242.038 132.533C242.038 132.499 241.934 132.533 241.865 132.533ZM230.917 123.657C234.371 126.835 240.311 131.67 241.969 131.463C242.038 131.463 242.072 131.428 242.107 131.428C242.176 130.496 238.93 126.006 236.754 123.036C234.958 120.549 233.231 118.2 232.264 116.508C232.195 116.577 232.16 116.646 232.091 116.715C230.951 118.166 230.226 119.133 230.917 123.657Z" fill="#0B0F19"/>
<path d="M232.297 115.539C232.297 115.539 241.035 129.802 243.038 127.454C243.936 126.418 235.647 117.887 235.992 111.809C234.162 113.432 232.297 115.539 232.297 115.539Z" fill="white"/>
<path d="M242.451 128.246C242.416 128.246 242.382 128.246 242.347 128.246C241.864 128.211 240.379 128.073 235.889 121.856C233.713 118.852 231.883 115.847 231.848 115.812C231.744 115.605 231.744 115.363 231.917 115.191C231.986 115.087 233.817 113.049 235.647 111.426C235.82 111.288 236.027 111.254 236.2 111.357C236.372 111.461 236.511 111.633 236.476 111.841C236.269 115.467 239.412 120.199 241.484 123.342C243.176 125.897 243.971 127.072 243.383 127.762C243.176 128.108 242.831 128.246 242.451 128.246ZM232.953 115.605C235.751 120.164 240.655 127.072 242.451 127.21C242.52 127.21 242.555 127.21 242.589 127.175C242.52 126.692 241.553 125.241 240.69 123.929C238.617 120.82 235.854 116.676 235.509 112.946C234.404 114.016 233.402 115.122 232.953 115.605Z" fill="#0B0F19"/>
<path d="M241.38 115.327C241.449 125.377 245.214 125.205 244.419 126.206C243.349 127.519 239.964 122.062 237.961 118.435C235.992 114.809 236.165 114.014 235.992 111.839C235.992 111.839 238.962 109.559 240.102 110.941C240.827 111.77 241.38 113.151 241.38 115.327Z" fill="white"/>
<path d="M244.005 126.934C243.971 126.934 243.936 126.934 243.902 126.934C243.004 126.865 241.139 125.345 237.512 118.68C235.716 115.364 235.647 114.328 235.509 112.567C235.509 112.359 235.475 112.118 235.475 111.876C235.475 111.703 235.544 111.53 235.682 111.427C236.027 111.15 239.101 108.871 240.517 110.598C241.415 111.669 241.899 113.292 241.899 115.364C241.968 122.168 243.66 124.067 244.489 125C244.834 125.38 245.318 125.932 244.8 126.589C244.592 126.796 244.316 126.934 244.005 126.934ZM236.511 112.083C236.511 112.221 236.545 112.359 236.545 112.497C236.649 114.155 236.718 115.088 238.41 118.196C241.277 123.446 243.315 125.794 243.936 125.898C243.867 125.829 243.798 125.725 243.729 125.656C242.831 124.655 240.932 122.548 240.862 115.364C240.862 113.534 240.448 112.152 239.723 111.289C239.136 110.563 237.443 111.427 236.511 112.083Z" fill="#0B0F19"/>
<path d="M281.099 93.605C280.996 93.605 280.927 93.5705 280.823 93.5359L251.363 75.4039C251.225 75.3003 251.121 75.1621 251.121 74.9894C251.121 74.8168 251.19 74.6441 251.328 74.5405L275.297 55.3723C275.539 55.1996 275.85 55.2341 276.022 55.4414C276.195 55.6486 276.161 55.994 275.953 56.1666L252.572 74.8858L281.134 92.4653L305.068 78.0978C305.31 77.9596 305.621 78.0287 305.794 78.2705C305.932 78.5122 305.863 78.8231 305.621 78.9958L281.41 93.5359C281.307 93.5705 281.203 93.605 281.099 93.605Z" fill="#0B0F19"/>
<path d="M253.536 76.1328C253.536 76.1328 237.269 88.2899 234.057 93.0906C230.88 97.8913 223.074 114.607 223.074 119.063C223.074 124.036 228.117 135.571 230.362 135.088C232.606 134.604 229.256 121.031 230.362 118.475C231.467 115.92 236.751 109.634 239.618 110.636C242.484 111.637 240.412 124.14 244.246 124.519C248.079 124.899 247.596 112.121 249.046 109.392C250.497 106.664 251.429 107.803 252.086 102.796C252.465 99.8599 278.057 91.2601 278.057 91.2601L253.536 76.1328Z" fill="white"/>
<path d="M230.259 135.64C229.879 135.64 229.499 135.467 229.085 135.156C226.425 132.981 222.592 123.552 222.592 119.097C222.592 114.469 230.363 97.7871 233.644 92.8137C236.856 88.013 252.57 76.2358 253.226 75.7178C253.399 75.5796 253.641 75.5796 253.813 75.6832L278.369 90.8105C278.542 90.9142 278.646 91.1214 278.611 91.2941C278.577 91.5013 278.439 91.674 278.266 91.743C262.413 97.0618 252.777 101.586 252.639 102.864C252.225 106.18 251.638 106.939 250.774 107.941C250.394 108.355 250.014 108.804 249.565 109.668C249.116 110.531 248.84 112.707 248.564 114.987C247.977 119.718 247.32 125.071 244.488 125.071C244.419 125.071 244.35 125.071 244.247 125.071C241.76 124.83 241.38 120.927 241.035 117.128C240.793 114.503 240.517 111.533 239.515 111.188C238.479 110.842 236.752 111.74 234.749 113.674C232.918 115.47 231.399 117.646 230.881 118.751C230.432 119.753 230.846 123.172 231.192 126.211C231.848 131.841 232.159 135.329 230.535 135.674C230.432 135.605 230.363 135.64 230.259 135.64ZM253.572 76.7539C251.396 78.3771 237.374 89.0491 234.507 93.3663C232.918 95.7494 230.19 101.103 227.876 106.387C225.182 112.534 223.628 117.128 223.628 119.062C223.628 123.414 227.531 132.532 229.741 134.327C230.017 134.535 230.19 134.604 230.294 134.604C230.294 134.604 230.708 134.397 230.674 132.152C230.639 130.528 230.397 128.353 230.155 126.246C229.741 122.619 229.396 119.511 229.948 118.268C231.088 115.677 236.51 108.977 239.86 110.117C241.518 110.669 241.76 113.605 242.105 116.955C242.416 120.167 242.762 123.794 244.385 123.966C246.388 124.174 247.044 118.751 247.562 114.814C247.873 112.327 248.149 110.151 248.667 109.15C249.185 108.183 249.634 107.665 250.049 107.216C250.74 106.456 251.258 105.869 251.672 102.726C251.741 102.07 251.948 100.585 265.142 95.4385C270.011 93.539 274.881 91.8467 276.988 91.1214L253.572 76.7539Z" fill="#0B0F19"/>
<path d="M245.214 299.344H146.437C146.23 299.344 146.057 299.24 145.988 299.068C145.885 298.895 145.919 298.688 146.023 298.515L174.343 257.934C174.447 257.796 174.585 257.727 174.758 257.727L268.008 258.106C268.181 258.106 268.354 258.21 268.457 258.348C268.561 258.521 268.561 258.694 268.457 258.866L245.663 299.068C245.559 299.24 245.387 299.344 245.214 299.344ZM147.439 298.308H244.938L267.145 259.143L175.034 258.763L147.439 298.308Z" fill="#565973"/>
<path d="M232.713 258.488L223.111 272.925H250.327L259.306 258.592L232.713 258.488Z" fill="white"/>
<path d="M250.327 273.441H223.111C222.904 273.441 222.731 273.338 222.662 273.165C222.559 272.992 222.593 272.785 222.697 272.647L232.298 258.211C232.402 258.072 232.54 257.969 232.713 257.969L259.306 258.072C259.479 258.072 259.652 258.176 259.755 258.349C259.859 258.521 259.824 258.729 259.755 258.867L250.775 273.2C250.637 273.372 250.499 273.441 250.327 273.441ZM224.078 272.405H250.016L258.339 259.108L232.954 259.005L224.078 272.405Z" fill="#565973"/>
<path d="M223.525 262.806H192.407C192.13 262.806 191.889 262.564 191.889 262.288C191.889 262.011 192.13 261.77 192.407 261.77H223.525C223.801 261.77 224.043 262.011 224.043 262.288C224.043 262.564 223.836 262.806 223.525 262.806Z" fill="#565973"/>
<path d="M220.072 268.364H197.346C197.07 268.364 196.828 268.122 196.828 267.846C196.828 267.57 197.07 267.328 197.346 267.328H220.072C220.348 267.328 220.59 267.57 220.59 267.846C220.59 268.122 220.383 268.364 220.072 268.364Z" fill="#565973"/>
<path d="M217.308 272.892H192.856C192.58 272.892 192.338 272.65 192.338 272.374C192.338 272.097 192.58 271.855 192.856 271.855H217.308C217.585 271.855 217.826 272.097 217.826 272.374C217.826 272.65 217.619 272.892 217.308 272.892Z" fill="#565973"/>
<path d="M238.48 293.784H157.904L169.681 276.93H248.426L238.48 293.784Z" fill="white"/>
<path d="M238.48 294.3H157.904C157.697 294.3 157.524 294.197 157.455 294.024C157.352 293.851 157.386 293.644 157.49 293.472L169.267 276.617C169.37 276.479 169.509 276.41 169.681 276.41H248.426C248.599 276.41 248.772 276.514 248.875 276.686C248.979 276.859 248.979 277.032 248.875 277.205L238.894 294.059C238.825 294.197 238.652 294.3 238.48 294.3ZM158.906 293.264H238.169L247.528 277.446H169.992L158.906 293.264Z" fill="#565973"/>
</g>
<defs>
<linearGradient id="paint0_linear_4_821" x1="5.31836" y1="218.891" x2="164.259" y2="218.891" gradientUnits="userSpaceOnUse">
<stop stop-color="#6366F1"/>
<stop offset="0.5" stop-color="#8B5CF6"/>
<stop offset="1" stop-color="#D946EF"/>
</linearGradient>
<clipPath id="clip0_4_821">
<rect width="306" height="300" fill="white"/>
</clipPath>
</defs>
</svg>
