<svg width="306" height="300" viewBox="0 0 306 300" fill="none" xmlns="http://www.w3.org/2000/svg">
<g clip-path="url(#clip0_4_886)">
<path d="M246.875 55.1422L253.632 52.1523C253.632 52.1523 251.689 60.1054 254.679 62.3478C257.489 64.4407 265.711 61.5106 268.312 64.7397C270.555 67.4904 269.06 80.3468 269.06 80.3468L264.276 82.8882C264.276 82.8882 265.831 72.3041 263.08 70.0019C259.343 66.8625 253.184 70.6596 250.642 68.9554C246.875 66.414 246.875 55.1422 246.875 55.1422Z" fill="#D4D7E5"/>
<path d="M264.246 83.3372C264.156 83.3372 264.067 83.3073 263.977 83.2475C263.827 83.1578 263.768 82.9784 263.798 82.8289C264.216 79.9586 264.874 72.1252 262.751 70.3312C260.778 68.6569 257.967 69.1054 255.456 69.524C253.453 69.8529 251.569 70.1518 250.343 69.3147C246.426 66.7135 246.396 55.6211 246.396 55.1427C246.396 54.9633 246.486 54.8138 246.666 54.7241L253.423 51.7342C253.572 51.6744 253.752 51.7043 253.901 51.794C254.021 51.9136 254.08 52.093 254.051 52.2425C254.021 52.3322 252.197 59.9265 254.947 61.9596C256.084 62.7968 258.326 62.737 260.718 62.6772C263.857 62.5875 267.086 62.4978 268.671 64.4412C271.003 67.3115 269.568 79.839 269.508 80.3772C269.478 80.5267 269.389 80.6463 269.269 80.736L264.485 83.2774C264.395 83.3073 264.336 83.3372 264.246 83.3372ZM258.984 68.2383C260.539 68.2383 262.063 68.5672 263.319 69.6436C265.801 71.7066 265.113 79.4503 264.784 82.0814L268.611 80.0483C269.03 76.3708 269.628 67.1321 267.924 65.0093C266.608 63.3947 263.618 63.4844 260.688 63.5741C258.147 63.6638 255.725 63.7236 254.35 62.6772C251.748 60.7337 252.526 55.0829 252.944 52.9003L247.264 55.4118C247.264 56.219 247.353 58.5212 247.712 61.0327C248.31 65.0093 249.386 67.6104 250.792 68.5672C251.748 69.1951 253.453 68.926 255.276 68.627C256.532 68.4476 257.788 68.2383 258.984 68.2383Z" fill="#0B0F19"/>
<path d="M305.439 257C305.158 257 304.913 256.76 304.913 256.485V60.8924C304.913 36.7116 284.816 17.0304 260.125 17.0304H72.8395C48.1486 17.0304 28.0522 36.7116 28.0522 60.8924V256.485C28.0522 256.76 27.8067 257 27.5261 257C27.2455 257 27 256.76 27 256.485V60.8924C27 36.1277 47.5524 16 72.8395 16H260.161C285.448 16 306 36.1277 306 60.8924V256.485C305.965 256.76 305.754 257 305.439 257Z" fill="#565973"/>
<path d="M48.8753 9.83648C51.4311 9.83648 53.5318 7.77081 53.5318 5.17996C53.5318 2.62412 51.4661 0.523438 48.8753 0.523438C46.3194 0.523438 44.2188 2.62412 44.2188 5.17996C44.2188 7.73579 46.3194 9.83648 48.8753 9.83648Z" fill="white"/>
<path d="M48.8751 10.3634C46.0041 10.3634 43.6934 8.05263 43.6934 5.18169C43.6934 2.31076 46.0041 0 48.8751 0C51.746 0 54.0567 2.31076 54.0567 5.18169C54.0567 8.01762 51.746 10.3634 48.8751 10.3634ZM48.8751 1.05034C46.5993 1.05034 44.7437 2.90595 44.7437 5.18169C44.7437 7.45744 46.5993 9.31304 48.8751 9.31304C51.1508 9.31304 53.0064 7.45744 53.0064 5.18169C53.0064 2.90595 51.1508 1.05034 48.8751 1.05034Z" fill="#0B0F19"/>
<path d="M69.5686 9.83648C72.1245 9.83648 74.2252 7.77081 74.2252 5.17996C74.2252 2.62412 72.1595 0.523438 69.5686 0.523438C67.0128 0.523438 64.9121 2.62412 64.9121 5.17996C64.9121 7.73579 67.0128 9.83648 69.5686 9.83648Z" fill="url(#paint0_linear_4_886)"/>
<path d="M69.5684 10.3634C66.6975 10.3634 64.3867 8.05263 64.3867 5.18169C64.3867 2.31076 66.6975 0 69.5684 0C72.4394 0 74.7501 2.31076 74.7501 5.18169C74.7501 8.01762 72.4394 10.3634 69.5684 10.3634ZM69.5684 1.05034C67.2927 1.05034 65.4371 2.90595 65.4371 5.18169C65.4371 7.45744 67.2927 9.31304 69.5684 9.31304C71.8442 9.31304 73.6998 7.45744 73.6998 5.18169C73.6998 2.90595 71.8442 1.05034 69.5684 1.05034Z" fill="#0B0F19"/>
<path d="M90.3987 9.83648C92.9545 9.83648 95.0552 7.77081 95.0552 5.17996C95.0552 2.62412 92.9545 0.523438 90.3987 0.523438C87.8429 0.523438 85.7422 2.62412 85.7422 5.17996C85.7422 7.73579 87.8429 9.83648 90.3987 9.83648Z" fill="#D4D7E5"/>
<path d="M90.3985 10.3634C87.5276 10.3634 85.2168 8.05263 85.2168 5.18169C85.2168 2.31076 87.5276 0 90.3985 0C93.2694 0 95.5802 2.31076 95.5802 5.18169C95.5802 8.01762 93.2694 10.3634 90.3985 10.3634ZM90.3985 1.05034C88.1228 1.05034 86.2671 2.90595 86.2671 5.18169C86.2671 7.45744 88.1228 9.31304 90.3985 9.31304C92.6742 9.31304 94.5298 7.45744 94.5298 5.18169C94.5298 2.90595 92.6742 1.05034 90.3985 1.05034Z" fill="#0B0F19"/>
<path d="M196.756 180.333C196.724 180.333 196.724 180.333 196.692 180.333C196.468 180.301 175.572 178.029 159.989 178.509C159.861 178.509 159.733 178.445 159.637 178.349C159.541 178.253 159.509 178.125 159.509 177.965L163.508 135.406L156.757 136.494C156.501 136.526 156.245 136.366 156.213 136.11L153.013 116.622C152.981 116.494 153.013 116.334 153.109 116.238C153.205 116.142 153.333 116.078 153.461 116.046L183.156 114.734C183.284 114.734 183.412 114.766 183.476 114.862C183.476 114.862 185.332 116.334 190.772 115.854C190.836 115.854 190.9 115.854 190.964 115.886C195.444 117.198 200.82 121.294 206.932 128.11C211.444 133.134 214.708 137.87 214.772 137.902C214.868 138.03 214.868 138.19 214.836 138.318C214.804 138.446 214.676 138.574 214.548 138.638L196.98 145.454C196.756 145.55 196.5 145.454 196.372 145.23L195.316 143.086L197.236 179.821C197.236 179.949 197.204 180.109 197.076 180.205C197.012 180.269 196.884 180.333 196.756 180.333ZM164.468 177.453C177.844 177.453 193.172 178.989 196.244 179.309L194.228 140.814C194.228 140.59 194.356 140.398 194.58 140.334C194.804 140.27 195.028 140.366 195.124 140.59L197.012 144.43L213.588 137.966C211.444 134.99 200.116 119.662 190.74 116.846C185.748 117.262 183.572 116.142 182.996 115.758L154.005 117.038L157.045 135.502L163.956 134.382C164.116 134.35 164.244 134.414 164.372 134.51C164.468 134.606 164.532 134.766 164.532 134.894L160.532 177.517C161.812 177.485 163.124 177.453 164.468 177.453Z" fill="#0B0F19"/>
<path d="M203.443 198.287L143.828 234.127L164.724 265.679C164.724 265.679 260.595 223.727 250.739 198.287C240.883 172.848 83.4442 168.912 75.0602 200.655C70.9963 216.047 139.06 236.975 139.06 236.975L203.443 198.287Z" fill="#0B0F19"/>
<path d="M164.723 266.157C164.563 266.157 164.403 266.093 164.307 265.933L143.667 234.733L139.315 237.357C139.187 237.421 139.059 237.453 138.931 237.389C138.771 237.325 121.715 232.077 105.363 224.973C83.2192 215.373 72.8513 207.117 74.6113 200.461C76.3073 194.061 83.7952 188.781 96.8512 184.813C108.275 181.325 123.763 178.989 141.587 177.997C165.427 176.685 191.027 177.901 211.858 181.325C224.978 183.501 247.506 188.557 251.186 198.061C253.522 204.077 250.354 211.405 241.778 219.853C235.026 226.541 224.882 233.933 211.666 241.901C189.171 255.437 165.139 265.965 164.915 266.093C164.851 266.157 164.787 266.157 164.723 266.157ZM144.499 234.285L164.883 265.101C167.987 263.725 190.227 253.709 211.154 241.133C231.73 228.749 255.218 211.309 250.258 198.477C247.666 191.757 233.938 186.029 211.666 182.349C190.931 178.925 165.395 177.709 141.619 179.021C123.859 180.013 108.467 182.349 97.1072 185.805C84.3712 189.677 77.1073 194.701 75.5073 200.781C73.9073 206.829 84.3712 214.893 105.715 224.141C121.043 230.797 137.011 235.821 138.995 236.429L203.186 197.869C203.41 197.741 203.698 197.805 203.858 198.029C203.986 198.253 203.922 198.541 203.698 198.701L144.499 234.285Z" fill="#0B0F19"/>
<path d="M173.077 107.312C171.221 101.456 182.421 86.7681 191.541 88.0481C200.085 89.2641 199.893 93.8401 201.557 96.72C202.485 98.32 205.173 99.856 205.557 102.896C205.941 105.68 203.925 107.184 204.181 109.488C204.437 111.76 206.645 115.568 203.605 117.264C201.397 118.512 201.333 114.064 196.661 113.392C193.269 112.912 188.661 112.624 183.541 111.088C178.581 109.616 174.517 111.952 173.077 107.312Z" fill="#0B0F19"/>
<path d="M202.9 117.966C202.068 117.966 201.46 117.23 200.852 116.526C199.988 115.47 198.9 114.19 196.628 113.87C195.828 113.742 194.996 113.646 194.068 113.55C191.092 113.198 187.412 112.75 183.412 111.566C181.716 111.054 180.116 111.022 178.708 110.958C175.988 110.862 173.652 110.798 172.596 107.47C171.7 104.59 173.652 99.5984 177.524 95.0545C182.004 89.7745 187.252 86.9905 191.572 87.5985C198.676 88.5905 200.02 91.9505 201.108 94.6705C201.364 95.3424 201.62 95.9504 201.94 96.4944C202.228 96.9744 202.708 97.4544 203.188 97.9984C204.308 99.1824 205.716 100.654 206.004 102.862C206.228 104.462 205.716 105.678 205.268 106.734C204.884 107.662 204.532 108.462 204.66 109.422C204.724 109.934 204.884 110.574 205.076 111.246C205.652 113.326 206.452 116.206 203.86 117.678C203.508 117.902 203.188 117.966 202.9 117.966ZM190.388 88.4625C185.972 88.4625 181.3 92.0785 178.26 95.6624C174.676 99.8864 172.724 104.622 173.524 107.182C174.356 109.87 176.116 109.934 178.772 109.998C180.244 110.03 181.908 110.094 183.732 110.638C187.636 111.79 191.284 112.238 194.228 112.59C195.124 112.686 195.988 112.814 196.788 112.91C199.444 113.294 200.692 114.798 201.62 115.918C202.516 117.006 202.772 117.198 203.412 116.846C205.236 115.822 204.884 113.998 204.18 111.502C203.988 110.798 203.796 110.126 203.732 109.518C203.604 108.302 204.02 107.31 204.404 106.318C204.852 105.262 205.268 104.27 205.076 102.926C204.82 101.038 203.604 99.7584 202.516 98.6064C201.972 98.0304 201.46 97.4864 201.108 96.9104C200.756 96.3024 200.5 95.6305 200.212 94.9585C199.156 92.3665 197.972 89.4225 191.444 88.4945C191.092 88.4945 190.74 88.4625 190.388 88.4625Z" fill="#0B0F19"/>
<path d="M114.26 82.9253C114.26 82.9253 111.124 65.2934 106.836 66.5734C102.548 67.8534 108.34 83.4693 108.34 83.4693C108.34 83.4693 96.2442 90.1893 96.9162 93.2292C97.5882 96.2372 122.356 135.789 129.268 137.229C136.18 138.669 156.724 136.013 156.724 136.013L153.524 116.525C153.524 116.525 138.356 117.293 133.908 115.213C118.004 107.725 122.612 73.9334 118.964 73.4214C114.836 72.8454 114.26 82.9253 114.26 82.9253Z" fill="white"/>
<path d="M135.22 138.159C132.788 138.159 130.644 138.031 129.14 137.711C125.268 136.911 116.756 125.52 110.324 116.08C103.252 105.744 96.7561 94.9278 96.4041 93.3278C95.7321 90.2558 105.012 84.7519 107.732 83.2479C107.412 82.3199 106.548 79.8239 105.844 77.0399C104.628 72.272 104.436 69.008 105.268 67.344C105.588 66.704 106.068 66.288 106.676 66.096C107.284 65.904 107.86 66 108.436 66.384C110.004 67.344 111.54 70.448 113.012 75.5359C113.46 77.1359 113.844 78.6719 114.1 79.9199C114.484 77.6799 115.252 74.7999 116.788 73.5519C117.428 73.0399 118.164 72.8159 118.964 72.9439C120.468 73.1679 120.756 76.0159 121.3 82.4799C122.196 93.3918 123.572 109.872 134.036 114.8C138.324 116.816 153.268 116.08 153.428 116.08C153.684 116.08 153.876 116.24 153.94 116.496L157.14 135.984C157.172 136.112 157.14 136.24 157.044 136.336C156.98 136.432 156.852 136.495 156.724 136.528C156.084 136.591 143.86 138.159 135.22 138.159ZM107.284 66.992C107.188 66.992 107.092 66.992 106.964 67.024C106.612 67.12 106.324 67.376 106.132 67.792C104.66 70.704 107.54 79.9839 108.788 83.3119C108.884 83.5359 108.788 83.7919 108.564 83.8879C103.668 86.6079 96.9481 91.2798 97.3641 93.1358C97.6521 94.4798 103.7 104.688 111.124 115.536C119.956 128.432 126.58 136.175 129.332 136.751C135.476 138.031 152.948 135.984 156.116 135.6L153.044 117.04C150.484 117.168 137.78 117.616 133.652 115.664C122.676 110.512 121.268 93.6798 120.372 82.5759C120.052 78.7679 119.668 74.0319 118.836 73.9359C118.324 73.8719 117.844 73.9999 117.428 74.3519C115.54 75.8879 114.836 81.1039 114.74 82.9599C114.74 83.2159 114.548 83.4079 114.292 83.4079C114.036 83.4079 113.844 83.2479 113.78 83.0239C113.108 79.2159 110.74 68.944 107.956 67.248C107.732 67.056 107.508 66.992 107.284 66.992Z" fill="#0B0F19"/>
<path d="M109.779 95.3749L113.491 93.4549C113.491 93.4549 109.651 81.423 105.747 83.247C102.803 84.623 109.779 95.3749 109.779 95.3749Z" fill="white"/>
<path d="M109.779 95.8546C109.619 95.8546 109.459 95.7906 109.363 95.6306C108.787 94.7346 103.763 86.8627 104.627 83.8867C104.787 83.3747 105.075 82.9907 105.523 82.7987C106.195 82.4787 106.899 82.4787 107.603 82.7987C111.027 84.3027 113.811 92.9106 113.907 93.2946C113.971 93.5186 113.875 93.7746 113.683 93.8706L109.971 95.7906C109.939 95.8546 109.843 95.8546 109.779 95.8546ZM106.547 83.5347C106.323 83.5347 106.131 83.5667 105.939 83.6627C105.811 83.7267 105.651 83.8227 105.555 84.1427C104.947 86.2227 108.339 92.1747 109.939 94.7346L112.883 93.1986C111.987 90.5747 109.587 84.7187 107.219 83.6627C106.995 83.5987 106.771 83.5347 106.547 83.5347Z" fill="#0B0F19"/>
<path d="M105.171 97.9063L109.011 95.8583C109.011 95.8583 104.819 83.5704 101.587 85.2664C98.0355 87.0904 105.171 97.9063 105.171 97.9063Z" fill="white"/>
<path d="M105.172 98.3828C105.012 98.3828 104.852 98.3188 104.756 98.1588C104.532 97.8068 99.284 89.8388 100.212 86.3188C100.404 85.6468 100.756 85.1349 101.332 84.8469C101.844 84.5909 102.388 84.5589 102.964 84.7828C104.308 85.3268 105.812 87.3428 107.444 90.7988C108.628 93.2948 109.428 95.6948 109.46 95.7268C109.524 95.9508 109.428 96.2068 109.236 96.3028L105.396 98.3508C105.3 98.3508 105.236 98.3828 105.172 98.3828ZM102.196 85.5828C102.068 85.5828 101.908 85.6149 101.78 85.6788C101.46 85.8388 101.236 86.1268 101.14 86.5428C100.5 89.0068 103.732 94.7988 105.332 97.2628L108.436 95.6308C107.444 92.8148 104.82 86.5428 102.644 85.6788C102.484 85.6149 102.324 85.5828 102.196 85.5828Z" fill="#0B0F19"/>
<path d="M100.727 100.593L104.247 98.2254C104.247 98.2254 100.055 85.9375 96.8226 87.6335C93.2707 89.4895 100.727 100.593 100.727 100.593Z" fill="white"/>
<path d="M100.725 101.07C100.565 101.07 100.405 101.006 100.341 100.846C100.341 100.814 98.9007 98.7018 97.5888 96.1739C95.7968 92.7179 95.0928 90.1899 95.4768 88.6539C95.6368 87.9819 96.0208 87.5019 96.5968 87.2139C97.1088 86.9579 97.6528 86.9259 98.2287 87.1499C99.5727 87.6939 101.077 89.7099 102.709 93.1659C103.893 95.6619 104.693 98.0618 104.725 98.0938C104.789 98.2858 104.725 98.5418 104.533 98.6378L101.013 101.006C100.917 101.038 100.821 101.07 100.725 101.07ZM97.4608 87.9819C97.3328 87.9819 97.1728 88.0139 97.0448 88.0779C96.7248 88.2379 96.5328 88.5259 96.4368 88.9099C95.7968 91.3739 99.2207 97.3579 100.885 99.9178L103.701 98.0298C102.709 95.2459 100.085 88.9099 97.9088 88.0459C97.7488 88.0139 97.5888 87.9819 97.4608 87.9819Z" fill="#0B0F19"/>
<path d="M116.882 99.4725C116.85 99.4725 116.818 99.4725 116.786 99.4725C113.714 98.8965 111.282 94.9605 111.186 94.7685C111.058 94.5445 111.122 94.2565 111.346 94.0965C111.57 93.9685 111.858 94.0325 112.018 94.2565C112.05 94.2885 114.322 98.0005 116.978 98.5125C117.234 98.5765 117.426 98.8005 117.362 99.0565C117.33 99.3125 117.106 99.4725 116.882 99.4725Z" fill="#0B0F19"/>
<path d="M214.355 138.157C214.355 138.157 228.563 158.349 227.603 163.949C226.707 169.261 190.291 187.885 190.291 187.885L189.267 169.325L204.179 161.133L196.787 144.973L214.355 138.157Z" fill="white"/>
<path d="M190.291 188.366C190.195 188.366 190.131 188.334 190.067 188.302C189.939 188.206 189.843 188.078 189.811 187.918L188.787 169.359C188.787 169.167 188.883 169.007 189.043 168.911L203.571 160.943L196.371 145.199C196.307 145.071 196.307 144.943 196.371 144.815C196.435 144.687 196.531 144.591 196.627 144.559L214.163 137.711C214.355 137.615 214.611 137.711 214.739 137.871C214.771 137.935 218.323 142.991 221.747 148.687C226.355 156.431 228.499 161.583 228.083 164.015C227.155 169.455 194.259 186.414 190.515 188.334C190.451 188.366 190.355 188.366 190.291 188.366ZM189.747 169.615L190.707 187.118C205.235 179.663 226.483 167.535 227.091 163.855C227.347 162.351 226.483 158.575 220.883 149.167C217.971 144.303 214.963 139.887 214.131 138.703L197.395 145.231L204.563 160.911C204.659 161.135 204.563 161.423 204.371 161.519L189.747 169.615Z" fill="#0B0F19"/>
<path d="M183.156 115.217L185.684 108.913C185.684 108.913 180.5 105.137 183.156 99.6971C185.652 98.0971 187.668 99.761 188.212 100.433C188.788 101.073 190.548 104.049 192.052 104.049C193.588 104.049 198.228 103.793 198.164 105.809C198.1 107.825 196.724 108.369 195.284 107.569C193.748 108.945 191.924 109.905 190.804 109.265C190.548 111.441 190.836 116.337 190.836 116.337C190.836 116.337 185.204 116.913 183.156 115.217Z" fill="white"/>
<path d="M188.627 116.913C186.739 116.913 184.147 116.689 182.835 115.601C182.675 115.473 182.611 115.249 182.707 115.057L185.107 109.073C184.019 108.113 180.307 104.433 182.739 99.4731C182.771 99.4091 182.835 99.3131 182.899 99.2811C185.427 97.6811 187.667 99.0251 188.595 100.081C188.723 100.241 188.883 100.465 189.107 100.753C189.747 101.649 191.123 103.537 192.083 103.537C192.211 103.537 192.371 103.537 192.531 103.537C194.739 103.505 197.171 103.569 198.195 104.625C198.515 104.945 198.675 105.361 198.643 105.809C198.611 106.897 198.195 107.729 197.491 108.145C196.883 108.497 196.115 108.465 195.347 108.145C193.811 109.457 192.307 110.097 191.219 109.905C191.091 112.209 191.283 116.273 191.283 116.305C191.283 116.561 191.123 116.785 190.867 116.817C190.771 116.817 189.843 116.913 188.627 116.913ZM183.731 115.057C185.299 116.017 188.627 116.017 190.291 115.889C190.227 114.609 190.099 110.993 190.291 109.201C190.323 109.041 190.419 108.913 190.547 108.817C190.675 108.753 190.867 108.753 190.995 108.817C191.763 109.265 193.363 108.593 194.931 107.185C195.091 107.057 195.315 107.025 195.475 107.121C196.051 107.441 196.595 107.505 196.979 107.281C197.395 107.057 197.619 106.513 197.651 105.745C197.651 105.553 197.587 105.393 197.459 105.265C196.627 104.433 193.715 104.465 192.499 104.465C192.339 104.465 192.179 104.465 192.051 104.465C190.579 104.465 189.139 102.481 188.275 101.297C188.083 101.041 187.923 100.817 187.827 100.689C187.635 100.465 185.843 98.5451 183.507 99.9851C181.203 104.945 185.907 108.465 185.939 108.497C186.131 108.625 186.195 108.849 186.099 109.073L183.731 115.057Z" fill="#0B0F19"/>
<path d="M187.122 194.345L114.771 199.529C112.659 199.689 110.803 198.089 110.675 195.977L107.603 153.065C107.443 150.953 109.043 149.097 111.155 148.969L183.506 143.785C185.618 143.625 187.474 145.225 187.602 147.337L190.674 190.249C190.834 192.329 189.234 194.185 187.122 194.345Z" fill="url(#paint1_linear_4_886)"/>
<path d="M114.484 200.011C112.244 200.011 110.324 198.283 110.164 196.011L107.092 153.099C106.932 150.732 108.724 148.652 111.092 148.492L183.443 143.308C185.811 143.148 187.891 144.94 188.051 147.308L191.123 190.219C191.283 192.587 189.491 194.667 187.123 194.827L114.74 200.011C114.676 200.011 114.58 200.011 114.484 200.011ZM183.763 144.236C183.667 144.236 183.603 144.236 183.507 144.236L111.156 149.42C109.3 149.548 107.924 151.147 108.052 153.003L111.124 195.915C111.252 197.771 112.884 199.147 114.708 199.019L187.059 193.835C188.915 193.707 190.291 192.107 190.163 190.251L187.091 147.34C186.995 145.58 185.523 144.236 183.763 144.236Z" fill="#0B0F19"/>
<path d="M148.723 182.764C152.755 182.764 156.051 179.468 156.051 175.436C156.051 171.404 152.755 168.108 148.723 168.108C144.691 168.108 141.395 171.404 141.395 175.436C141.395 179.5 144.659 182.764 148.723 182.764Z" fill="white"/>
<path d="M148.723 183.248C144.403 183.248 140.915 179.76 140.915 175.44C140.915 171.12 144.403 167.632 148.723 167.632C153.043 167.632 156.53 171.12 156.53 175.44C156.53 179.76 153.011 183.248 148.723 183.248ZM148.723 168.592C144.947 168.592 141.875 171.664 141.875 175.44C141.875 179.216 144.947 182.288 148.723 182.288C152.499 182.288 155.57 179.216 155.57 175.44C155.57 171.664 152.499 168.592 148.723 168.592Z" fill="#0B0F19"/>
<path d="M139.261 197.634L139.113 197.918L160.987 209.329L161.135 209.045L139.261 197.634Z" fill="white"/>
<path d="M209.652 242.578L219.476 250.066L191.508 269.074L176.756 260.082C176.788 260.082 203.7 246.578 209.652 242.578Z" fill="#0B0F19"/>
<path d="M191.539 269.55C191.443 269.55 191.379 269.518 191.283 269.486L176.531 260.495C176.371 260.399 176.307 260.239 176.307 260.079C176.307 259.919 176.403 259.759 176.563 259.663C176.819 259.535 203.507 246.127 209.395 242.191C209.555 242.063 209.779 242.095 209.939 242.223L219.763 249.711C219.891 249.807 219.955 249.967 219.955 250.095C219.955 250.255 219.859 250.383 219.731 250.479L191.763 269.486C191.731 269.518 191.635 269.55 191.539 269.55ZM177.779 260.111L191.539 268.494L218.675 250.031L209.651 243.151C203.763 246.991 182.227 257.871 177.779 260.111Z" fill="#0B0F19"/>
<path d="M198.131 278.35C198.067 278.35 198.003 278.35 197.939 278.318L186.163 273.038C186.003 272.974 185.907 272.814 185.875 272.654C185.875 272.494 185.939 272.302 186.099 272.206L219.25 249.678C219.41 249.55 219.634 249.582 219.794 249.678L228.882 256.302C229.01 256.398 229.074 256.526 229.074 256.686C229.074 256.846 229.01 256.974 228.882 257.07L198.451 278.254C198.323 278.318 198.227 278.35 198.131 278.35ZM187.347 272.494L198.099 277.326L227.762 256.686L219.474 250.67L187.347 272.494Z" fill="#0B0F19"/>
<path d="M225.904 258.57L234.256 265.674L202.384 299.274L208.176 280.01L203.76 273.962L225.904 258.57Z" fill="white"/>
<path d="M202.384 299.754C202.288 299.754 202.224 299.722 202.128 299.69C201.936 299.594 201.84 299.338 201.904 299.146L207.632 280.106L203.376 274.25C203.312 274.154 203.28 274.026 203.28 273.898C203.312 273.77 203.376 273.642 203.472 273.578L225.616 258.186C225.808 258.058 226.032 258.058 226.192 258.218L234.544 265.322C234.64 265.418 234.704 265.546 234.704 265.674C234.704 265.802 234.672 265.93 234.576 266.026L202.704 299.626C202.64 299.69 202.512 299.754 202.384 299.754ZM204.432 274.09L208.56 279.754C208.656 279.882 208.688 280.042 208.624 280.17L203.408 297.482L233.552 265.706L225.872 259.146L204.432 274.09Z" fill="#0B0F19"/>
<path d="M149.139 273.325C148.979 273.325 148.851 273.261 148.755 273.133L127.219 244.077C127.123 243.981 127.123 243.821 127.123 243.693C127.155 243.565 127.219 243.437 127.347 243.373L143.571 233.709C143.795 233.581 144.083 233.645 144.211 233.869L167.411 268.845C167.507 268.973 167.507 269.133 167.443 269.293C167.379 269.453 167.251 269.549 167.091 269.581L149.203 273.357C149.203 273.325 149.171 273.325 149.139 273.325ZM128.307 243.917L149.331 272.301L166.227 268.749L143.667 234.765L128.307 243.917Z" fill="#0B0F19"/>
<path d="M130.036 247.087L116.884 255.726L136.788 294.99L139.028 271.022L144.531 266.638L130.036 247.087Z" fill="white"/>
<path d="M136.787 295.468C136.595 295.468 136.435 295.372 136.371 295.212L116.468 255.948C116.372 255.724 116.436 255.468 116.628 255.34L129.779 246.7C130.003 246.572 130.291 246.604 130.419 246.828L144.915 266.38C145.075 266.572 145.043 266.892 144.819 267.052L139.475 271.308L137.235 295.052C137.203 295.276 137.043 295.436 136.851 295.468C136.851 295.468 136.819 295.468 136.787 295.468ZM117.524 255.916L136.467 293.292L138.547 270.988C138.547 270.86 138.611 270.732 138.739 270.668L143.859 266.572L129.907 247.756L117.524 255.916Z" fill="#0B0F19"/>
<path d="M166.388 255.186L166.228 254.898C166.868 254.578 231.38 221.714 231.38 214.066H231.7C231.732 221.906 169.076 253.81 166.388 255.186Z" fill="white"/>
<path d="M19.5373 171.196C29.9357 171.196 38.3735 162.758 38.3735 152.36C38.3735 141.961 29.9357 133.523 19.5373 133.523C9.13893 133.523 0.701172 141.961 0.701172 152.36C0.701172 162.758 9.13893 171.196 19.5373 171.196Z" fill="white"/>
<path d="M19.5371 171.723C8.85862 171.723 0.175781 163.04 0.175781 152.361C0.175781 141.683 8.85862 133 19.5371 133C30.2156 133 38.8984 141.683 38.8984 152.361C38.8984 163.04 30.2156 171.723 19.5371 171.723ZM19.5371 134.05C9.45381 134.05 1.22612 142.278 1.22612 152.361C1.22612 162.48 9.45381 170.672 19.5371 170.672C29.6204 170.672 37.8481 162.445 37.8481 152.361C37.8481 142.278 29.6554 134.05 19.5371 134.05Z" fill="#565973"/>
</g>
<defs>
<linearGradient id="paint0_linear_4_886" x1="64.9121" y1="5.20224" x2="74.2252" y2="5.20224" gradientUnits="userSpaceOnUse">
<stop stop-color="#6366F1"/>
<stop offset="0.5" stop-color="#8B5CF6"/>
<stop offset="1" stop-color="#D946EF"/>
</linearGradient>
<linearGradient id="paint1_linear_4_886" x1="107.592" y1="171.79" x2="190.685" y2="171.79" gradientUnits="userSpaceOnUse">
<stop stop-color="#6366F1"/>
<stop offset="0.5" stop-color="#8B5CF6"/>
<stop offset="1" stop-color="#D946EF"/>
</linearGradient>
<clipPath id="clip0_4_886">
<rect width="306" height="300" fill="white"/>
</clipPath>
</defs>
</svg>
