<svg width="150" height="15" viewBox="0 0 150 15" fill="none" xmlns="http://www.w3.org/2000/svg">
<path d="M74.693 14.374H69.573V0.685986H74.693V14.374ZM70.073 13.874H74.193V1.18599H70.073V13.874ZM81.817 14.374H76.8V0.685986H87.282C88.7836 0.564386 90.279 0.985956 91.496 1.87399C92.0199 2.3533 92.426 2.94718 92.6825 3.60928C92.9391 4.27139 93.0392 4.98382 92.975 5.69099C93.0498 6.91296 92.6609 8.11819 91.886 9.06599C90.969 10.118 89.443 10.66 87.351 10.679C86.824 10.693 82.875 10.679 81.82 10.679L81.817 14.374ZM77.297 13.874H81.317V10.174H81.568C81.619 10.174 86.746 10.19 87.339 10.174C89.288 10.157 90.689 9.67399 91.508 8.73099C92.1978 7.87344 92.5404 6.78814 92.468 5.68999C92.5295 5.05636 92.4442 4.41708 92.2188 3.82173C91.9933 3.22638 91.6338 2.69096 91.168 2.25699C90.0396 1.44709 88.659 1.06692 87.275 1.18499H77.3L77.297 13.874ZM86.22 7.60399H81.283V3.87799H86.253C86.6053 3.82931 86.9642 3.87043 87.2963 3.99752C87.6285 4.12462 87.9232 4.33357 88.153 4.60499C88.3615 4.95193 88.4598 5.35397 88.435 5.75799C88.4537 6.13309 88.3727 6.50646 88.2 6.83999C87.9629 7.12587 87.6562 7.34594 87.3094 7.47904C86.9627 7.61214 86.5875 7.65379 86.22 7.59999V7.60399ZM81.783 7.10399H86.22C87.04 7.10399 87.548 6.93299 87.773 6.58099C87.8969 6.32514 87.953 6.04175 87.936 5.75799C87.9579 5.46005 87.8933 5.16213 87.75 4.89999L87.744 4.89099C87.506 4.54099 87.033 4.37799 86.253 4.37799H81.783V7.10399ZM102.1 14.576C97.61 14.576 94.93 13.461 93.909 11.168C93.7419 10.7251 93.6285 10.2638 93.571 9.79399L93.527 9.50599H98.869L98.904 9.71599C98.9451 9.92918 99.036 10.1299 99.168 10.302C99.379 10.557 100.083 10.985 102.419 10.985C105.227 10.985 105.227 10.492 105.227 10.227C105.227 9.77999 104.902 9.62699 102.612 9.38299L102.177 9.34199C101.315 9.26099 100.225 9.15799 99.727 9.11499C95.527 8.73499 93.652 7.42999 93.652 4.88499C93.652 2.21199 96.843 0.484985 101.782 0.484985C105.811 0.484985 108.407 1.54699 109.496 3.64399C109.754 4.13177 109.928 4.65998 110.009 5.20599L110.044 5.48699H104.696L104.674 5.26099C104.653 5.08437 104.578 4.91868 104.458 4.78699C104.258 4.51899 103.626 4.07599 101.664 4.07599C99.255 4.07599 98.923 4.38399 98.923 4.71599C98.923 5.15899 99.684 5.31599 102.123 5.57699C103.14 5.65999 104.775 5.82799 105.335 5.89599C108.856 6.27799 110.427 7.55099 110.427 10.025C110.428 12.1 108.983 14.576 102.1 14.576ZM94.111 10.006C94.1611 10.3358 94.2473 10.659 94.368 10.97C95.298 13.059 97.828 14.076 102.1 14.076C105.672 14.076 109.931 13.376 109.931 10.025C109.931 7.83199 108.541 6.74599 105.282 6.39299C104.722 6.32499 103.097 6.15799 102.082 6.07399C99.482 5.79199 98.425 5.64199 98.425 4.71599C98.425 3.75799 99.564 3.57599 101.666 3.57599C103.327 3.57599 104.4 3.87599 104.855 4.48099C104.979 4.63004 105.073 4.80194 105.131 4.98699H109.465C109.378 4.60023 109.24 4.22668 109.055 3.87599C108.055 1.95699 105.612 0.984985 101.784 0.984985C97.149 0.984985 94.154 2.51599 94.154 4.88499C94.154 7.14499 95.835 8.26099 99.773 8.61699C100.273 8.65999 101.362 8.76299 102.226 8.84499L102.664 8.88599C104.791 9.10999 105.729 9.24999 105.729 10.227C105.729 11.279 104.516 11.485 102.421 11.485C100.483 11.485 99.259 11.194 98.786 10.621C98.6402 10.4383 98.5302 10.2296 98.462 10.006H94.111ZM119.927 14.559C114.707 14.559 111.827 12.448 111.827 8.61399V0.685986H116.879V8.61399C116.879 9.92899 118.056 10.683 120.107 10.683C122.067 10.683 123.284 9.89599 123.284 8.63099V0.685986H128.284V9.03399C128.289 12.545 125.24 14.559 119.924 14.559H119.927ZM112.327 1.18599V8.61399C112.327 13.352 117.085 14.059 119.927 14.059C122.865 14.059 127.792 13.406 127.792 9.03399V1.18599H123.792V8.63099C123.792 10.181 122.348 11.183 120.115 11.183C117.781 11.183 116.387 10.223 116.387 8.61399V1.18599H112.327ZM149.472 14.374H144.704V8.19399L142 14.374H137.841L135.165 8.20599V14.374H130.38V0.685986H136.674L139.944 8.23299L143.372 0.685986H149.478L149.472 14.374ZM145.204 13.874H148.972V1.18599H143.69L139.928 9.46499L136.342 1.18599H130.876V13.874H134.661V5.79999L138.161 13.877H141.661L145.198 5.81199L145.204 13.874ZM5.054 0.935986H0.5V14.124H13.084V10.613H5.054V0.935986ZM22.276 0.635985C16.463 0.635985 13.406 3.39099 13.406 7.43599C13.406 12.006 16.615 14.324 22.276 14.324C28.508 14.324 31.129 11.636 31.129 7.43599C31.129 3.17099 28.172 0.633986 22.276 0.633986V0.635985ZM22.259 4.06299C22.6547 4.06113 23.0502 4.08417 23.443 4.13199L18.352 9.22299C18.1111 8.67809 17.9936 8.08659 18.008 7.49099C18.008 5.42199 19.05 4.06099 22.259 4.06099V4.06299ZM22.276 10.951C21.8947 10.9527 21.5137 10.9313 21.135 10.887L26.235 5.78699C26.4669 6.32289 26.5779 6.90332 26.56 7.48699C26.56 9.49999 25.6 10.949 22.276 10.949V10.951ZM40.152 9.15099H44.839C44.77 9.47629 44.6262 9.78099 44.419 10.041C43.4473 10.8326 42.2072 11.2178 40.958 11.116C40.3292 11.1833 39.6934 11.1146 39.0935 10.9146C38.4936 10.7147 37.9436 10.3881 37.481 9.95699C37.0071 9.26189 36.782 8.42709 36.842 7.58799C36.7653 6.70873 37.0101 5.83151 37.531 5.11899C38.186 4.37899 39.295 4.05999 40.925 4.05999C41.9621 3.97412 42.9979 4.24047 43.865 4.81599C44.1383 5.03307 44.3426 5.3249 44.453 5.65599H48.8C48.7684 5.11046 48.6372 4.57532 48.413 4.07699C47.372 1.95999 44.952 0.699986 40.837 0.699986C37.258 0.699986 34.856 1.79199 33.529 3.43899C32.6526 4.62835 32.2027 6.07843 32.252 7.55499C32.1953 9.06499 32.6336 10.5521 33.5 11.79C34.811 13.49 37.146 14.326 39.952 14.326C41.8175 14.4561 43.6703 13.9336 45.193 12.848L45.311 14.124H48.922V6.31199H40.152V9.15099ZM59.171 0.632985C53.359 0.632985 50.301 3.38799 50.301 7.43299C50.301 12.003 53.509 14.321 59.171 14.321C65.404 14.321 68.025 11.633 68.025 7.43299C68.025 3.17099 65.068 0.633986 59.171 0.633986V0.632985ZM59.155 4.05999C59.5403 4.05885 59.9253 4.08089 60.308 4.12599L55.237 9.19999C55.0036 8.66109 54.89 8.07809 54.904 7.49099C54.9 5.42199 55.946 4.06099 59.155 4.06099V4.05999ZM59.171 10.948C58.7796 10.9497 58.3885 10.9269 58 10.88L63.117 5.76199C63.3577 6.30502 63.4729 6.89531 63.454 7.48899C63.456 9.49999 62.5 10.949 59.171 10.949V10.948Z" fill="#B4B7C9"/>
</svg>
