<svg width="158" height="180" viewBox="0 0 158 180" fill="none" xmlns="http://www.w3.org/2000/svg">
<g opacity="0.1">
<path d="M147.5 180C66.1668 180 0 113.833 0 32.5001C0 -48.8332 66.1668 -115 147.5 -115C228.833 -115 295 -48.8332 295 32.5001C294.985 113.833 228.818 180 147.5 180ZM147.5 -110.043C68.9017 -110.043 4.95708 -46.0983 4.95708 32.5001C4.95708 111.098 68.9017 175.043 147.5 175.043C226.098 175.043 290.043 111.098 290.043 32.5001C290.043 -46.0983 226.098 -110.043 147.5 -110.043Z" fill="white"/>
<path d="M147.499 163.904C75.0542 163.904 16.1133 104.963 16.1133 32.5185C16.1133 -39.9262 75.0542 -98.8672 147.499 -98.8672C219.944 -98.8672 278.885 -39.9262 278.885 32.5185C278.869 104.963 219.928 163.904 147.499 163.904ZM147.499 -93.9101C77.7892 -93.9101 21.0704 -37.1913 21.0704 32.5185C21.0704 102.228 77.7892 158.947 147.499 158.947C217.209 158.947 273.928 102.228 273.928 32.5185C273.928 -37.1913 217.209 -93.9101 147.499 -93.9101Z" fill="white"/>
<path d="M147.5 147.778C83.9442 147.778 32.2291 96.0628 32.2291 32.5066C32.2291 -31.0496 83.9442 -82.7647 147.5 -82.7647C211.057 -82.7647 262.772 -31.0496 262.772 32.5066C262.756 96.0628 211.057 147.778 147.5 147.778ZM147.5 -77.8077C86.6636 -77.8077 37.1862 -28.3146 37.1862 32.5066C37.1862 93.3434 86.6792 142.821 147.5 142.821C208.322 142.821 257.815 93.3279 257.815 32.5066C257.815 -28.3146 208.322 -77.8077 147.5 -77.8077Z" fill="white"/>
</g>
</svg>
