<svg width="219" height="248" viewBox="0 0 219 248" fill="none" xmlns="http://www.w3.org/2000/svg">
<g opacity="0.15">
<path d="M171.212 218.311C174.468 215.657 177.871 212.871 181.018 210.296C182.857 208.767 184.528 207.365 185.832 206.252C186.598 205.794 187.55 204.995 188.298 204.444C187.865 204.735 187.943 204.539 188.252 204.299C190.467 202.529 188.331 204.103 190.522 202.26C191.696 201.219 194.568 198.914 197.485 196.601C201.614 193.345 205.801 190.04 207.785 188.465C207.36 188.19 207.095 188.049 206.896 187.904C205.522 187.203 204.176 186.401 202.846 185.626C202.17 185.235 201.521 184.829 200.866 184.444C200.6 184.303 200.34 184.141 200.095 184.004C199.905 183.906 199.734 183.813 199.564 183.721L199.726 183.767C198.268 182.977 190.33 178.007 188.648 177.086L188.867 177.237C187.357 176.475 187.681 176.415 186.578 175.683C186.61 175.954 185.319 175.343 184.828 175.071L184.88 175.042C184.159 174.66 182.441 173.861 181.255 173.192L181.365 173.114C180.32 172.639 178.501 171.504 177.811 171.088C176.238 170.089 173.872 168.425 171.64 167.281L170.434 166.147L170.218 166.063L165.191 163.833C164.039 163.349 165.381 169.116 165.222 169.136C165.185 168.732 165.128 168.322 165.157 168.221C165.102 168.336 165.162 169.119 165.259 169.541L165.441 169.593C165.622 170.564 165.372 169.836 165.498 170.769C165.368 170.841 165.224 169.968 165.112 169.214C165.175 169.91 165.151 170.604 165.341 170.855C165.37 171.52 165.16 170.803 165.199 171.58C165.302 172.135 165.538 172.837 165.526 173.49L165.506 173.484C165.538 175.047 166.011 175.839 166.038 177.269L165.972 177.119C165.96 177.618 166.181 178.601 166.2 179.525C166.189 179.259 166.279 179.022 166.362 179.571C166.392 180.608 166.582 181.319 166.555 182.099L166.785 182.822C167.191 186.439 169.117 200.688 169.583 204.322L169.537 204.178C169.885 207.691 170.52 212.796 171.212 218.311Z" fill="white"/>
<path d="M127.926 216.363C126.527 212.395 125.068 208.257 123.721 204.413C122.92 202.171 122.155 200.113 121.541 198.515C121.378 197.637 120.943 196.484 120.673 195.596C120.788 196.111 120.635 195.958 120.499 195.59C119.587 192.9 120.346 195.437 119.368 192.75C118.8 191.296 117.589 187.819 116.415 184.288C114.76 179.306 113.062 174.246 112.262 171.85C111.869 172.153 111.637 172.349 111.438 172.511C110.304 173.564 109.122 174.559 107.898 175.542C107.3 176.027 106.696 176.532 106.123 177.002C105.892 177.198 105.66 177.394 105.435 177.57C105.287 177.703 105.14 177.835 104.992 177.968L105.073 177.838C103.836 178.949 96.4654 184.731 95.008 185.997L95.2219 185.862C93.9928 187.019 94.0394 186.704 92.9812 187.494C93.2498 187.549 92.2144 188.565 91.8037 188.928L91.7952 188.882C91.1792 189.427 89.8516 190.774 88.8106 191.657L88.7588 191.533C87.9547 192.352 86.2661 193.661 85.6502 194.206C84.1611 195.354 81.8019 197.018 79.9568 198.72L78.4712 199.475L78.3121 199.648L74.4999 203.63C73.6467 204.544 79.5269 205.248 79.5065 205.395C79.1167 205.305 78.7268 205.215 78.6114 205.16C78.695 205.249 79.4631 205.47 79.8848 205.525L79.9918 205.381C80.9506 205.547 80.191 205.526 81.118 205.726C81.138 205.885 80.2716 205.702 79.5266 205.554C80.1994 205.725 80.849 205.977 81.1582 205.891C81.779 206.091 81.0511 206.035 81.7932 206.27C82.3362 206.36 83.0958 206.382 83.705 206.622L83.679 206.636C85.1776 207.132 86.0559 206.969 87.413 207.424L87.2541 207.444C87.7218 207.644 88.7182 207.755 89.5959 208.051C89.3592 207.961 89.1601 207.816 89.677 207.921C90.6761 208.251 91.3981 208.327 92.1083 208.597L92.842 208.632C96.3852 209.475 110.452 212.528 114.012 213.31L113.865 213.289C117.469 213.996 122.503 215.134 127.926 216.363Z" fill="white"/>
<path d="M16.0272 245.716C18.0098 244.906 20.1109 244.065 22.0414 243.285C23.1599 242.819 24.2003 242.395 25.0038 242.035C25.4517 241.923 26.0269 241.672 26.4863 241.52C26.2234 241.598 26.2928 241.508 26.4893 241.433C27.8447 240.903 26.5587 241.344 27.8998 240.788C28.6252 240.471 30.3794 239.771 32.1539 239.078C34.6624 238.113 37.197 237.134 38.4021 236.671C38.2406 236.471 38.1425 236.355 38.0589 236.266C37.4963 235.71 36.9655 235.12 36.4348 234.53C36.1694 234.236 35.904 233.941 35.6386 233.646C35.5406 233.53 35.4425 233.414 35.3184 233.313C35.2492 233.249 35.1655 233.16 35.0962 233.096L35.1713 233.139C34.5799 232.532 31.4648 228.903 30.7695 228.2L30.8473 228.31C30.2299 227.717 30.383 227.717 29.9619 227.203C29.9415 227.35 29.3875 226.841 29.2058 226.636L29.2319 226.621C28.926 226.315 28.2134 225.672 27.7461 225.166L27.8183 225.143C27.3826 224.756 26.6818 223.92 26.3759 223.613C25.7529 222.888 24.8647 221.714 23.9415 220.814L23.5177 220.08L23.4283 220.011L21.3133 218.156C20.8227 217.731 20.611 220.755 20.5243 220.752C20.5621 220.544 20.5999 220.336 20.6375 220.281C20.5797 220.33 20.4897 220.72 20.4923 220.94L20.5674 220.983C20.5148 221.471 20.4921 221.093 20.4193 221.575C20.347 221.598 20.4141 221.136 20.4781 220.761C20.3997 221.11 20.2808 221.448 20.347 221.598C20.2542 221.922 20.272 221.555 20.1617 221.939C20.1267 222.213 20.1234 222.606 20.0305 222.929L20.0103 222.924C19.7898 223.692 19.9019 224.14 19.6988 224.847L19.6816 224.755C19.5918 224.991 19.5535 225.506 19.4259 225.95C19.4607 225.829 19.536 225.719 19.5009 225.994C19.3501 226.519 19.3323 226.886 19.2076 227.244L19.2101 227.617C18.8612 229.442 17.6359 236.682 17.3216 238.539L17.3189 238.473C17.0046 240.329 16.5478 242.911 16.0272 245.716Z" fill="white"/>
<path d="M191.066 51.1851C190.309 49.1737 189.515 47.064 188.78 45.1249C188.34 43.992 187.943 42.9371 187.603 42.1395C187.511 41.6974 187.286 41.1078 187.134 40.6483C187.191 40.9055 187.122 40.8419 187.047 40.6454C186.564 39.2813 186.958 40.5759 186.434 39.2003C186.123 38.4546 185.469 36.6918 184.821 34.9087C183.909 32.3714 183.002 29.8138 182.565 28.5943C182.365 28.7558 182.25 28.8539 182.14 28.9317C181.564 29.4885 180.98 29.999 180.37 30.524C180.075 30.7894 179.76 31.049 179.471 31.2941C179.355 31.3922 179.239 31.4903 179.124 31.5883C179.06 31.6576 178.976 31.721 178.907 31.8105L178.95 31.7354C178.323 32.321 174.63 35.3523 173.913 36.0216L174.023 35.9437C173.409 36.5553 173.436 36.3878 172.901 36.8031C173.048 36.8235 172.525 37.3514 172.313 37.5534L172.299 37.5274C171.998 37.813 171.336 38.5198 170.81 38.9814L170.787 38.9091C170.379 39.339 169.549 40.0197 169.228 40.2995C168.488 40.8965 167.294 41.7789 166.38 42.6761L165.631 43.0738L165.561 43.1632L163.652 45.2406C163.227 45.7312 166.234 46.0036 166.231 46.0902C166.023 46.0524 165.821 45.9944 165.76 45.977C165.809 46.0348 166.199 46.1249 166.413 46.1425L166.456 46.0674C166.938 46.1402 166.566 46.1426 167.042 46.2357C167.045 46.3021 166.603 46.2409 166.234 46.1567C166.583 46.2351 166.921 46.3539 167.065 46.3079C167.389 46.4008 167.022 46.383 167.406 46.4932C167.68 46.5282 168.073 46.5316 168.391 46.6447L168.385 46.6649C169.147 46.9056 169.595 46.7935 170.297 47.0168L170.21 47.0138C170.447 47.1036 170.955 47.1621 171.4 47.2897C171.279 47.2549 171.169 47.1796 171.443 47.2146C171.969 47.3655 172.33 47.4035 172.688 47.5282L173.061 47.5258C174.874 47.9151 182.088 49.3078 183.928 49.6827L183.861 49.6855C185.715 50.0865 188.3 50.6097 191.066 51.1851Z" fill="white"/>
<path d="M202.276 145.748C206.045 143.898 210.01 141.974 213.669 140.202C215.814 139.133 217.756 138.159 219.274 137.369C220.141 137.093 221.236 136.554 222.086 136.186C221.601 136.352 221.713 136.188 222.086 136.032C224.644 134.82 222.219 135.874 224.78 134.574C226.174 133.836 229.474 132.246 232.842 130.653C237.613 128.435 242.443 126.167 244.721 125.093C244.366 124.728 244.158 124.538 243.971 124.352C242.79 123.357 241.68 122.273 240.549 121.182C239.98 120.647 239.438 120.098 238.884 119.589C238.662 119.372 238.454 119.181 238.226 118.984C238.067 118.851 237.929 118.724 237.77 118.591L237.926 118.657C236.688 117.558 230.09 110.894 228.665 109.61L228.827 109.81C227.537 108.739 227.843 108.74 226.963 107.765C226.928 108.039 225.806 107.148 225.41 106.772L225.462 106.743C224.853 106.197 223.373 105.028 222.369 104.105L222.493 104.053C221.579 103.353 220.09 101.832 219.487 101.265C218.186 99.9287 216.27 97.7599 214.352 96.137L213.435 94.7579L213.236 94.6133L208.855 91.2772C207.845 90.5278 207.823 96.4725 207.676 96.4521C207.725 96.0506 207.775 95.6492 207.81 95.5279C207.72 95.6116 207.601 96.4087 207.591 96.8217L207.762 96.9144C207.723 97.8878 207.637 97.1193 207.538 98.0753C207.393 98.1214 207.449 97.2404 207.537 96.478C207.452 97.1538 207.255 97.841 207.388 98.1416C207.248 98.7798 207.217 98.0489 207.083 98.82C207.054 99.3804 207.125 100.123 206.965 100.755L206.945 100.749C206.637 102.28 206.893 103.141 206.6 104.545L206.58 104.386C206.44 104.871 206.436 105.876 206.247 106.763C206.297 106.514 206.427 106.289 206.377 106.844C206.168 107.878 206.184 108.582 205.99 109.336L206.041 110.073C205.615 113.692 204.196 128.009 203.81 131.639L203.804 131.506C203.43 135.096 202.881 140.211 202.276 145.748Z" fill="white"/>
<path d="M143.454 149.936C145.454 146.244 147.548 142.382 149.493 138.805C150.622 136.701 151.639 134.761 152.406 133.231C152.962 132.516 153.515 131.427 154.007 130.628C153.712 131.046 153.703 130.847 153.915 130.492C155.281 128.018 153.932 130.278 155.25 127.746C155.956 126.352 157.717 123.116 159.543 119.878C162.126 115.302 164.731 110.646 165.976 108.444C165.474 108.365 165.185 108.304 164.931 108.275C163.394 108.14 161.861 107.919 160.307 107.691C159.53 107.578 158.773 107.47 158.022 107.342C157.728 107.301 157.433 107.26 157.139 107.22C156.925 107.202 156.731 107.19 156.544 107.158L156.703 107.138C155.045 106.969 145.812 105.368 143.906 105.149L144.148 105.219C142.479 105.09 142.73 104.899 141.428 104.635C141.572 104.895 140.131 104.809 139.582 104.739L139.62 104.684C138.791 104.6 136.91 104.519 135.564 104.33L135.64 104.22C134.493 104.175 132.388 103.812 131.57 103.686C129.739 103.358 126.904 102.719 124.405 102.505L122.869 101.911L122.629 101.907L117.118 101.747C115.853 101.734 119.299 106.574 119.169 106.646C118.967 106.282 118.785 105.924 118.748 105.825C118.733 105.952 119.096 106.669 119.324 107.019L119.503 107.005C120.031 107.834 119.52 107.25 120.007 108.068C119.912 108.172 119.448 107.426 119.067 106.77C119.393 107.389 119.646 108.03 119.9 108.213C120.165 108.814 119.721 108.227 120.038 108.952C120.344 109.412 120.834 109.99 121.053 110.6L121.033 110.594C121.672 112.025 122.388 112.581 122.949 113.901L122.831 113.78C122.998 114.265 123.578 115.066 123.946 115.916C123.843 115.667 123.826 115.422 124.105 115.896C124.532 116.85 124.955 117.431 125.252 118.15L125.722 118.723C127.474 121.917 134.657 134.393 136.462 137.559L136.363 137.443C138.188 140.614 140.707 145.1 143.454 149.936Z" fill="white"/>
<path d="M205.624 290.38C207.143 286.462 208.754 282.374 210.238 278.577C211.096 276.351 211.861 274.295 212.432 272.687C212.878 271.896 213.315 270.753 213.692 269.898C213.452 270.354 213.423 270.149 213.574 269.777C214.634 267.15 213.551 269.552 214.557 266.887C215.067 265.414 216.42 261.996 217.825 258.548C219.816 253.672 221.824 248.735 222.797 246.411C222.298 246.399 221.997 246.378 221.737 246.369C220.189 246.428 218.644 246.4 217.078 246.366C216.292 246.36 215.533 246.338 214.773 246.317C214.467 246.317 214.181 246.322 213.875 246.322C213.675 246.33 213.476 246.339 213.277 246.347L213.441 246.307C211.792 246.337 202.416 245.92 200.507 245.941L200.761 245.97C199.074 246.055 199.311 245.838 198.003 245.747C198.178 245.973 196.731 246.061 196.179 246.077L196.197 246.017C195.359 246.039 193.502 246.184 192.124 246.182L192.179 246.066C191.032 246.175 188.897 246.065 188.071 246.047C186.197 245.946 183.323 245.668 180.824 245.76L179.21 245.363L178.964 245.38L173.495 245.91C172.25 246.056 176.269 250.426 176.139 250.498C175.905 250.168 175.672 249.838 175.614 249.734C175.619 249.867 176.066 250.521 176.346 250.842L176.531 250.807C177.169 251.559 176.594 251.044 177.159 251.819C177.078 251.949 176.53 251.266 176.072 250.653C176.476 251.229 176.801 251.847 177.093 251.975C177.436 252.533 176.908 252.009 177.329 252.677C177.686 253.108 178.24 253.617 178.558 254.189L178.531 254.204C179.327 255.548 180.118 255.994 180.856 257.234L180.732 257.133C180.971 257.595 181.64 258.312 182.113 259.104C181.983 258.87 181.94 258.639 182.278 259.064C182.828 259.966 183.316 260.478 183.69 261.154L184.244 261.664C186.372 264.615 195.07 276.083 197.244 279.026L197.141 278.93C199.231 281.784 202.308 285.927 205.624 290.38Z" fill="white"/>
</g>
</svg>
