<svg width="140" height="219" viewBox="0 0 140 219" fill="none" xmlns="http://www.w3.org/2000/svg">
<g opacity="0.2">
<path d="M41.4513 132.33C43.4266 130.72 45.4913 129.03 47.3999 127.467C48.5156 126.54 49.5296 125.689 50.3208 125.014C50.7856 124.736 51.3627 124.251 51.817 123.917C51.554 124.094 51.6014 123.975 51.7891 123.829C53.1329 122.755 51.8366 123.71 53.1663 122.592C53.8786 121.96 55.6205 120.562 57.3905 119.159C59.8955 117.184 62.4356 115.179 63.6389 114.223C63.3815 114.056 63.2205 113.97 63.0996 113.883C62.266 113.457 61.45 112.971 60.6427 112.5C60.2329 112.263 59.8389 112.017 59.4414 111.784C59.2803 111.698 59.1227 111.599 58.9739 111.517C58.8583 111.457 58.7549 111.401 58.6516 111.345L58.7497 111.373C57.8653 110.893 53.0499 107.878 52.0289 107.32L52.162 107.411C51.246 106.949 51.4423 106.912 50.7735 106.468C50.7925 106.633 50.0096 106.262 49.7119 106.097L49.7435 106.08C49.3057 105.848 48.2636 105.363 47.5438 104.957L47.6105 104.91C46.9765 104.622 45.8733 103.933 45.4548 103.68C44.5004 103.075 43.0647 102.065 41.7109 101.371L40.9793 100.683L40.8479 100.632L37.7986 99.2792C37.0997 98.9857 37.9137 102.485 37.8173 102.497C37.7949 102.251 37.7601 102.002 37.7777 101.941C37.7443 102.011 37.7805 102.486 37.8398 102.742L37.9502 102.774C38.0598 103.363 37.9079 102.921 37.9843 103.487C37.9054 103.531 37.8185 103.001 37.7507 102.544C37.7887 102.966 37.7742 103.387 37.8896 103.54C37.9067 103.943 37.7793 103.508 37.8032 103.979C37.8659 104.316 38.009 104.742 38.0015 105.138L37.9893 105.134C38.0091 106.082 38.2959 106.563 38.3124 107.43L38.2721 107.339C38.2648 107.642 38.399 108.238 38.4105 108.799C38.4037 108.638 38.4582 108.494 38.5086 108.827C38.5271 109.457 38.6422 109.888 38.6259 110.361L38.7655 110.799C39.0116 112.994 40.1801 121.638 40.463 123.843L40.4351 123.755C40.6462 125.887 41.0314 128.984 41.4513 132.33Z" fill="white"/>
<path d="M15.1909 131.148C14.3422 128.741 13.4569 126.23 12.6396 123.898C12.1542 122.538 11.6896 121.289 11.3175 120.32C11.2183 119.787 10.9546 119.087 10.7905 118.549C10.8602 118.861 10.7675 118.768 10.6854 118.546C10.1319 116.913 10.5926 118.453 9.99884 116.822C9.65471 115.94 8.91959 113.831 8.20728 111.689C7.20341 108.666 6.17333 105.596 5.68797 104.143C5.44941 104.327 5.30905 104.446 5.18801 104.544C4.50025 105.182 3.78274 105.786 3.0407 106.383C2.67758 106.677 2.31094 106.983 1.96359 107.268C1.82325 107.387 1.68292 107.506 1.54609 107.613C1.45662 107.693 1.36711 107.774 1.27763 107.854L1.32683 107.776C0.575935 108.449 -3.89546 111.957 -4.77966 112.726L-4.64989 112.643C-5.39556 113.345 -5.36728 113.154 -6.00927 113.634C-5.84634 113.667 -6.47449 114.283 -6.72362 114.504L-6.72882 114.476C-7.1025 114.806 -7.9079 115.624 -8.53945 116.159L-8.57092 116.084C-9.05872 116.581 -10.0832 117.375 -10.4568 117.706C-11.3602 118.402 -12.7915 119.412 -13.9109 120.444L-14.8122 120.902L-14.9087 121.007L-17.2214 123.423C-17.7391 123.978 -14.1717 124.404 -14.184 124.494C-14.4206 124.439 -14.6571 124.385 -14.7271 124.351C-14.6764 124.406 -14.2104 124.539 -13.9546 124.573L-13.8896 124.485C-13.3079 124.586 -13.7688 124.573 -13.2064 124.695C-13.1943 124.791 -13.7199 124.68 -14.1719 124.59C-13.7637 124.694 -13.3696 124.847 -13.182 124.795C-12.8054 124.916 -13.247 124.882 -12.7968 125.025C-12.4674 125.08 -12.0065 125.092 -11.6369 125.238L-11.6527 125.247C-10.7436 125.548 -10.2107 125.449 -9.38738 125.725L-9.4838 125.737C-9.20005 125.858 -8.59555 125.926 -8.06303 126.105C-8.20666 126.05 -8.32745 125.963 -8.01384 126.026C-7.40774 126.227 -6.96971 126.273 -6.53882 126.436L-6.09373 126.458C-3.94412 126.969 4.58974 128.821 6.74992 129.295L6.66055 129.283C8.84707 129.712 11.9007 130.402 15.1909 131.148Z" fill="white"/>
<path d="M53.4958 30.9398C53.0364 29.7195 52.5543 28.4396 52.1089 27.2631C51.8417 26.5758 51.6006 25.9359 51.3944 25.452C51.3387 25.1838 51.2024 24.8261 51.1099 24.5473C51.1448 24.7033 51.1028 24.6647 51.0574 24.5455C50.764 23.718 51.0031 24.5034 50.6852 23.6688C50.4965 23.2165 50.1 22.147 49.7071 21.0652C49.1535 19.5259 48.6034 17.9743 48.338 17.2344C48.2169 17.3324 48.1468 17.3919 48.0801 17.4391C47.731 17.7769 47.3766 18.0866 47.0064 18.4051C46.8274 18.5661 46.6362 18.7236 46.4608 18.8723C46.3906 18.9318 46.3205 18.9913 46.2503 19.0508C46.2117 19.0928 46.1608 19.1313 46.1187 19.1856L46.145 19.1401C45.7643 19.4953 43.5241 21.3343 43.089 21.7404L43.1556 21.6931C42.7837 22.0642 42.7996 21.9626 42.475 22.2145C42.5644 22.2269 42.2468 22.5472 42.1187 22.6697L42.11 22.6539C41.9275 22.8272 41.5256 23.256 41.2064 23.536L41.1924 23.4922C40.945 23.753 40.4415 24.1659 40.2468 24.3357C39.7977 24.6979 39.0733 25.2332 38.5188 25.7775L38.0646 26.0188L38.0225 26.0731L36.8643 27.3334C36.6063 27.631 38.4304 27.7962 38.4286 27.8488C38.3024 27.8259 38.1798 27.7907 38.143 27.7801C38.1728 27.8152 38.4093 27.8698 38.5389 27.8805L38.5653 27.835C38.8579 27.8791 38.6318 27.8806 38.9209 27.937C38.9226 27.9774 38.6545 27.9402 38.4303 27.8891C38.6423 27.9367 38.8472 28.0088 38.9349 27.9809C39.1311 28.0372 38.9085 28.0264 39.1415 28.0933C39.308 28.1145 39.5463 28.1166 39.739 28.1852L39.7354 28.1974C40.1979 28.3435 40.4696 28.2755 40.8953 28.4109L40.8427 28.4091C40.9864 28.4636 41.2948 28.4991 41.5646 28.5765C41.491 28.5554 41.4244 28.5097 41.5909 28.531C41.9097 28.6225 42.1287 28.6456 42.346 28.7212L42.572 28.7197C43.6722 28.9559 48.0488 29.8008 49.1648 30.0283L49.1245 30.03C50.2493 30.2732 51.8174 30.5907 53.4958 30.9398Z" fill="white"/>
<path d="M99.203 157.654C100.508 155.467 101.869 153.177 103.14 151.06C103.871 149.809 104.545 148.662 105.044 147.757C105.39 147.338 105.762 146.689 106.069 146.22C105.878 146.47 105.885 146.352 106.014 146.137C106.913 144.67 106.024 146.007 106.894 144.505C107.359 143.67 108.502 141.768 109.693 139.84C111.375 137.124 113.068 134.371 113.877 133.077C113.576 133.017 113.401 132.98 113.25 132.95C112.316 132.828 111.396 132.657 110.464 132.482C110 132.389 109.532 132.308 109.093 132.221C108.917 132.184 108.739 132.159 108.563 132.122C108.449 132.103 108.32 132.092 108.206 132.073L108.302 132.061C107.307 131.921 101.745 130.722 100.602 130.541L100.749 130.583C99.7349 130.464 99.8962 130.364 99.1166 130.167C99.1918 130.321 98.328 130.233 97.9986 130.178L98.0178 130.157C97.522 130.081 96.383 129.98 95.5701 129.852L95.6157 129.786C94.9271 129.734 93.6552 129.449 93.1593 129.373C92.0503 129.121 90.3633 128.663 88.8494 128.481L87.9281 128.083L87.7827 128.082L84.4533 127.843C83.6963 127.798 85.657 130.816 85.5781 130.86C85.468 130.642 85.3579 130.425 85.3422 130.341C85.3333 130.418 85.5255 130.858 85.6637 131.07L85.7724 131.062C86.0767 131.574 85.7827 131.211 86.0466 131.724C85.9887 131.787 85.723 131.326 85.5115 130.907C85.6932 131.291 85.8312 131.689 85.9853 131.8C86.1302 132.173 85.8765 131.808 86.0565 132.245C86.2384 132.536 86.5079 132.892 86.6406 133.262L86.6283 133.259C86.9724 134.14 87.4031 134.49 87.7123 135.309L87.6405 135.235C87.7295 135.526 88.0618 136.033 88.2697 136.557C88.2191 136.41 88.2088 136.261 88.3661 136.545C88.609 137.132 88.8503 137.493 88.9987 137.948L89.2804 138.307C90.2645 140.289 94.31 148.02 95.3222 149.997L95.275 149.93C96.2452 151.868 97.6629 154.651 99.203 157.654Z" fill="white"/>
<path d="M60.2973 88.3064C62.5839 87.1842 64.9897 86.0166 67.2096 84.9416C68.5108 84.2931 69.6891 83.7022 70.6098 83.2232C71.1357 83.0556 71.8003 82.7288 72.3158 82.5051C72.0213 82.6064 72.0897 82.5066 72.3159 82.4122C73.8677 81.6764 72.3967 82.316 73.9503 81.5275C74.7956 81.08 76.7981 80.1151 78.8409 79.1486C81.7359 77.8028 84.666 76.4274 86.0477 75.7754C85.8324 75.5543 85.7064 75.4385 85.5926 75.3262C84.8766 74.7225 84.2028 74.0645 83.5167 73.4029C83.1718 73.0783 82.8428 72.7449 82.5067 72.4361C82.3719 72.3045 82.2459 72.1886 82.1076 72.0693C82.0113 71.9886 81.9272 71.9114 81.831 71.8306L81.9256 71.871C81.1746 71.2042 77.1719 67.1615 76.3071 66.3823L76.4051 66.5034C75.6226 65.854 75.8083 65.8542 75.2746 65.263C75.2533 65.4294 74.5723 64.8888 74.3325 64.6607L74.3641 64.6432C73.9947 64.3115 73.0966 63.6024 72.4874 63.0426L72.5629 63.0112C72.0079 62.5864 71.1047 61.6635 70.7389 61.3195C69.9496 60.5089 68.7876 59.1931 67.6235 58.2085L67.0673 57.3719L66.9464 57.2841L64.2887 55.2602C63.676 54.8056 63.6627 58.4121 63.5733 58.3997C63.6034 58.1562 63.6335 57.9126 63.6546 57.8391C63.6003 57.8898 63.5278 58.3734 63.5222 58.624L63.6256 58.6802C63.602 59.2707 63.55 58.8045 63.4897 59.3845C63.4021 59.4124 63.436 58.878 63.4892 58.4154C63.4379 58.8254 63.3182 59.2423 63.3985 59.4247C63.3139 59.8119 63.2952 59.3685 63.214 59.8363C63.1961 60.1762 63.2393 60.6267 63.1424 61.0103L63.1302 61.0068C62.9432 61.9354 63.0986 62.4578 62.9205 63.3093L62.9083 63.2129C62.8239 63.5072 62.8213 64.117 62.7068 64.6549C62.7367 64.5042 62.8158 64.3676 62.7856 64.7041C62.6586 65.3313 62.6686 65.7589 62.5506 66.2161L62.5816 66.663C62.323 68.8585 61.4621 77.5443 61.2281 79.7469L61.2246 79.6662C60.9976 81.8443 60.6642 84.9474 60.2973 88.3064Z" fill="white"/>
<path d="M24.6121 90.8483C25.8258 88.6084 27.0958 86.2652 28.2761 84.0954C28.9612 82.8187 29.5778 81.6419 30.0434 80.7137C30.3804 80.2795 30.7159 79.6192 31.0144 79.1342C30.8354 79.388 30.8302 79.2671 30.9584 79.0517C31.7875 77.5509 30.9691 78.9221 31.7684 77.3862C32.1971 76.5403 33.2651 74.5771 34.3733 72.6123C35.94 69.8366 37.5207 67.0119 38.2759 65.6757C37.9711 65.628 37.7959 65.591 37.6417 65.5733C36.7095 65.4915 35.7791 65.3572 34.8365 65.2193C34.3652 65.1503 33.9061 65.0849 33.4505 65.0072C33.2718 64.9825 33.0931 64.9577 32.9144 64.933C32.7847 64.9223 32.6673 64.9151 32.5534 64.8957L32.6498 64.8836C31.6441 64.7807 26.0427 63.8098 24.8862 63.6769L25.0334 63.7191C24.0206 63.6408 24.1732 63.5253 23.383 63.3648C23.4704 63.5227 22.5961 63.4707 22.2631 63.4283L22.286 63.395C21.7831 63.3435 20.6423 63.2948 19.8258 63.1799L19.8715 63.1133C19.1758 63.0862 17.8985 62.8655 17.4027 62.7895C16.2919 62.5901 14.5714 62.2024 13.0557 62.0726L12.1239 61.7122L11.9784 61.7102L8.63488 61.6131C7.86731 61.6052 9.95783 64.5414 9.87891 64.5851C9.75652 64.3641 9.64636 64.1467 9.62365 64.0871C9.61479 64.1642 9.83507 64.5991 9.97325 64.8113L10.0819 64.8027C10.402 65.306 10.0922 64.9516 10.3878 65.448C10.3298 65.511 10.0483 65.0585 9.81748 64.6604C10.015 65.0357 10.1687 65.4249 10.3228 65.5355C10.4836 65.9002 10.2142 65.5441 10.4064 65.9842C10.5918 66.2631 10.8892 66.6139 11.022 66.9839L11.0097 66.9804C11.3977 67.8483 11.8319 68.1853 12.1726 68.9866L12.1008 68.9129C12.2021 69.2075 12.5537 69.6933 12.7774 70.2088C12.7145 70.0581 12.7042 69.9091 12.8738 70.1967C13.1324 70.7753 13.3896 71.1279 13.5695 71.5645L13.8548 71.9118C14.9178 73.8496 19.2754 81.4186 20.37 83.3389L20.3106 83.2688C21.4174 85.1926 22.9457 87.9143 24.6121 90.8483Z" fill="white"/>
<path d="M62.3277 176.053C63.249 173.676 64.2264 171.196 65.1266 168.893C65.647 167.542 66.1112 166.295 66.4577 165.319C66.7281 164.84 66.9937 164.146 67.2221 163.627C67.0763 163.904 67.0589 163.78 67.1504 163.554C67.7937 161.96 67.1365 163.417 67.7466 161.8C68.0562 160.907 68.8771 158.833 69.7297 156.742C70.9374 153.783 72.1555 150.788 72.7461 149.378C72.443 149.371 72.2607 149.358 72.103 149.353C71.1637 149.388 70.2261 149.372 69.2763 149.351C68.7997 149.347 68.3388 149.334 67.8779 149.321C67.6922 149.321 67.5187 149.324 67.3329 149.324C67.212 149.329 67.0911 149.334 66.9701 149.339L67.0701 149.315C66.0694 149.333 60.3812 149.081 59.2229 149.093L59.3771 149.111C58.3536 149.162 58.4974 149.031 57.7037 148.976C57.8104 149.112 56.9324 149.166 56.5976 149.176L56.6082 149.139C56.1 149.152 54.973 149.24 54.1371 149.239L54.1705 149.169C53.4747 149.235 52.1797 149.168 51.6785 149.157C50.5413 149.096 48.7978 148.928 47.2819 148.984L46.3025 148.742L46.1536 148.753L42.8358 149.074C42.0804 149.163 44.5182 151.814 44.4393 151.857C44.2976 151.657 44.1559 151.458 44.121 151.394C44.1244 151.475 44.3955 151.871 44.5652 152.066L44.6774 152.045C45.0641 152.501 44.7158 152.189 45.0587 152.659C45.0095 152.738 44.677 152.324 44.3988 151.952C44.6437 152.301 44.8413 152.676 45.0182 152.754C45.2263 153.092 44.906 152.775 45.1614 153.18C45.3784 153.441 45.7145 153.75 45.9068 154.097L45.891 154.106C46.3737 154.921 46.8534 155.192 47.3011 155.944L47.2259 155.883C47.371 156.163 47.777 156.599 48.0638 157.079C47.9851 156.937 47.959 156.797 48.1637 157.055C48.4977 157.602 48.7935 157.912 49.0208 158.323L49.3569 158.632C50.6479 160.422 55.9246 167.379 57.2437 169.165L57.1807 169.107C58.4491 170.838 60.3158 173.352 62.3277 176.053Z" fill="white"/>
<path d="M32.6208 167.756C30.184 168.476 27.6157 169.239 25.2508 169.94C23.8676 170.366 22.5878 170.755 21.6078 171.071C21.0697 171.143 20.3562 171.363 19.8092 171.511C20.1177 171.453 20.037 171.55 19.7933 171.612C18.1454 172.082 19.7003 171.705 18.0384 172.224C17.1302 172.52 15.0002 173.143 12.8176 173.764C9.74452 174.621 6.62758 175.492 5.155 175.905C5.33519 176.156 5.43838 176.305 5.5241 176.422C6.12779 177.14 6.69289 177.9 7.25798 178.659C7.53615 179.031 7.82306 179.419 8.08897 179.787C8.20444 179.94 8.31117 180.076 8.41789 180.213C8.49487 180.315 8.5754 180.404 8.6559 180.494L8.58061 180.432C9.21927 181.213 12.4923 185.856 13.2132 186.766L13.1344 186.624C13.8012 187.4 13.6102 187.371 14.0545 188.043C14.1002 187.884 14.6847 188.529 14.8859 188.8L14.8579 188.805C15.1693 189.199 15.9358 190.043 16.452 190.696L16.3679 190.712C16.8456 191.22 17.5891 192.283 17.8883 192.674C18.5373 193.604 19.4642 195.091 20.4424 196.261L20.8565 197.177L20.9616 197.273L23.2489 199.708C23.781 200.259 24.3901 196.704 24.4759 196.729C24.409 196.962 24.3421 197.195 24.2965 197.262C24.3509 197.211 24.5092 196.752 24.555 196.5L24.4675 196.435C24.5926 195.86 24.5675 196.317 24.7137 195.762C24.8066 195.762 24.6745 196.268 24.5565 196.726C24.6849 196.325 24.8624 195.937 24.8101 195.75C24.956 195.38 24.8941 195.827 25.0647 195.372C25.1317 195.046 25.169 194.592 25.3272 194.226L25.336 194.242C25.6823 193.359 25.6024 192.805 25.9241 192.008L25.924 192.101C26.0575 191.821 26.1494 191.223 26.3621 190.714C26.3075 190.857 26.2075 190.974 26.2868 190.652C26.5118 190.053 26.5825 189.622 26.7705 189.198L26.8079 188.744C27.4292 186.626 29.7022 178.2 30.2902 176.059L30.2778 176.149C30.8746 174.024 31.716 171 32.6208 167.756Z" fill="white"/>
</g>
</svg>
