<svg width="32" height="32" viewBox="0 0 32 32" fill="none" xmlns="http://www.w3.org/2000/svg">
<g clip-path="url(#clip0_4_662)">
<path d="M24.5002 22.3125H7.49893C3.36418 22.3125 0.000244141 18.9486 0.000244141 14.8138V7.5C0.000244141 3.3645 3.36474 0 7.50024 0H24.5002C28.6357 0 32.0002 3.3645 32.0002 7.5V14.8125C32.0002 18.948 28.6357 22.3125 24.5002 22.3125ZM7.50024 2.5C4.74324 2.5 2.50024 4.743 2.50024 7.5V14.8138C2.50024 17.5701 4.74268 19.8125 7.49893 19.8125H24.5002C27.2572 19.8125 29.5002 17.5695 29.5002 14.8125V7.5C29.5002 4.743 27.2572 2.5 24.5002 2.5H7.50024ZM14.3177 16.6278C13.8272 16.6278 13.3366 16.5002 12.887 16.2444C11.9795 15.7281 11.4377 14.7989 11.4377 13.7589V8.86613C11.4377 7.82613 11.9795 6.897 12.887 6.38062C13.8022 5.85994 14.8887 5.87012 15.7937 6.40788L19.9104 8.85431C20.7885 9.37613 21.3127 10.2951 21.3127 11.3125C21.3127 12.3299 20.7885 13.2489 19.9104 13.7708L15.7937 16.2172C15.3332 16.4908 14.8256 16.6278 14.3177 16.6278ZM14.5165 14.0679L18.6332 11.6215C18.7816 11.5333 18.8127 11.4047 18.8127 11.3124C18.8127 11.2201 18.7816 11.0916 18.6332 11.0034L14.5165 8.55694C14.3465 8.45587 14.1972 8.51138 14.1233 8.55338C14.0386 8.60156 13.9377 8.69487 13.9377 8.86594V13.7587C13.9377 13.9298 14.0386 14.0231 14.1233 14.0713C14.1972 14.1135 14.5165 14.0679 14.5165 14.0679ZM13.4377 30.75V25.75C13.4377 25.0596 12.8781 24.5 12.1877 24.5C11.4974 24.5 10.9377 25.0596 10.9377 25.75V30.75C10.9377 31.4404 11.4974 32 12.1877 32C12.8781 32 13.4377 31.4404 13.4377 30.75ZM32.0002 28.25C32.0002 27.5596 31.4406 27 30.7502 27H17.1877C16.4974 27 15.9377 27.5596 15.9377 28.25C15.9377 28.9404 16.4974 29.5 17.1877 29.5H30.7502C31.4406 29.5 32.0002 28.9404 32.0002 28.25ZM8.43774 28.25C8.43774 27.5596 7.87812 27 7.18774 27H1.25024C0.559869 27 0.000244141 27.5596 0.000244141 28.25C0.000244141 28.9404 0.559869 29.5 1.25024 29.5H7.18774C7.87812 29.5 8.43774 28.9404 8.43774 28.25Z" fill="url(#paint0_linear_4_662)"/>
</g>
<defs>
<linearGradient id="paint0_linear_4_662" x1="0.000244141" y1="16.0766" x2="32.0002" y2="16.0766" gradientUnits="userSpaceOnUse">
<stop stop-color="#6366F1"/>
<stop offset="0.5" stop-color="#8B5CF6"/>
<stop offset="1" stop-color="#D946EF"/>
</linearGradient>
<clipPath id="clip0_4_662">
<rect width="32" height="32" fill="white" transform="translate(0.000244141)"/>
</clipPath>
</defs>
</svg>
