<svg width="32" height="32" viewBox="0 0 32 32" fill="none" xmlns="http://www.w3.org/2000/svg">
<g clip-path="url(#clip0_4_676)">
<path d="M22.7502 10.7533C23.8548 10.7533 24.7502 9.85785 24.7502 8.75329C24.7502 7.64872 23.8548 6.7533 22.7502 6.7533C21.6457 6.7533 20.7502 7.64872 20.7502 8.75329C20.7502 9.85785 21.6457 10.7533 22.7502 10.7533Z" fill="url(#paint0_linear_4_676)"/>
<path d="M31.655 10.371C30.9875 8.67143 29.7635 6.21913 27.7229 4.18813C25.6894 2.16414 23.2631 0.975147 21.5858 0.334025C19.7443 -0.369785 17.6517 0.0738381 16.2548 1.46415L11.3462 6.34975C9.89117 7.79793 9.4718 10.0263 10.3026 11.8947C10.5602 12.4742 10.8404 13.041 11.1398 13.5887L0.366398 24.362C0.131962 24.5964 0.000274658 24.9144 0.000274658 25.2459V30.7459C0.000274658 31.4363 0.559897 31.9959 1.25027 31.9959H6.75025C7.44062 31.9959 8.00024 31.4363 8.00024 30.7459V28.4959L10.2502 28.4959C10.9406 28.4959 11.5002 27.9362 11.5002 27.2459V24.9959H13.7502C14.4406 24.9959 15.0002 24.4363 15.0002 23.7459C15.0002 23.0556 14.4406 22.4959 13.7502 22.4959H10.2502C9.55986 22.4959 9.00024 23.0556 9.00024 23.7459V25.9959L6.75025 25.9959C6.05988 25.9959 5.50025 26.5555 5.50025 27.2459V29.4959H2.50026V25.7637L13.5849 14.6791C13.9922 14.2718 14.0685 13.6392 13.7698 13.1468C13.3366 12.4328 12.9387 11.6698 12.5871 10.879C12.1747 9.95142 12.3848 8.84337 13.11 8.12156L18.0185 3.23601C18.7193 2.53858 19.7692 2.31614 20.6934 2.66927C22.1448 3.22401 24.2365 4.24513 25.9594 5.96C27.6928 7.68525 28.7481 9.80793 29.3281 11.2848C29.69 12.2065 29.4701 13.2537 28.7678 13.9527L23.7999 18.8973C23.0765 19.6173 21.9967 19.8278 21.0489 19.4336C20.2673 19.1084 19.5102 18.7222 18.799 18.2856C18.2106 17.9245 17.4409 18.1088 17.0798 18.6971C16.7186 19.2855 16.9028 20.0553 17.4912 20.4164C18.3132 20.9209 19.1872 21.3668 20.0888 21.7418C21.9727 22.5255 24.1216 22.1043 25.5635 20.6693L30.5313 15.7247C31.9404 14.3223 32.3815 12.2209 31.655 10.371Z" fill="url(#paint1_linear_4_676)"/>
</g>
<defs>
<linearGradient id="paint0_linear_4_676" x1="20.7502" y1="8.76286" x2="24.7502" y2="8.76286" gradientUnits="userSpaceOnUse">
<stop stop-color="#6366F1"/>
<stop offset="0.5" stop-color="#8B5CF6"/>
<stop offset="1" stop-color="#D946EF"/>
</linearGradient>
<linearGradient id="paint1_linear_4_676" x1="0.000274658" y1="16.0766" x2="32.0003" y2="16.0766" gradientUnits="userSpaceOnUse">
<stop stop-color="#6366F1"/>
<stop offset="0.5" stop-color="#8B5CF6"/>
<stop offset="1" stop-color="#D946EF"/>
</linearGradient>
<clipPath id="clip0_4_676">
<rect width="32" height="32" fill="white" transform="translate(0.000274658)"/>
</clipPath>
</defs>
</svg>
