<svg width="32" height="32" viewBox="0 0 32 32" fill="none" xmlns="http://www.w3.org/2000/svg">
<g clip-path="url(#clip0_4_669)">
<path d="M25.1258 0C21.335 0 18.251 2.87031 18.251 6.39831C18.251 7.58044 18.6074 8.74444 19.2661 9.74575L18.342 12.0316C18.1513 12.5033 18.2656 13.0434 18.6309 13.3975C18.869 13.6283 19.1827 13.7501 19.5012 13.7501C19.6715 13.75 19.843 13.7153 20.0052 13.6438L22.7945 12.4141C23.4893 12.6353 24.2575 12.7434 25.1257 12.7434C26.94 12.7434 28.6494 12.1011 29.939 10.9346C31.2658 9.7345 31.9979 8.12162 32.0004 6.38969C31.9954 2.86637 28.9114 0 25.1258 0ZM25.1258 10.2434C24.3735 10.2434 23.7576 10.1367 23.2429 9.917C23.0862 9.85012 22.9192 9.81675 22.7523 9.81675C22.5804 9.81675 22.4086 9.85219 22.2481 9.92294L21.8137 10.1144L21.8475 10.0308C22.022 9.599 21.942 9.10594 21.6399 8.75144C21.0584 8.06919 20.751 7.25544 20.751 6.39831C20.751 4.24875 22.7135 2.5 25.1258 2.5C27.535 2.5 29.4975 4.2465 29.5005 6.38963C29.4974 8.51456 27.5349 10.2434 25.1258 10.2434ZM30.0477 27.6262C30.2726 28.7023 30.0045 29.8081 29.312 30.6602C28.6201 31.5117 27.5929 32 26.4938 32H3.63215C2.53303 32 1.50584 31.5117 0.813967 30.6602C0.121467 29.8081 -0.146658 28.7022 0.0782791 27.6262C0.784842 24.246 2.65609 21.1702 5.3474 18.9654C6.78772 17.7854 8.42965 16.8857 10.1793 16.2989C8.24928 14.8253 7.00047 12.4942 7.00047 9.875C7.00047 5.42931 10.5975 1.8125 15.019 1.8125C15.1542 1.8125 15.2543 1.816 15.372 1.82156C16.0616 1.85419 16.5942 2.43969 16.5615 3.12925C16.5289 3.81881 15.9428 4.35225 15.2538 4.31875C15.1665 4.31462 15.1062 4.3125 15.0189 4.3125C11.976 4.3125 9.50047 6.80781 9.50047 9.875C9.50047 12.9422 11.976 15.4375 15.019 15.4375C15.1596 15.4375 15.2943 15.4618 15.4204 15.5046C20.3971 15.6194 24.998 18.1279 27.7832 22.2651C28.1687 22.8378 28.017 23.6146 27.4443 24.0001C26.8715 24.3857 26.0948 24.2338 25.7093 23.6612C23.3229 20.1163 19.3429 18 15.063 18C9.02609 18 3.75328 22.2635 2.52534 28.1376C2.45515 28.4736 2.53853 28.8184 2.75409 29.0836C2.88047 29.2391 3.16259 29.5 3.63215 29.5H26.4938C26.9633 29.5 27.2455 29.2391 27.3718 29.0836C27.5873 28.8184 27.6707 28.4736 27.6005 28.1376C27.4593 27.4619 27.8926 26.7996 28.5683 26.6583C29.2441 26.5172 29.9064 26.9504 30.0477 27.6262Z" fill="url(#paint0_linear_4_669)"/>
</g>
<defs>
<linearGradient id="paint0_linear_4_669" x1="0.000480652" y1="16.0766" x2="32.0004" y2="16.0766" gradientUnits="userSpaceOnUse">
<stop stop-color="#6366F1"/>
<stop offset="0.5" stop-color="#8B5CF6"/>
<stop offset="1" stop-color="#D946EF"/>
</linearGradient>
<clipPath id="clip0_4_669">
<rect width="32" height="32" fill="white" transform="translate(0.000259399)"/>
</clipPath>
</defs>
</svg>
