<svg width="14" height="14" viewBox="0 0 14 14" fill="none" xmlns="http://www.w3.org/2000/svg">
<path d="M13.7102 4.22875C13.702 3.661 13.597 3.09775 13.396 2.56675C13.0442 1.66 12.328 0.942998 11.4212 0.591998C10.897 0.394748 10.3427 0.288998 9.78174 0.276998C9.06024 0.244748 8.83149 0.235748 6.99999 0.235748C5.16849 0.235748 4.93374 0.235748 4.21749 0.276998C3.65724 0.288998 3.10299 0.394748 2.57874 0.591998C1.67199 0.942998 0.954992 1.66 0.603992 2.56675C0.406742 3.091 0.300242 3.64525 0.289742 4.2055C0.257492 4.92775 0.247742 5.1565 0.247742 6.988C0.247742 8.8195 0.247742 9.0535 0.289742 9.7705C0.300992 10.3315 0.406742 10.885 0.603992 11.4107C0.955742 12.3167 1.67199 13.0337 2.57949 13.3847C3.10149 13.5887 3.65574 13.7042 4.21824 13.7222C4.94049 13.7545 5.16924 13.7642 7.00074 13.7642C8.83224 13.7642 9.06699 13.7642 9.78324 13.7222C10.3435 13.711 10.8977 13.6052 11.4227 13.408C12.3295 13.0562 13.0457 12.3392 13.3975 11.4332C13.5947 10.9082 13.7005 10.3547 13.7117 9.793C13.744 9.0715 13.7537 8.84275 13.7537 7.0105C13.7522 5.179 13.7522 4.9465 13.7102 4.22875ZM6.99549 10.4515C5.07999 10.4515 3.52824 8.89975 3.52824 6.98425C3.52824 5.06875 5.07999 3.517 6.99549 3.517C8.90949 3.517 10.4627 5.06875 10.4627 6.98425C10.4627 8.89975 8.90949 10.4515 6.99549 10.4515ZM10.6007 4.19725C10.153 4.19725 9.79224 3.83575 9.79224 3.38875C9.79224 2.94175 10.153 2.58025 10.6007 2.58025C11.047 2.58025 11.4085 2.94175 11.4085 3.38875C11.4085 3.83575 11.047 4.19725 10.6007 4.19725Z" fill="#33354D"/>
</svg>
