<svg width="20" height="20" viewBox="0 0 20 20" fill="none" xmlns="http://www.w3.org/2000/svg">
<path d="M16.9025 8.6299H9.96334V11.5057H13.9567C13.585 13.3332 12.0292 14.3832 9.96334 14.3832C7.52751 14.3832 5.56417 12.4199 5.56417 9.98323C5.56417 7.5474 7.52751 5.58406 9.96334 5.58406C11.0125 5.58406 11.9608 5.95656 12.705 6.56573L14.8717 4.3999C13.5517 3.24906 11.8592 2.53906 9.96334 2.53906C5.83501 2.53906 2.51834 5.8549 2.51834 9.98406C2.51834 14.1132 5.83417 17.4291 9.96334 17.4291C13.6858 17.4291 17.0708 14.7216 17.0708 9.98406C17.0708 9.54406 17.0033 9.0699 16.9025 8.6299Z" fill="#33354D"/>
</svg>
