<svg width="18" height="17" viewBox="0 0 18 17" fill="none" xmlns="http://www.w3.org/2000/svg">
<path fill-rule="evenodd" clip-rule="evenodd" d="M9.02166 0.666748C4.43082 0.666748 0.709991 4.38758 0.709991 8.97841C0.709991 12.6501 3.09082 15.7659 6.39416 16.8659C6.80999 16.9409 6.95999 16.6851 6.95999 16.4651C6.95999 16.2676 6.95332 15.7442 6.95082 15.0517C4.63832 15.5534 4.14999 13.9367 4.14999 13.9367C3.77332 12.9767 3.22749 12.7209 3.22749 12.7209C2.47332 12.2051 3.28499 12.2167 3.28499 12.2167C4.11999 12.2751 4.55749 13.0734 4.55749 13.0734C5.29916 14.3434 6.50416 13.9767 6.97582 13.7642C7.05166 13.2267 7.26832 12.8601 7.50499 12.6526C5.65999 12.4434 3.71999 11.7301 3.71999 8.54425C3.71999 7.63841 4.04416 6.89508 4.57332 6.31508C4.48916 6.10425 4.20166 5.25841 4.65582 4.11508C4.65582 4.11508 5.35332 3.89091 6.94082 4.96591C7.60582 4.78175 8.31499 4.68925 9.02082 4.68591C9.72832 4.68925 10.4383 4.78175 11.1008 4.96591C12.6892 3.89008 13.3858 4.11508 13.3858 4.11508C13.84 5.25841 13.555 6.10425 13.4683 6.31508C14.0017 6.89508 14.3217 7.63758 14.3217 8.54425C14.3217 11.7384 12.38 12.4401 10.5283 12.6459C10.8242 12.9026 11.0908 13.4092 11.0908 14.1842C11.0908 15.2959 11.0808 16.1926 11.0808 16.4651C11.0808 16.6876 11.2292 16.9459 11.6533 16.8642C14.955 15.7626 17.3333 12.6492 17.3333 8.97841C17.3333 4.38758 13.6125 0.666748 9.02166 0.666748Z" fill="#33354D"/>
</svg>
