<svg width="16" height="12" viewBox="0 0 16 12" fill="none" xmlns="http://www.w3.org/2000/svg">
<path d="M13.7247 2.99775C13.7345 3.129 13.7345 3.2595 13.7345 3.39C13.7345 7.38375 10.6947 11.9858 5.1395 11.9858C3.428 11.9858 1.838 11.49 0.5 10.629C0.743 10.6568 0.977 10.6665 1.22975 10.6665C2.642 10.6665 3.94175 10.1895 4.9805 9.37575C3.65225 9.348 2.53925 8.478 2.15525 7.281C2.342 7.30875 2.5295 7.3275 2.726 7.3275C2.99675 7.3275 3.269 7.29 3.52175 7.22475C2.1365 6.94425 1.09925 5.7285 1.09925 4.26V4.2225C1.502 4.44675 1.96925 4.587 2.46425 4.60575C1.6505 4.06425 1.11725 3.138 1.11725 2.09025C1.11725 1.52925 1.2665 1.01475 1.52825 0.566252C3.0155 2.3985 5.25125 3.59625 7.75775 3.7275C7.71125 3.5025 7.68275 3.26925 7.68275 3.03525C7.68275 1.37025 9.02975 0.0142517 10.7037 0.0142517C11.5737 0.0142517 12.359 0.378752 12.911 0.968252C13.5935 0.837002 14.2475 0.584252 14.828 0.238502C14.6038 0.939752 14.126 1.52925 13.4998 1.9035C14.108 1.8375 14.6975 1.6695 15.239 1.4355C14.828 2.034 14.3142 2.56725 13.7247 2.99775Z" fill="#33354D"/>
</svg>
